{
.appVersion = "1342";
classes = (
{
automatic = 1;

glyphs = (
{
color = 7;
glyphname = A;
lastChange = "2020-11-26 21:43:25 +0000";
layers = (
{
anchors = (
{
name = bottom;
position = "{233, 0}";
},
{
name = ogonek;
position = "{444, 10}";
},
{
name = top;
position = "{233, 700}";
}
);
background = {
anchors = (
{
name = bottom;
position = "{238, 0}";
},
{
name = ogonek;
position = "{449, 10}";
},
{
name = top;
position = "{238, 700}";
}
);
paths = (
{
closed = 1;
nodes = (
"461 0 LINE",
"271 700 LINE",
"205 700 LINE",
"395 0 LINE"
);
},
{
closed = 1;
nodes = (
"364 178 LINE",
"382 244 LINE",
"107 244 LINE",
"89 178 LINE"
);
},
{
closed = 1;
nodes = (
"81 0 LINE",
"271 700 LINE",
"205 700 LINE",
"15 0 LINE"
);
}
);
};
components = (
{
name = V;
transform = "{1, 0, 0, -1, 0, 700}";
}
);
layerId = "EA4BDF10-EAD0-47D5-9AD5-B8C643A094C2";
paths = (
{
closed = 1;
nodes = (
"359 158 LINE",
"377 224 LINE",
"102 224 LINE",
"84 158 LINE"
);
}
);
width = 476;
},
{
anchors = (
{
name = bottom;
position = "{287, 0}";
},
{
name = ogonek;
position = "{438, 10}";
},
{
name = top;
position = "{287, 720}";
}
);
components = (
{
name = V;
transform = "{1, 0, 0, -1, 0, 720}";
}
);
layerId = "5EDCAC97-4996-4925-B8D9-EA484E9BADFC";
paths = (
{
closed = 1;
nodes = (
"467 135 LINE",
"481 241 LINE",
"86 241 LINE",
"62 135 LINE"
);
}
);
width = 574;
}
);
leftKerningGroup = A;
leftMetricsKey = "=15";
rightKerningGroup = A;
rightMetricsKey = "=15";
unicode = 0041;
},
{
glyphname = AE;
lastChange = "2020-11-26 21:43:25 +0000";
layers = (
{
anchors = (
{
name = bottom;
position = "{330, 0}";
},
{
name = top;
position = "{330, 700}";
}
);
components = (
{
name = E;
transform = "{1, 0, 0, 1, 265, 0}";
}
);
layerId = "EA4BDF10-EAD0-47D5-9AD5-B8C643A094C2";
paths = (
{
closed = 1;
nodes = (
"81 0 LINE",
"271 700 LINE",
"205 700 LINE",
"15 0 LINE"
);
},
{
closed = 1;
nodes = (
"324 178 LINE",
"342 244 LINE",
"117 244 LINE",
"99 178 LINE"
);
},
{
closed = 1;
nodes = (
"379 634 LINE",
"379 700 LINE",
"247 700 LINE",
"247 634 LINE"
);
}
);
width = 655;
},
{
anchors = (
{
name = bottom;
position = "{388, 0}";
},
{
name = top;
position = "{388, 720}";
}
);
components = (
{
name = E;
transform = "{1, 0, 0, 1, 311, 0}";
}
);
layerId = "5EDCAC97-4996-4925-B8D9-EA484E9BADFC";
paths = (
{
closed = 1;
nodes = (
"175 0 LINE",
"355 720 LINE",
"195 720 LINE",
"15 0 LINE"
);
},
{
closed = 1;
nodes = (
"468 135 LINE",
"482 241 LINE",
"127 241 LINE",
"113 135 LINE"
);
},
{
closed = 1;
nodes = (
"448 594 LINE",
"482 720 LINE",
"227 720 LINE",
"193 594 LINE"
);
}
);
width = 771;
}
);
leftKerningGroup = A;
leftMetricsKey = "=A";
rightKerningGroup = B;
rightMetricsKey = "=E";
unicode = 00C6;
},
{
color = 7;
glyphname = B;
lastChange = "2020-11-26 21:43:25 +0000";
layers = (
{
anchors = (
{
name = bottom;
position = "{213, 0}";
},
{
name = top;
position = "{213, 700}";
}
);
components = (
{
name = "tall-caps.curve";
transform = "{-1, 0, 0, 1, 400, -311}";
},
{
name = "tall-caps.curve";
transform = "{-1, 0, 0, -1, 400, 1056}";
},
{
name = "tall-caps.curve";
transform = "{-1, 0, 0, 1, 400, -15}";
},
{
name = "tall-caps.curve";
transform = "{-1, 0, 0, -1, 400, 715}";
},
{
name = I;
transform = "{1, 0, 0, 1, -10, 0}";
}
);
layerId = "EA4BDF10-EAD0-47D5-9AD5-B8C643A094C2";
paths = (
{
closed = 1;
nodes = (
"215 637 LINE",
"215 700 LINE",
"96 700 LINE",
"96 637 LINE"
);
},
{
closed = 1;
nodes = (
"215 0 LINE",
"215 63 LINE",
"96 63 LINE",
"96 0 LINE"
);
},
{
closed = 1;
nodes = (
"215 341 LINE",
"215 404 LINE",
"96 404 LINE",
"96 341 LINE"
);
},
{
closed = 1;
nodes = (
"400 179 LINE",
"400 225 LINE",
"334 225 LINE",
"334 179 LINE"
);
}
);
width = 425;
},
{
anchors = (
{
name = bottom;
position = "{265, 0}";
},
{
name = top;
position = "{265, 720}";
}
);
components = (
{
name = "tall-caps.curve";
transform = "{-1, 0, 0, 1, 500, -309}";
},
{
name = "tall-caps.curve";
transform = "{-1, 0, 0, -1, 500, 1037}";
},
{
name = "tall-caps.curve";
transform = "{-1, 0, 0, 1, 500, -16}";
},
{
name = "tall-caps.curve";
transform = "{-1, 0, 0, -1, 500, 736}";
},
{
name = I;
transform = "{1, 0, 0, 1, -10, 0}";
}
);
layerId = "5EDCAC97-4996-4925-B8D9-EA484E9BADFC";
paths = (
{
closed = 1;
nodes = (
"266 594 LINE",
"266 720 LINE",
"196 720 LINE",
"196 594 LINE"
);
},
{
closed = 1;
nodes = (
"266 0 LINE",
"266 126 LINE",
"196 126 LINE",
"196 0 LINE"
);
},
{
closed = 1;
nodes = (
"265 301 LINE",
"265 427 LINE",
"196 427 LINE",
"196 301 LINE"
);
},
{
closed = 1;
nodes = (
"500 209 LINE",
"500 218 LINE",
"334 218 LINE",
"334 209 LINE"
);
}
);
width = 525;
}
);
leftKerningGroup = B;
leftMetricsKey = "=40";
rightKerningGroup = B;
rightMetricsKey = "=25";
unicode = 0042;
},
{
color = 7;
glyphname = C;
lastChange = "2020-11-26 21:43:25 +0000";
layers = (
{
anchors = (
{
name = bottom;
position = "{218, 0}";
},
{
name = top;
position = "{218, 700}";
}
);
components = (
{
name = "tall-caps.curve";
transform = "{1, 0, 0, 1, 33, 1}";
},
{
name = "tall-caps.curve";
transform = "{1, 0, 0, -1, 33, 699}";
},
{
name = "tall-caps-open66.curve";
transform = "{-1, 0, 0, -1, 403, 699}";
},
{
name = "tall-cut.curve";
transform = "{1, 0, 0, 1, 218, 16}";
}
);
layerId = "EA4BDF10-EAD0-47D5-9AD5-B8C643A094C2";
paths = (
{
closed = 1;
nodes = (
"99 164 LINE",
"99 536 LINE",
"33 536 LINE",
"33 164 LINE"
);
},
{
closed = 1;
nodes = (
"403 163 LINE",
"403 210 LINE",
"337 210 LINE",
"337 163 LINE"
);
}
);
width = 424;
},
{
anchors = (
{
name = bottom;
position = "{264, 0}";
},
{
name = top;
position = "{264, 720}";
}
);
components = (
{
name = "tall-caps.curve";
transform = "{1, 0, 0, 1, 33, 0}";
},
{
name = "tall-caps.curve";
transform = "{1, 0, 0, -1, 33, 721}";
},
{
name = "tall-caps-open66.curve";
transform = "{-1, 0, 0, -1, 503, 721}";
},
{
name = "tall-cut.curve";
transform = "{1, 0, 0, 1, 268, 16}";
}
);
layerId = "5EDCAC97-4996-4925-B8D9-EA484E9BADFC";
paths = (
{
closed = 1;
nodes = (
"199 194 LINE",
"199 527 LINE",
"33 527 LINE",
"33 194 LINE"
);
},
{
closed = 1;
nodes = (
"503 193 LINE",
"503 244 LINE",
"337 244 LINE",
"337 193 LINE"
);
}
);
width = 522;
}
);
leftKerningGroup = Q;
leftMetricsKey = "=33";
rightKerningGroup = Q;
rightMetricsKey = "=A";
unicode = 0043;
},
{
glyphname = D;
lastChange = "2020-11-26 21:43:25 +0000";
layers = (
{
anchors = (
{
name = bottom;
position = "{206, 0}";
},
{
name = center;
position = "{206, 350}";
},
{
name = top;
position = "{206, 700}";
}
);
components = (
{
name = "tall-caps.curve";
transform = "{-1, 0, 0, 1, 390, -15}";
},
{
name = "tall-caps.curve";
transform = "{-1, 0, 0, -1, 390, 715}";
},
{
name = I;
transform = "{1, 0, 0, 1, -10, 0}";
}
);
layerId = "EA4BDF10-EAD0-47D5-9AD5-B8C643A094C2";
paths = (
{
closed = 1;
nodes = (
"390 180 LINE",
"390 520 LINE",
"324 520 LINE",
"324 180 LINE"
);
},
{
closed = 1;
nodes = (
"205 0 LINE",
"205 63 LINE",
"96 63 LINE",
"96 0 LINE"
);
},
{
closed = 1;
nodes = (
"205 637 LINE",
"205 700 LINE",
"96 700 LINE",
"96 637 LINE"
);
},
{
closed = 1;
nodes = (
"205 637 LINE",
"205 700 LINE",
"96 700 LINE",
"96 637 LINE"
);
}
);
width = 425;
},
{
anchors = (
{
name = bottom;
position = "{258, 0}";
},
{
name = center;
position = "{258, 360}";
},
{
name = top;
position = "{258, 720}";
}
);
components = (
{
name = "tall-caps.curve";
transform = "{-1, 0, 0, 1, 500, -16}";
},
{
name = "tall-caps.curve";
transform = "{-1, 0, 0, -1, 500, 736}";
},
{
name = I;
transform = "{1, 0, 0, 1, -10, 0}";
}
);
layerId = "5EDCAC97-4996-4925-B8D9-EA484E9BADFC";
paths = (
{
closed = 1;
nodes = (
"500 208 LINE",
"500 511 LINE",
"334 511 LINE",
"334 208 LINE"
);
},
{
closed = 1;
nodes = (
"265 0 LINE",
"265 126 LINE",
"196 126 LINE",
"196 0 LINE"
);
},
{
closed = 1;
nodes = (
"265 594 LINE",
"265 720 LINE",
"196 720 LINE",
"196 594 LINE"
);
},
{
closed = 1;
nodes = (
"265 594 LINE",
"265 720 LINE",
"196 720 LINE",
"196 594 LINE"
);
}
);
width = 535;
}
);
leftKerningGroup = B;
leftMetricsKey = "=B";
rightKerningGroup = B;
rightMetricsKey = "=B+10";
unicode = 0044;
},
{
glyphname = E;
lastChange = "2020-11-26 21:43:25 +0000";
layers = (
{
anchors = (
{
name = bottom;
position = "{199, 0}";
},
{
name = ogonek;
position = "{402, 10}";
},
{
name = top;
position = "{199, 700}";
},
{
name = topleft;
position = "{20, 700}";
}
);
components = (
{
name = F;
}
);
layerId = "EA4BDF10-EAD0-47D5-9AD5-B8C643A094C2";
paths = (
{
closed = 1;
nodes = (
"370 0 LINE",
"370 66 LINE",
"106 66 LINE",
"106 0 LINE"
);
}
);
width = 390;
},
{
anchors = (
{
name = bottom;
position = "{245, 0}";
},
{
name = ogonek;
position = "{411, 10}";
},
{
name = top;
position = "{245, 720}";
},
{
name = topleft;
position = "{20, 720}";
}
);
components = (
{
name = F;
}
);
layerId = "5EDCAC97-4996-4925-B8D9-EA484E9BADFC";
paths = (
{
closed = 1;
nodes = (
"440 0 LINE",
"440 126 LINE",
"206 126 LINE",
"206 0 LINE"
);
}
);
width = 460;
}
);
leftKerningGroup = B;
leftMetricsKey = "=B";
rightKerningGroup = B;
rightMetricsKey = "=B-5";
unicode = 0045;
},
{
color = 7;
glyphname = F;
lastChange = "2020-11-26 21:43:25 +0000";
layers = (
{
anchors = (
{
name = bottom;
position = "{232, 0}";
},
{
name = top;
position = "{232, 700}";
}
);
components = (
{
name = L;
transform = "{1, 0, 0, -1, 0, 700}";
}
);
layerId = "EA4BDF10-EAD0-47D5-9AD5-B8C643A094C2";
paths = (
{
closed = 1;
nodes = (
"310 315 LINE",
"310 381 LINE",
"106 381 LINE",
"106 315 LINE"
);
}
);
width = 365;
},
{
anchors = (
{
name = bottom;
position = "{238, 0}";
},
{
name = top;
position = "{238, 720}";
}
);
components = (
{
name = L;
transform = "{1, 0, 0, -1, 0, 720}";
}
);
layerId = "5EDCAC97-4996-4925-B8D9-EA484E9BADFC";
paths = (
{
closed = 1;
nodes = (
"380 297 LINE",
"380 423 LINE",
"206 423 LINE",
"206 297 LINE"
);
}
);
width = 435;
}
);
leftKerningGroup = B;
leftMetricsKey = "=B";
rightKerningGroup = F;
rightMetricsKey = "=5";
unicode = 0046;
},
{
glyphname = G;
lastChange = "2020-11-26 21:43:25 +0000";
layers = (
{
anchors = (
{
name = bottom;
position = "{235, 0}";
},
{
name = top;
position = "{235, 700}";
}
);
components = (
{
name = C;
}
);
layerId = "EA4BDF10-EAD0-47D5-9AD5-B8C643A094C2";
paths = (
{
closed = 1;
nodes = (
"403 299 LINE",
"403 365 LINE",
"213 365 LINE",
"213 299 LINE"
);
},
{
closed = 1;
nodes = (
"403 200 LINE",
"403 362 LINE",
"337 362 LINE",
"337 200 LINE"
);
}
);
width = 444;
},
{
anchors = (
{
name = bottom;
position = "{269, 0}";
},
{
name = top;
position = "{269, 720}";
}
);
components = (
{
name = C;
}
);
layerId = "5EDCAC97-4996-4925-B8D9-EA484E9BADFC";
paths = (
{
closed = 1;
nodes = (
"503 279 LINE",
"503 405 LINE",
"253 405 LINE",
"253 279 LINE"
);
},
{
closed = 1;
nodes = (
"503 230 LINE",
"503 402 LINE",
"337 402 LINE",
"337 230 LINE"
);
}
);
width = 542;
}
);
leftKerningGroup = Q;
leftMetricsKey = "=C";
rightKerningGroup = Q;
rightMetricsKey = "=D";
unicode = 0047;
},
{
glyphname = H;
lastChange = "2020-11-26 21:43:25 +0000";
layers = (
{
anchors = (
{
name = bottom;
position = "{216, 0}";
},
{
name = center;
position = "{216, 350}";
},
{
name = top;
position = "{216, 700}";
},
{
name = topleft;
position = "{10, 700}";
}
);
background = {
paths = (
{
closed = 1;
nodes = (
"356 697 LINE",
"356 3 LINE",
"359 0 LINE",
"419 0 LINE",
"422 3 LINE",
"422 697 LINE",
"419 700 LINE",
"359 700 LINE"
);
},
{
closed = 1;
nodes = (
"80 379 LINE",
"80 321 LINE",
"83 317 LINE",
"383 317 LINE",
"386 321 LINE",
"386 379 LINE",
"383 383 LINE",
"83 383 LINE"
);
},
{
closed = 1;
nodes = (
"50 697 LINE",
"50 3 LINE",
"53 0 LINE",
"113 0 LINE",
"116 3 LINE",
"116 697 LINE",
"113 700 LINE",
"53 700 LINE"
);
}
);
};
components = (
{
name = I;
transform = "{1, 0, 0, 1, 296, 0}";
},
{
name = I;
transform = "{1, 0, 0, 1, -10, 0}";
}
);
layerId = "EA4BDF10-EAD0-47D5-9AD5-B8C643A094C2";
paths = (
{
closed = 1;
nodes = (
"386 318 LINE",
"386 381 LINE",
"80 381 LINE",
"80 318 LINE"
);
}
);
width = 452;
},
{
anchors = (
{
name = bottom;
position = "{266, 0}";
},
{
name = center;
position = "{266, 360}";
},
{
name = top;
position = "{266, 720}";
},
{
name = topleft;
position = "{10, 720}";
}
);
components = (
{
name = I;
transform = "{1, 0, 0, 1, 296, 0}";
},
{
name = I;
transform = "{1, 0, 0, 1, -10, 0}";
}
);
layerId = "5EDCAC97-4996-4925-B8D9-EA484E9BADFC";
paths = (
{
closed = 1;
nodes = (
"426 298 LINE",
"426 421 LINE",
"120 421 LINE",
"120 298 LINE"
);
}
);
width = 552;
}
);
leftKerningGroup = B;
leftMetricsKey = "=B";
rightKerningGroup = H;
rightMetricsKey = "=|B";
unicode = 0048;
},
{
glyphname = I;
lastChange = "2020-11-26 21:43:25 +0000";
layers = (
{
anchors = (
{
name = bottom;
position = "{83, 0}";
},
{
name = ogonek;
position = "{162, 10}";
},
{
name = top;
position = "{83, 700}";
},
{
name = topleft;
position = "{4, 700}";
}
);
layerId = "EA4BDF10-EAD0-47D5-9AD5-B8C643A094C2";
paths = (
{
closed = 1;
nodes = (
"116 0 LINE",
"116 700 LINE",
"50 700 LINE",
"50 0 LINE"
);
}
);
width = 166;
},
{
anchors = (
{
name = bottom;
position = "{133, 0}";
},
{
name = ogonek;
position = "{162, 10}";
},
{
name = top;
position = "{133, 720}";
},
{
name = topleft;
position = "{4, 720}";
}
);
layerId = "5EDCAC97-4996-4925-B8D9-EA484E9BADFC";
paths = (
{
closed = 1;
nodes = (
"216 0 LINE",
"216 720 LINE",
"50 720 LINE",
"50 0 LINE"
);
}
);
width = 266;
}
);
leftKerningGroup = B;
leftMetricsKey = "=B+10";
rightKerningGroup = H;
rightMetricsKey = "=|B+10";
unicode = 0049;
},
{
glyphname = J;
lastChange = "2020-11-26 21:43:25 +0000";
layers = (
{
anchors = (
{
name = bottom;
position = "{116, 0}";
},
{
name = top;
position = "{116, 700}";
}
);
components = (
{
name = fountain.curve.comp;
transform = "{-1, 0, 0, -1, 207, 684}";
}
);
layerId = "EA4BDF10-EAD0-47D5-9AD5-B8C643A094C2";
paths = (
{
closed = 1;
nodes = (
"207 139 LINE",
"207 700 LINE",
"141 700 LINE",
"141 139 LINE"
);
}
);
width = 247;
},
{
anchors = (
{
name = bottom;
position = "{160, 0}";
},
{
name = top;
position = "{160, 720}";
}
);
components = (
{
name = fountain.curve.comp;
transform = "{-1, 0, 0, -1, 322, 720}";
}
);
layerId = "5EDCAC97-4996-4925-B8D9-EA484E9BADFC";
paths = (
{
closed = 1;
nodes = (
"322 193 LINE",
"322 720 LINE",
"156 720 LINE",
"156 193 LINE"
);
}
);
width = 362;
}
);
leftKerningGroup = J;
leftMetricsKey = "=|F*-1";
rightKerningGroup = J;
rightMetricsKey = "=|B";
unicode = 004A;
},
{
glyphname = K;
lastChange = "2020-11-26 21:43:25 +0000";
layers = (
{
anchors = (
{
name = bottom;
position = "{252, 0}";
},
{
name = top;
position = "{252, 700}";
}
);
components = (
{
name = I;
transform = "{1, 0, 0, 1, -10, 0}";
}
);
layerId = "EA4BDF10-EAD0-47D5-9AD5-B8C643A094C2";
paths = (
{
closed = 1;
nodes = (
"105 319 LINE",
"399 700 LINE",
"324 700 LINE",
"40 332 LINE"
);
},
{
closed = 1;
nodes = (
"412 0 LINE",
"186 428 LINE",
"116 428 LINE",
"342 0 LINE"
);
}
);
width = 407;
},
{
anchors = (
{
name = bottom;
position = "{267, 0}";
},
{
name = top;
position = "{267, 720}";
}
);
components = (
{
name = I;
transform = "{1, 0, 0, 1, -10, 0}";
}
);
layerId = "5EDCAC97-4996-4925-B8D9-EA484E9BADFC";
paths = (
{
closed = 1;
nodes = (
"169 240 LINE",
"535 720 LINE",
"335 720 LINE",
"65 352 LINE"
);
},
{
closed = 1;
nodes = (
"547 0 LINE",
"303 436 LINE",
"148 378 LINE",
"362 0 LINE"
);
}
);
width = 542;
}
);
leftKerningGroup = B;
leftMetricsKey = "=B";
rightKerningGroup = K;
rightMetricsKey = "=F*-1";
unicode = 004B;
},
{
glyphname = L;
lastChange = "2020-11-26 21:43:25 +0000";
layers = (
{
anchors = (
{
name = bottom;
position = "{178, 0}";
},
{
name = center;
position = "{178, 350}";
},
{
name = top;
position = "{178, 700}";
},
{
name = topright;
position = "{460, 700}";
}
);
components = (
{
name = I;
transform = "{1, 0, 0, 1, -10, 0}";
}
);
layerId = "EA4BDF10-EAD0-47D5-9AD5-B8C643A094C2";
paths = (
{
closed = 1;
nodes = (
"360 0 LINE",
"360 66 LINE",
"96 66 LINE",
"96 0 LINE"
);
}
);
width = 355;
},
{
anchors = (
{
name = bottom;
position = "{213, 0}";
},
{
name = center;
position = "{213, 360}";
},
{
name = top;
position = "{213, 720}";
},
{
name = topright;
position = "{415, 720}";
}
);
components = (
{
name = I;
transform = "{1, 0, 0, 1, -10, 0}";
}
);
layerId = "5EDCAC97-4996-4925-B8D9-EA484E9BADFC";
paths = (
{
closed = 1;
nodes = (
"430 0 LINE",
"430 126 LINE",
"196 126 LINE",
"196 0 LINE"
);
}
);
width = 425;
}
);
leftKerningGroup = B;
leftMetricsKey = "=B";
rightKerningGroup = L;
rightMetricsKey = "=F*-1";
unicode = 004C;
},
{
glyphname = M;
lastChange = "2020-11-26 21:43:25 +0000";
layers = (
{
anchors = (
{
name = bottom;
position = "{273, 0}";
},
{
name = top;
position = "{273, 700}";
}
);
components = (
{
name = I;
transform = "{1, 0, 0, 1, -10, 0}";
},
{
name = I;
transform = "{1, 0, 0, 1, 390, 0}";
}
);
layerId = "EA4BDF10-EAD0-47D5-9AD5-B8C643A094C2";
paths = (
{
closed = 1;
nodes = (
"306 160 LINE",
"483 700 LINE",
"417 700 LINE",
"240 160 LINE"
);
},
{
closed = 1;
nodes = (
"306 160 LINE",
"129 700 LINE",
"63 700 LINE",
"240 160 LINE"
);
}
);
width = 546;
},
{
anchors = (
{
name = bottom;
position = "{337, 0}";
},
{
name = top;
position = "{337, 720}";
}
);
components = (
{
name = I;
transform = "{1, 0, 0, 1, -10, 0}";
},
{
name = I;
transform = "{1, 0, 0, 1, 438, 0}";
}
);
layerId = "5EDCAC97-4996-4925-B8D9-EA484E9BADFC";
paths = (
{
closed = 1;
nodes = (
"403 170 LINE",
"609 720 LINE",
"469 720 LINE",
"293 170 LINE"
);
},
{
closed = 1;
nodes = (
"401 170 LINE",
"225 720 LINE",
"85 720 LINE",
"291 170 LINE"
);
}
);
width = 694;
}
);
leftKerningGroup = B;
leftMetricsKey = "=B";
rightKerningGroup = H;
rightMetricsKey = "=H";
unicode = 004D;
},
{
glyphname = N;
lastChange = "2020-11-26 21:43:25 +0000";
layers = (
{
anchors = (
{
name = bottom;
position = "{234, 0}";
},
{
name = top;
position = "{234, 700}";
}
);
components = (
{
name = I;
transform = "{1, 0, 0, 1, 321, 0}";
},
{
name = I;
transform = "{1, 0, 0, 1, -10, 0}";
}
);
layerId = "EA4BDF10-EAD0-47D5-9AD5-B8C643A094C2";
paths = (
{
closed = 1;
nodes = (
"427 11 LINE",
"106 700 LINE",
"41 684 LINE",
"361 0 LINE"
);
}
);
width = 477;
},
{
anchors = (
{
name = bottom;
position = "{289, 0}";
},
{
name = top;
position = "{289, 720}";
}
);
components = (
{
name = I;
transform = "{1, 0, 0, 1, 341, 0}";
},
{
name = I;
transform = "{1, 0, 0, 1, -10, 0}";
}
);
layerId = "5EDCAC97-4996-4925-B8D9-EA484E9BADFC";
paths = (
{
closed = 1;
nodes = (
"531 0 LINE",
"206 720 LINE",
"66 720 LINE",
"391 0 LINE"
);
}
);
width = 597;
}
);
leftKerningGroup = B;
leftMetricsKey = "=B";
rightKerningGroup = H;
rightMetricsKey = "=H";
unicode = 004E;
},
{
glyphname = O;
lastChange = "2020-11-26 21:43:25 +0000";
layers = (
{
anchors = (
{
name = bottom;
position = "{220, 0}";
},
{
name = center;
position = "{220, 350}";
},
{
name = ogonek;
position = "{416, 10}";
},
{
name = top;
position = "{220, 700}";
},
{
name = topleft;
position = "{-5, 700}";
},
{
name = topright;
position = "{445, 700}";
}
);
background = {
paths = (
{
closed = 1;
nodes = (
"35 565 LINE",
"35 135 LINE",
"101 135 LINE",
"101 565 LINE"
);
},
{
closed = 1;
nodes = (
"220 715 LINE",
"109 715 OFFCURVE",
"35 655 OFFCURVE",
"35 565 CURVE",
"101 565 LINE",
"101 615 OFFCURVE",
"149 649 OFFCURVE",
"220 649 CURVE"
);
},
{
closed = 1;
nodes = (
"339 135 LINE",
"405 135 LINE",
"405 565 LINE",
"339 565 LINE"
);
},
{
closed = 1;
nodes = (
"291 649 OFFCURVE",
"339 615 OFFCURVE",
"339 565 CURVE",
"405 565 LINE",
"405 655 OFFCURVE",
"331 715 OFFCURVE",
"220 715 CURVE",
"220 649 LINE"
);
},
{
closed = 1;
nodes = (
"149 51 OFFCURVE",
"101 85 OFFCURVE",
"101 135 CURVE",
"35 135 LINE",
"35 45 OFFCURVE",
"109 -15 OFFCURVE",
"220 -15 CURVE",
"220 51 LINE"
);
},
{
closed = 1;
nodes = (
"220 -15 LINE",
"331 -15 OFFCURVE",
"405 45 OFFCURVE",
"405 135 CURVE",
"339 135 LINE",
"339 85 OFFCURVE",
"291 51 OFFCURVE",
"220 51 CURVE"
);
}
);
};
components = (
{
name = "tall-caps.curve";
transform = "{-1, 0, 0, 1, 405, 0}";
},
{
name = "tall-caps.curve";
transform = "{1, 0, 0, 1, 35, 0}";
},
{
name = "tall-caps.curve";
transform = "{-1, 0, 0, -1, 405, 700}";
},
{
name = "tall-caps.curve";
transform = "{1, 0, 0, -1, 35, 700}";
}
);
layerId = "EA4BDF10-EAD0-47D5-9AD5-B8C643A094C2";
paths = (
{
closed = 1;
nodes = (
"405 164 LINE",
"405 536 LINE",
"339 536 LINE",
"339 164 LINE"
);
},
{
closed = 1;
nodes = (
"101 164 LINE",
"101 536 LINE",
"35 536 LINE",
"35 164 LINE"
);
}
);
width = 440;
},
{
anchors = (
{
name = bottom;
position = "{269, 0}";
},
{
name = center;
position = "{269, 360}";
},
{
name = ogonek;
position = "{485, 10}";
},
{
name = top;
position = "{269, 720}";
},
{
name = topleft;
position = "{19, 720}";
},
{
name = topright;
position = "{519, 720}";
}
);
components = (
{
name = "tall-caps.curve";
transform = "{-1, 0, 0, 1, 503, -1}";
},
{
name = "tall-caps.curve";
transform = "{1, 0, 0, 1, 35, -1}";
},
{
name = "tall-caps.curve";
transform = "{-1, 0, 0, -1, 503, 721}";
},
{
name = "tall-caps.curve";
transform = "{1, 0, 0, -1, 35, 721}";
}
);
layerId = "5EDCAC97-4996-4925-B8D9-EA484E9BADFC";
paths = (
{
closed = 1;
nodes = (
"503 194 LINE",
"503 527 LINE",
"337 527 LINE",
"337 194 LINE"
);
},
{
closed = 1;
nodes = (
"201 194 LINE",
"201 527 LINE",
"35 527 LINE",
"35 194 LINE"
);
}
);
width = 538;
}
);
leftKerningGroup = Q;
leftMetricsKey = "=|D";
rightKerningGroup = Q;
rightMetricsKey = "=D";
unicode = 004F;
},
{
glyphname = P;
lastChange = "2020-11-26 21:43:25 +0000";
layers = (
{
anchors = (
{
name = bottom;
position = "{203, 0}";
},
{
name = top;
position = "{203, 700}";
}
);
components = (
{
name = I;
transform = "{1, 0, 0, 1, -10, 0}";
},
{
name = "tall-caps.curve";
transform = "{-1, 0, 0, 1, 390, -15}";
},
{
name = "tall-caps.curve";
transform = "{-1, 0, 0, -1, 390, 994}";
}
);
layerId = "EA4BDF10-EAD0-47D5-9AD5-B8C643A094C2";
paths = (
{
closed = 1;
nodes = (
"206 637 LINE",
"206 700 LINE",
"86 700 LINE",
"86 637 LINE"
);
},
{
closed = 1;
nodes = (
"206 279 LINE",
"206 342 LINE",
"86 342 LINE",
"86 279 LINE"
);
},
{
closed = 1;
nodes = (
"390 458 LINE",
"390 520 LINE",
"324 520 LINE",
"324 458 LINE"
);
}
);
width = 405;
},
{
anchors = (
{
name = bottom;
position = "{243, 0}";
},
{
name = top;
position = "{243, 720}";
}
);
components = (
{
name = I;
transform = "{1, 0, 0, 1, -10, 0}";
},
{
name = "tall-caps.curve";
transform = "{-1, 0, 0, 1, 480, -16}";
},
{
name = "tall-caps.curve";
transform = "{-1, 0, 0, -1, 480, 984}";
}
);
layerId = "5EDCAC97-4996-4925-B8D9-EA484E9BADFC";
paths = (
{
closed = 1;
nodes = (
"246 594 LINE",
"246 720 LINE",
"196 720 LINE",
"196 594 LINE"
);
},
{
closed = 1;
nodes = (
"246 248 LINE",
"246 374 LINE",
"196 374 LINE",
"196 248 LINE"
);
},
{
closed = 1;
nodes = (
"480 457 LINE",
"480 511 LINE",
"314 511 LINE",
"314 457 LINE"
);
}
);
width = 495;
}
);
leftKerningGroup = B;
leftMetricsKey = "=B";
rightKerningGroup = P;
rightMetricsKey = "=A";
unicode = 0050;
},
{
glyphname = Thorn;
lastChange = "2020-11-26 21:43:25 +0000";
layers = (
{
anchors = (
{
name = bottom;
position = "{198, 0}";
},
{
name = top;
position = "{198, 700}";
}
);
components = (
{
name = I;
transform = "{1, 0, 0, 1, -10, 0}";
},
{
name = "tall-caps.curve";
transform = "{-1, 0, 0, 1, 390, -155}";
},
{
name = "tall-caps.curve";
transform = "{-1, 0, 0, -1, 390, 854}";
}
);
layerId = "EA4BDF10-EAD0-47D5-9AD5-B8C643A094C2";
paths = (
{
closed = 1;
nodes = (
"205 497 LINE",
"205 560 LINE",
"86 560 LINE",
"86 497 LINE"
);
},
{
closed = 1;
nodes = (
"205 139 LINE",
"205 202 LINE",
"86 202 LINE",
"86 139 LINE"
);
},
{
closed = 1;
nodes = (
"390 318 LINE",
"390 380 LINE",
"324 380 LINE",
"324 318 LINE"
);
}
);
width = 405;
},
{
anchors = (
{
name = bottom;
position = "{243, 0}";
},
{
name = top;
position = "{243, 720}";
}
);
components = (
{
name = I;
transform = "{1, 0, 0, 1, -10, 0}";
},
{
name = "tall-caps.curve";
transform = "{-1, 0, 0, 1, 480, -145}";
},
{
name = "tall-caps.curve";
transform = "{-1, 0, 0, -1, 480, 865}";
}
);
layerId = "5EDCAC97-4996-4925-B8D9-EA484E9BADFC";
paths = (
{
closed = 1;
nodes = (
"245 465 LINE",
"245 591 LINE",
"196 591 LINE",
"196 465 LINE"
);
},
{
closed = 1;
nodes = (
"245 129 LINE",
"245 255 LINE",
"196 255 LINE",
"196 129 LINE"
);
},
{
closed = 1;
nodes = (
"480 339 LINE",
"480 381 LINE",
"314 381 LINE",
"314 339 LINE"
);
}
);
width = 495;
}
);
leftKerningGroup = B;
leftMetricsKey = P;
rightKerningGroup = P;
rightMetricsKey = P;
unicode = 00DE;
},
{
glyphname = Q;
lastChange = "2020-12-20 14:52:30 +0000";
layers = (
{
anchors = (
{
name = bottom;
position = "{245, 0}";
},
{
name = top;
position = "{245, 700}";
}
);
components = (
{
name = O;
}
);
layerId = "EA4BDF10-EAD0-47D5-9AD5-B8C643A094C2";
paths = (
{
closed = 1;
nodes = (
"395 -70 LINE",
"344 -63 OFFCURVE",
"301 -32 OFFCURVE",
"261 11 CURVE",
"223 -37 LINE",
"270 -86 OFFCURVE",
"321 -120 OFFCURVE",
"368 -123 CURVE"
);
}
);
width = 440;
},
{
anchors = (
{
name = bottom;
position = "{260, 0}";
},
{
name = top;
position = "{260, 720}";
}
);
components = (
{
name = O;
}
);
layerId = "5EDCAC97-4996-4925-B8D9-EA484E9BADFC";
paths = (
{
closed = 1;
nodes = (
"465 -68 LINE",
"394 -54 OFFCURVE",
"351 -10 OFFCURVE",
"311 33 CURVE",
"226 -60 LINE",
"273 -109 OFFCURVE",
"332 -153 OFFCURVE",
"408 -171 CURVE"
);
}
);
width = 538;
}
);
leftKerningGroup = Q;
leftMetricsKey = "=|D";
rightKerningGroup = Q;
rightMetricsKey = "=D";
unicode = 0051;
},
{
glyphname = R;
lastChange = "2020-12-19 21:27:01 +0000";
layers = (
{
anchors = (
{
name = bottom;
position = "{236, 0}";
},
{
name = top;
position = "{206, 700}";
}
);
components = (
{
name = P;
}
);
layerId = "EA4BDF10-EAD0-47D5-9AD5-B8C643A094C2";
paths = (
{
closed = 1;
nodes = (
"409 0 LINE",
"275 311 LINE",
"206 311 LINE",
"340 0 LINE"
);
}
);
width = 424;
},
{
anchors = (
{
name = bottom;
position = "{270, 0}";
},
{
name = top;
position = "{270, 720}";
}
);
components = (
{
name = P;
}
);
layerId = "5EDCAC97-4996-4925-B8D9-EA484E9BADFC";
paths = (
{
closed = 1;
nodes = (
"510 0 LINE",
"376 331 LINE",
"212 331 LINE",
"346 0 LINE"
);
}
);
width = 525;
}
);
leftKerningGroup = B;
leftMetricsKey = "=B";
rightKerningGroup = B;
rightMetricsKey = "=A";
unicode = 0052;
},
{
glyphname = S;
lastChange = "2020-11-26 21:43:25 +0000";
layers = (
{
anchors = (
{
name = bottom;
position = "{215, 0}";
},
{
name = top;
position = "{215, 700}";
}
);
components = (
{
name = "tall-caps.curve";
transform = "{1, 0, 0, 1, 44, 0}";
},
{
name = "tall-caps.curve";
transform = "{-1, 0, 0, -1, 396, 700}";
},
{
name = cut.curve;
transform = "{-1, 0, 0, 1, 398, 215}";
},
{
name = "tall-cut.curve";
transform = "{-1, 0, 0, -1, 211, 685}";
}
);
layerId = "EA4BDF10-EAD0-47D5-9AD5-B8C643A094C2";
paths = (
{
closed = 1;
nodes = (
"396 163 LINE",
"396 361 OFFCURVE",
"110 387 OFFCURVE",
"110 537 CURVE",
"44 537 LINE",
"44 339 OFFCURVE",
"330 313 OFFCURVE",
"330 163 CURVE"
);
}
);
width = 418;
},
{
anchors = (
{
name = bottom;
position = "{259, 0}";
},
{
name = top;
position = "{259, 720}";
}
);
components = (
{
name = "tall-caps.curve";
transform = "{1, 0, 0, 1, 24, 0}";
},
{
name = "tall-caps.curve";
transform = "{-1, 0, 0, -1, 494, 720}";
},
{
name = cut.curve;
transform = "{-1, 0, 0, 1, 478, 200}";
},
{
name = "tall-cut.curve";
transform = "{-1, 0, 0, -1, 259, 704}";
}
);
layerId = "5EDCAC97-4996-4925-B8D9-EA484E9BADFC";
paths = (
{
closed = 1;
nodes = (
"494 194 LINE",
"494 442 OFFCURVE",
"190 397 OFFCURVE",
"190 527 CURVE",
"24 527 LINE",
"24 279 OFFCURVE",
"328 324 OFFCURVE",
"328 194 CURVE"
);
}
);
width = 514;
}
);
leftKerningGroup = S;
leftMetricsKey = "=|P+5";
rightKerningGroup = S;
rightMetricsKey = "=P+5";
unicode = 0053;
},
{
glyphname = T;
lastChange = "2020-11-26 21:43:25 +0000";
layers = (
{
anchors = (
{
name = bottom;
position = "{190, 0}";
},
{
name = center;
position = "{190, 350}";
},
{
name = top;
position = "{190, 700}";
}
);
components = (
{
name = I;
transform = "{1, 0, 0, 1, 107, 0}";
}
);
guideLines = (
{
angle = 90;
position = "{190, 707}";
}
);
layerId = "EA4BDF10-EAD0-47D5-9AD5-B8C643A094C2";
paths = (
{
closed = 1;
nodes = (
"385 634 LINE",
"385 700 LINE",
"-5 700 LINE",
"-5 634 LINE"
);
}
);
width = 380;
},
{
anchors = (
{
name = bottom;
position = "{240, 0}";
},
{
name = center;
position = "{240, 360}";
},
{
name = top;
position = "{240, 720}";
}
);
components = (
{
name = I;
transform = "{1, 0, 0, 1, 107, 0}";
}
);
layerId = "5EDCAC97-4996-4925-B8D9-EA484E9BADFC";
paths = (
{
closed = 1;
nodes = (
"485 594 LINE",
"485 720 LINE",
"-5 720 LINE",
"-5 594 LINE"
);
}
);
width = 480;
}
);
leftKerningGroup = T;
leftMetricsKey = "=|F*-1";
rightKerningGroup = T;
rightMetricsKey = "=F*-1";
unicode = 0054;
},
{
glyphname = U;
lastChange = "2020-11-26 21:43:25 +0000";
layers = (
{
anchors = (
{
name = bottom;
position = "{224, 0}";
},
{
name = ogonek;
position = "{420, 10}";
},
{
name = top;
position = "{224, 700}";
},
{
name = topright;
position = "{449, 700}";
}
);
components = (
{
name = "tall-caps.curve";
transform = "{-1, 0, 0, -1, 408, 700}";
},
{
name = "tall-caps.curve";
transform = "{1, 0, 0, -1, 40, 700}";
}
);
layerId = "EA4BDF10-EAD0-47D5-9AD5-B8C643A094C2";
paths = (
{
closed = 1;
nodes = (
"408 164 LINE",
"408 700 LINE",
"342 700 LINE",
"342 164 LINE"
);
},
{
closed = 1;
nodes = (
"106 164 LINE",
"106 700 LINE",
"40 700 LINE",
"40 164 LINE"
);
}
);
width = 448;
},
{
anchors = (
{
name = bottom;
position = "{274, 0}";
},
{
name = ogonek;
position = "{490, 10}";
},
{
name = top;
position = "{274, 720}";
},
{
name = topright;
position = "{524, 720}";
}
);
components = (
{
name = "tall-caps.curve";
transform = "{-1, 0, 0, -1, 508, 720}";
},
{
name = "tall-caps.curve";
transform = "{1, 0, 0, -1, 40, 720}";
}
);
layerId = "5EDCAC97-4996-4925-B8D9-EA484E9BADFC";
paths = (
{
closed = 1;
nodes = (
"508 193 LINE",
"508 720 LINE",
"342 720 LINE",
"342 193 LINE"
);
},
{
closed = 1;
nodes = (
"206 193 LINE",
"206 720 LINE",
"40 720 LINE",
"40 193 LINE"
);
}
);
width = 548;
}
);
leftKerningGroup = Q;
leftMetricsKey = "=B";
rightKerningGroup = Q;
rightMetricsKey = "=H";
unicode = 0055;
},
{
glyphname = V;
lastChange = "2020-11-26 21:43:25 +0000";
layers = (
{
anchors = (
{
name = bottom;
position = "{242, 0}";
},
{
name = top;
position = "{242, 700}";
}
);
layerId = "EA4BDF10-EAD0-47D5-9AD5-B8C643A094C2";
paths = (
{
closed = 1;
nodes = (
"271 0 LINE",
"461 700 LINE",
"395 700 LINE",
"205 0 LINE"
);
},
{
closed = 1;
nodes = (
"271 0 LINE",
"81 700 LINE",
"15 700 LINE",
"205 0 LINE"
);
}
);
width = 476;
},
{
anchors = (
{
name = bottom;
position = "{270, 0}";
},
{
name = top;
position = "{270, 720}";
}
);
layerId = "5EDCAC97-4996-4925-B8D9-EA484E9BADFC";
paths = (
{
closed = 1;
nodes = (
"379 0 LINE",
"559 720 LINE",
"399 720 LINE",
"219 0 LINE"
);
},
{
closed = 1;
nodes = (
"355 0 LINE",
"175 720 LINE",
"15 720 LINE",
"195 0 LINE"
);
}
);
width = 574;
}
);
leftKerningGroup = V;
leftMetricsKey = "=A";
rightKerningGroup = V;
rightMetricsKey = "=A";
unicode = 0056;
},
{
glyphname = W;
lastChange = "2020-11-26 21:43:25 +0000";
layers = (
{
anchors = (
{
name = bottom;
position = "{367, 0}";
},
{
name = top;
position = "{367, 700}";
}
);
layerId = "EA4BDF10-EAD0-47D5-9AD5-B8C643A094C2";
paths = (
{
closed = 1;
nodes = (
"577 0 LINE",
"400 700 LINE",
"334 700 LINE",
"511 0 LINE"
);
},
{
closed = 1;
nodes = (
"223 0 LINE",
"86 700 LINE",
"20 700 LINE",
"157 0 LINE"
);
},
{
closed = 1;
nodes = (
"223 0 LINE",
"400 700 LINE",
"334 700 LINE",
"157 0 LINE"
);
},
{
closed = 1;
nodes = (
"577 0 LINE",
"714 700 LINE",
"648 700 LINE",
"511 0 LINE"
);
}
);
width = 734;
},
{
anchors = (
{
name = bottom;
position = "{437, 0}";
},
{
name = top;
position = "{437, 720}";
}
);
layerId = "5EDCAC97-4996-4925-B8D9-EA484E9BADFC";
paths = (
{
closed = 1;
nodes = (
"670 0 LINE",
"510 720 LINE",
"380 720 LINE",
"530 0 LINE"
);
},
{
closed = 1;
nodes = (
"340 0 LINE",
"180 720 LINE",
"20 720 LINE",
"180 0 LINE"
);
},
{
closed = 1;
nodes = (
"344 0 LINE",
"494 720 LINE",
"364 720 LINE",
"204 0 LINE"
);
},
{
closed = 1;
nodes = (
"694 0 LINE",
"854 720 LINE",
"694 720 LINE",
"534 0 LINE"
);
}
);
width = 874;
}
);
leftKerningGroup = V;
leftMetricsKey = "=A+5";
rightKerningGroup = V;
rightMetricsKey = "=A+5";
unicode = 0057;
},
{
glyphname = X;
lastChange = "2020-11-26 21:43:25 +0000";
layers = (
{
anchors = (
{
name = bottom;
position = "{201, 0}";
},
{
name = top;
position = "{201, 700}";
}
);
layerId = "EA4BDF10-EAD0-47D5-9AD5-B8C643A094C2";
paths = (
{
closed = 1;
nodes = (
"81 0 LINE",
"387 700 LINE",
"321 700 LINE",
"15 0 LINE"
);
},
{
closed = 1;
nodes = (
"387 0 LINE",
"81 700 LINE",
"15 700 LINE",
"321 0 LINE"
);
}
);
width = 402;
},
{
anchors = (
{
name = bottom;
position = "{275, 0}";
},
{
name = top;
position = "{275, 720}";
}
);
layerId = "5EDCAC97-4996-4925-B8D9-EA484E9BADFC";
paths = (
{
closed = 1;
nodes = (
"185 0 LINE",
"535 720 LINE",
"365 720 LINE",
"15 0 LINE"
);
},
{
closed = 1;
nodes = (
"535 0 LINE",
"185 720 LINE",
"15 720 LINE",
"365 0 LINE"
);
}
);
width = 550;
}
);
leftKerningGroup = V;
leftMetricsKey = "=A";
rightKerningGroup = V;
rightMetricsKey = "=A";
unicode = 0058;
},
{
glyphname = Y;
lastChange = "2020-11-26 21:43:25 +0000";
layers = (
{
anchors = (
{
name = bottom;
position = "{208, 0}";
},
{
name = top;
position = "{208, 700}";
},
{
name = topleft;
position = "{15, 700}";
}
);
layerId = "EA4BDF10-EAD0-47D5-9AD5-B8C643A094C2";
paths = (
{
closed = 1;
nodes = (
"241 238 LINE",
"401 700 LINE",
"335 700 LINE",
"175 238 LINE"
);
},
{
closed = 1;
nodes = (
"241 0 LINE",
"241 238 LINE",
"175 238 LINE",
"175 0 LINE"
);
},
{
closed = 1;
nodes = (
"241 238 LINE",
"81 700 LINE",
"15 700 LINE",
"175 238 LINE"
);
}
);
width = 416;
},
{
anchors = (
{
name = bottom;
position = "{268, 0}";
},
{
name = top;
position = "{268, 740}";
},
{
name = topleft;
position = "{45, 720}";
}
);
layerId = "5EDCAC97-4996-4925-B8D9-EA484E9BADFC";
paths = (
{
closed = 1;
nodes = (
"341 258 LINE",
"521 720 LINE",
"345 720 LINE",
"195 258 LINE"
);
},
{
closed = 1;
nodes = (
"341 0 LINE",
"341 258 LINE",
"195 258 LINE",
"195 0 LINE"
);
},
{
closed = 1;
nodes = (
"341 258 LINE",
"191 720 LINE",
"15 720 LINE",
"195 258 LINE"
);
}
);
width = 536;
}
);
leftKerningGroup = V;
leftMetricsKey = "=A";
rightKerningGroup = V;
rightMetricsKey = "=A";
unicode = 0059;
},
{
glyphname = Z;
lastChange = "2020-11-26 21:43:25 +0000";
layers = (
{
anchors = (
{
name = bottom;
position = "{211, 0}";
},
{
name = center;
position = "{211, 350}";
},
{
name = top;
position = "{211, 700}";
}
);
layerId = "EA4BDF10-EAD0-47D5-9AD5-B8C643A094C2";
paths = (
{
closed = 1;
nodes = (
"94 66 LINE",
"397 634 LINE",
"328 634 LINE",
"25 66 LINE"
);
},
{
closed = 1;
nodes = (
"397 0 LINE",
"397 66 LINE",
"25 66 LINE",
"25 0 LINE"
);
},
{
closed = 1;
nodes = (
"397 634 LINE",
"397 700 LINE",
"25 700 LINE",
"25 634 LINE"
);
}
);
width = 422;
},
{
anchors = (
{
name = bottom;
position = "{241, 0}";
},
{
name = center;
position = "{241, 360}";
},
{
name = top;
position = "{241, 720}";
}
);
layerId = "5EDCAC97-4996-4925-B8D9-EA484E9BADFC";
paths = (
{
closed = 1;
nodes = (
"204 146 LINE",
"457 574 LINE",
"278 574 LINE",
"25 146 LINE"
);
},
{
closed = 1;
nodes = (
"457 0 LINE",
"457 146 LINE",
"25 146 LINE",
"25 0 LINE"
);
},
{
closed = 1;
nodes = (
"457 574 LINE",
"457 720 LINE",
"25 720 LINE",
"25 574 LINE"
);
}
);
width = 482;
}
);
leftKerningGroup = Z;
leftMetricsKey = "=A+10";
rightKerningGroup = Z;
rightMetricsKey = "=A+10";
unicode = 005A;
},
{
glyphname = a;
lastChange = "2020-12-01 23:08:07 +0000";
layers = (
{
anchors = (
{
name = bottom;
position = "{202, 0}";
},
{
name = ogonek;
position = "{358, 10}";
},
{
name = top;
position = "{202, 520}";
}
);
components = (
{
name = slash.curve.comp;
transform = "{-1, 0, 0, 1, 345, 0}";
},
{
name = slash.curve.comp;
transform = "{-1, 0, 0, -1, 345, 500}";
},
{
name = idotless;
transform = "{1, 0, 0, 1, 257, 0}";
}
);
layerId = "EA4BDF10-EAD0-47D5-9AD5-B8C643A094C2";
paths = (
{
closed = 1;
nodes = (
"96 150 LINE",
"96 350 LINE",
"30 350 LINE",
"30 150 LINE"
);
}
);
width = 403;
},
{
anchors = (
{
name = bottom;
position = "{275, 0}";
},
{
name = ogonek;
position = "{480, 10}";
},
{
name = top;
position = "{275, 540}";
}
);
components = (
{
name = slash.curve.comp;
transform = "{-1, 0, 0, 1, 390, 0}";
},
{
name = slash.curve.comp;
transform = "{-1, 0, 0, -1, 390, 520}";
},
{
name = idotless;
transform = "{1, 0, 0, 1, 294, 0}";
}
);
layerId = "5EDCAC97-4996-4925-B8D9-EA484E9BADFC";
paths = (
{
closed = 1;
nodes = (
"196 194 LINE",
"196 326 LINE",
"30 326 LINE",
"30 194 LINE"
);
}
);
width = 540;
}
);
leftKerningGroup = a;
leftMetricsKey = "=a";
rightKerningGroup = d;
rightMetricsKey = "=a";
unicode = 0061;
},
{
color = 7;
glyphname = b;
lastChange = "2020-11-26 21:43:25 +0000";
layers = (
{
anchors = (
{
name = bottom;
position = "{215, 0}";
},
{
name = top;
position = "{214, 800}";
}
);
components = (
{
name = a;
transform = "{-1, 0, 0, 1, 413, 0}";
}
);
layerId = "EA4BDF10-EAD0-47D5-9AD5-B8C643A094C2";
paths = (
{
closed = 1;
nodes = (
"106 499 LINE",
"106 700 LINE",
"40 700 LINE",
"40 499 LINE"
);
}
);
width = 413;
},
{
anchors = (
{
name = bottom;
position = "{278, 0}";
},
{
name = top;
position = "{278, 800}";
}
);
components = (
{
name = a;
transform = "{-1, 0, 0, 1, 550, 0}";
}
);
layerId = "5EDCAC97-4996-4925-B8D9-EA484E9BADFC";
paths = (
{
closed = 1;
nodes = (
"206 518 LINE",
"206 720 LINE",
"40 720 LINE",
"40 518 LINE"
);
}
);
width = 550;
}
);
leftKerningGroup = b;
leftMetricsKey = "=B";
rightKerningGroup = a;
rightMetricsKey = "=a";
unicode = 0062;
},
{
glyphname = c;
lastChange = "2020-11-26 21:43:25 +0000";
layers = (
{
anchors = (
{
name = bottom;
position = "{201, 0}";
},
{
name = top;
position = "{201, 500}";
}
);
components = (
{
alignment = -1;
name = tall.curve;
transform = "{1, 0, 0, 1, 30, 1}";
},
{
name = tall.curve;
transform = "{1, 0, 0, -1, 30, 499}";
},
{
name = cut.curve;
transform = "{-1, 0, 0, 1, 370, 16}";
},
{
alignment = -1;
name = "general-open66.curve";
transform = "{-1, 0, 0, -1, 372, 484}";
}
);
layerId = "EA4BDF10-EAD0-47D5-9AD5-B8C643A094C2";
paths = (
{
closed = 1;
nodes = (
"96 163 LINE",
"96 337 LINE",
"30 337 LINE",
"30 163 LINE"
);
}
);
width = 387;
},
{
anchors = (
{
name = bottom;
position = "{256, 0}";
},
{
name = top;
position = "{256, 520}";
}
);
components = (
{
alignment = -1;
name = tall.curve;
transform = "{1, 0, 0, 1, 30, 0}";
},
{
name = tall.curve;
transform = "{1, 0, 0, -1, 30, 520}";
},
{
name = cut.curve;
transform = "{-1, 0, 0, 1, 483, 0}";
},
{
alignment = -1;
name = "general-open66.curve";
transform = "{-1, 0, 0, -1, 489, 520}";
}
);
layerId = "5EDCAC97-4996-4925-B8D9-EA484E9BADFC";
paths = (
{
closed = 1;
nodes = (
"196 223 LINE",
"196 297 LINE",
"30 297 LINE",
"30 223 LINE"
);
}
);
width = 504;
}
);
leftKerningGroup = a;
leftMetricsKey = "=a";
rightKerningGroup = a;
rightMetricsKey = "=a/2";
unicode = 0063;
},
{
glyphname = eth;
lastChange = "2020-12-19 21:21:33 +0000";
layers = (
{
components = (
{
name = o;
}
);
layerId = "EA4BDF10-EAD0-47D5-9AD5-B8C643A094C2";
paths = (
{
closed = 1;
nodes = (
"362 341 LINE",
"362 483 OFFCURVE",
"312 614 OFFCURVE",
"204 758 CURVE",
"153 730 LINE",
"251 592 OFFCURVE",
"296 470 OFFCURVE",
"296 341 CURVE"
);
},
{
closed = 1;
nodes = (
"327 697 LINE",
"297 745 LINE",
"116 641 LINE",
"146 593 LINE"
);
}
);
width = 392;
},
{
components = (
{
name = o;
}
);
layerId = "5EDCAC97-4996-4925-B8D9-EA484E9BADFC";
paths = (
{
closed = 1;
nodes = (
"490 299 LINE",
"490 441 OFFCURVE",
"441 614 OFFCURVE",
"333 758 CURVE",
"236 697 LINE",
"334 559 OFFCURVE",
"355 428 OFFCURVE",
"355 299 CURVE"
);
},
{
closed = 1;
nodes = (
"470 674 LINE",
"426 745 LINE",
"206 619 LINE",
"250 548 LINE"
);
}
);
width = 520;
}
);
leftKerningGroup = a;
leftMetricsKey = "=o";
rightKerningGroup = d;
rightMetricsKey = p;
unicode = 00F0;
},
{
glyphname = e;
lastChange = "2020-12-19 21:18:00 +0000";
layers = (
{
anchors = (
{
name = bottom;
position = "{191, 0}";
},
{
name = ogonek;
position = "{361, 10}";
},
{
name = top;
position = "{191, 500}";
}
);
components = (
{
name = general.curve;
transform = "{-1, 0, 0, 1, 362, 15}";
},
{
name = cut.curve;
transform = "{-1, 0, 0, -1, 362, 485}";
},
{
alignment = -1;
name = tall.curve;
transform = "{1, 0, 0, 1, 20, 0}";
},
{
alignment = -1;
name = tall.curve;
transform = "{1, 0, 0, -1, 20, 500}";
}
);
layerId = "EA4BDF10-EAD0-47D5-9AD5-B8C643A094C2";
paths = (
{
closed = 1;
nodes = (
"362 227 LINE",
"362 284 LINE",
"26 284 LINE",
"26 227 LINE"
);
},
{
closed = 1;
nodes = (
"194 -15 LINE",
"194 48 LINE",
"190 48 LINE",
"190 -15 LINE"
);
},
{
closed = 1;
nodes = (
"86 165 LINE",
"86 335 LINE",
"20 335 LINE",
"20 165 LINE"
);
},
{
closed = 1;
nodes = (
"362 284 LINE",
"362 350 LINE",
"296 350 LINE",
"296 284 LINE"
);
}
);
width = 382;
},
{
anchors = (
{
name = bottom;
position = "{250, 0}";
},
{
name = ogonek;
position = "{460, 10}";
},
{
name = top;
position = "{250, 520}";
}
);
components = (
{
name = general.curve;
transform = "{-1, 0, 0, 1, 494, 0}";
},
{
name = cut.curve;
transform = "{-1, 0, 0, -1, 484, 520}";
},
{
alignment = -1;
name = tall.curve;
transform = "{1, 0, 0, 1, 20, 0}";
},
{
alignment = -1;
name = tall.curve;
transform = "{1, 0, 0, -1, 20, 520}";
}
);
layerId = "5EDCAC97-4996-4925-B8D9-EA484E9BADFC";
paths = (
{
closed = 1;
nodes = (
"494 219 LINE",
"494 309 LINE",
"126 309 LINE",
"126 219 LINE"
);
},
{
closed = 1;
nodes = (
"265 -16 LINE",
"265 110 LINE",
"255 110 LINE",
"255 -16 LINE"
);
},
{
closed = 1;
nodes = (
"186 223 LINE",
"186 297 LINE",
"20 297 LINE",
"20 223 LINE"
);
},
{
closed = 1;
nodes = (
"494 309 LINE",
"494 317 LINE",
"328 317 LINE",
"328 309 LINE"
);
}
);
width = 514;
}
);
leftKerningGroup = a;
leftMetricsKey = "=a-10";
rightKerningGroup = a;
rightMetricsKey = "=a-10";
unicode = 0065;
},
{
glyphname = f;
lastChange = "2020-11-26 21:43:25 +0000";
layers = (
{
anchors = (
{
name = bottom;
position = "{135, 0}";
},
{
name = top;
position = "{135, 800}";
}
);
components = (
{
name = fountain.curve.comp;
transform = "{1, 0, 0, 1, 68, 15}";
}
);
layerId = "EA4BDF10-EAD0-47D5-9AD5-B8C643A094C2";
paths = (
{
closed = 1;
nodes = (
"134 0 LINE",
"134 560 LINE",
"68 560 LINE",
"68 0 LINE"
);
},
{
closed = 1;
nodes = (
"260 440 LINE",
"260 500 LINE",
"10 500 LINE",
"10 440 LINE"
);
}
);
width = 280;
},
{
anchors = (
{
name = bottom;
position = "{187, 0}";
},
{
name = top;
position = "{187, 800}";
}
);
components = (
{
name = fountain.curve.comp;
transform = "{1, 0, 0, 1, 68, 0}";
}
);
layerId = "5EDCAC97-4996-4925-B8D9-EA484E9BADFC";
paths = (
{
closed = 1;
nodes = (
"234 0 LINE",
"234 527 LINE",
"68 527 LINE",
"68 0 LINE"
);
},
{
closed = 1;
nodes = (
"349 400 LINE",
"349 520 LINE",
"10 520 LINE",
"10 400 LINE"
);
}
);
width = 395;
}
);
leftKerningGroup = f;
leftMetricsKey = "=10";
rightKerningGroup = f;
rightMetricsKey = "=0";
unicode = 0066;
},
{
glyphname = g;
lastChange = "2020-11-26 21:43:25 +0000";
layers = (
{
anchors = (
{
name = bottom;
position = "{208, -200}";
},
{
name = top;
position = "{208, 500}";
}
);
components = (
{
name = slash.curve.comp;
transform = "{-1, 0, 0, 1, 345, 0}";
},
{
name = slash.curve.comp;
transform = "{-1, 0, 0, -1, 345, 509}";
},
{
name = general.curve;
transform = "{-1, 0, 0, -1, 373, 315}";
},
{
name = cut.curve;
transform = "{1, 0, 0, -1, 33, 315}";
}
);
layerId = "EA4BDF10-EAD0-47D5-9AD5-B8C643A094C2";
paths = (
{
closed = 1;
nodes = (
"373 -20 LINE",
"373 500 LINE",
"307 500 LINE",
"307 -20 LINE"
);
},
{
closed = 1;
nodes = (
"96 159 LINE",
"96 350 LINE",
"30 350 LINE",
"30 159 LINE"
);
}
);
width = 413;
},
{
anchors = (
{
name = bottom;
position = "{269, -200}";
},
{
name = top;
position = "{269, 520}";
}
);
components = (
{
name = slash.curve.comp;
transform = "{-1, 0, 0, 1, 390, 0}";
},
{
name = slash.curve.comp;
transform = "{-1, 0, 0, -1, 390, 545}";
},
{
name = general.curve;
transform = "{-1, 0, 0, -1, 510, 315}";
},
{
name = cut.curve;
transform = "{1, 0, 0, -1, 52, 315}";
}
);
layerId = "5EDCAC97-4996-4925-B8D9-EA484E9BADFC";
paths = (
{
closed = 1;
nodes = (
"510 -12 LINE",
"510 520 LINE",
"344 520 LINE",
"344 -12 LINE"
);
},
{
closed = 1;
nodes = (
"196 218 LINE",
"196 327 LINE",
"30 327 LINE",
"30 218 LINE"
);
}
);
width = 550;
}
);
leftKerningGroup = a;
leftMetricsKey = "=a";
rightKerningGroup = a;
rightMetricsKey = "=|b";
unicode = 0067;
},
{
glyphname = idotless;
lastChange = "2020-11-26 21:43:25 +0000";
layers = (
{
anchors = (
{
name = bottom;
position = "{84, 0}";
},
{
name = ogonek;
position = "{162, 10}";
},
{
name = top;
position = "{84, 500}";
}
);
layerId = "EA4BDF10-EAD0-47D5-9AD5-B8C643A094C2";
paths = (
{
closed = 1;
nodes = (
"116 0 LINE",
"116 500 LINE",
"50 500 LINE",
"50 0 LINE"
);
}
);
width = 166;
},
{
anchors = (
{
name = bottom;
position = "{133, 0}";
},
{
name = ogonek;
position = "{231, 10}";
},
{
name = top;
position = "{133, 520}";
}
);
layerId = "5EDCAC97-4996-4925-B8D9-EA484E9BADFC";
paths = (
{
closed = 1;
nodes = (
"216 0 LINE",
"216 520 LINE",
"50 520 LINE",
"50 0 LINE"
);
}
);
width = 266;
}
);
leftKerningGroup = b;
leftMetricsKey = "=I";
rightKerningGroup = d;
rightMetricsKey = "=I";
unicode = 0131;
},
{
color = 7;
glyphname = k;
lastChange = "2020-11-26 21:43:25 +0000";
layers = (
{
anchors = (
{
name = bottom;
position = "{182, 0}";
},
{
name = top;
position = "{182, 900}";
}
);
components = (
{
name = l;
transform = "{1, 0, 0, 1, -10, 0}";
}
);
layerId = "EA4BDF10-EAD0-47D5-9AD5-B8C643A094C2";
paths = (
{
closed = 1;
nodes = (
"352 0 LINE",
"186 326 LINE",
"126 297 LINE",
"284 0 LINE"
);
},
{
closed = 1;
nodes = (
"351 500 LINE",
"264 500 LINE",
"49 257 LINE",
"96 210 LINE"
);
}
);
width = 357;
},
{
anchors = (
{
name = bottom;
position = "{345, 0}";
},
{
name = top;
position = "{345, 800}";
}
);
components = (
{
name = l;
transform = "{1, 0, 0, 1, -10, 0}";
}
);
layerId = "5EDCAC97-4996-4925-B8D9-EA484E9BADFC";
paths = (
{
closed = 1;
nodes = (
"500 0 LINE",
"329 334 LINE",
"161 305 LINE",
"324 0 LINE"
);
},
{
closed = 1;
nodes = (
"484 520 LINE",
"284 520 LINE",
"44 217 LINE",
"204 170 LINE"
);
}
);
width = 505;
}
);
leftKerningGroup = b;
leftMetricsKey = "=B";
rightKerningGroup = k;
rightMetricsKey = "=5";
unicode = 006B;
},
{
glyphname = l;
lastChange = "2020-11-26 21:43:25 +0000";
layers = (
{
anchors = (
{
name = bottom;
position = "{83, 0}";
},
{
name = center;
position = "{83, 450}";
},
{
name = top;
position = "{83, 900}";
},
{
name = topright;
position = "{144, 900}";
}
);
background = {
paths = (
{
closed = 1;
nodes = (
"50 697 LINE",
"50 3 LINE",
"53 0 LINE",
"113 0 LINE",
"116 3 LINE",
"116 697 LINE",
"113 700 LINE",
"53 700 LINE"
);
}
);
};
layerId = "EA4BDF10-EAD0-47D5-9AD5-B8C643A094C2";
paths = (
{
closed = 1;
nodes = (
"116 0 LINE",
"116 715 LINE",
"50 715 LINE",
"50 0 LINE"
);
}
);
width = 166;
},
{
anchors = (
{
name = bottom;
position = "{133, 0}";
},
{
name = center;
position = "{133, 400}";
},
{
name = top;
position = "{133, 800}";
},
{
name = topright;
position = "{236, 800}";
}
);
layerId = "5EDCAC97-4996-4925-B8D9-EA484E9BADFC";
paths = (
{
closed = 1;
nodes = (
"216 0 LINE",
"216 736 LINE",
"50 736 LINE",
"50 0 LINE"
);
}
);
width = 266;
}
);
leftKerningGroup = b;
leftMetricsKey = "=I";
rightKerningGroup = d;
rightMetricsKey = "=I";
unicode = 006C;
},
{
glyphname = m;
lastChange = "2020-11-26 21:43:25 +0000";
layers = (
{
anchors = (
{
name = bottom;
position = "{335, 0}";
},
{
name = top;
position = "{335, 500}";
}
);
layerId = "EA4BDF10-EAD0-47D5-9AD5-B8C643A094C2";
paths = (
{
closed = 1;
nodes = (
"106 0 LINE",
"106 500 LINE",
"40 500 LINE",
"40 0 LINE"
);
},
{
closed = 1;
nodes = (
"362 0 LINE",
"362 350 LINE",
"296 350 LINE",
"296 0 LINE"
);
},
{
closed = 1;
nodes = (
"106 350 LINE",
"106 407 OFFCURVE",
"147 449 OFFCURVE",
"201 449 CURVE",
"215 515 LINE",
"130 515 OFFCURVE",
"67 444 OFFCURVE",
"67 350 CURVE"
);
},
{
closed = 1;
nodes = (
"362 350 LINE",
"362 444 OFFCURVE",
"299 515 OFFCURVE",
"215 515 CURVE",
"201 449 LINE",
"255 449 OFFCURVE",
"296 407 OFFCURVE",
"296 350 CURVE"
);
},
{
closed = 1;
nodes = (
"618 0 LINE",
"618 350 LINE",
"552 350 LINE",
"552 0 LINE"
);
},
{
closed = 1;
nodes = (
"362 350 LINE",
"362 407 OFFCURVE",
"403 449 OFFCURVE",
"457 449 CURVE",
"471 515 LINE",
"386 515 OFFCURVE",
"323 444 OFFCURVE",
"323 350 CURVE"
);
},
{
closed = 1;
nodes = (
"618 350 LINE",
"618 444 OFFCURVE",
"555 515 OFFCURVE",
"471 515 CURVE",
"457 449 LINE",
"511 449 OFFCURVE",
"552 407 OFFCURVE",
"552 350 CURVE"
);
}
);
width = 648;
},
{
anchors = (
{
name = bottom;
position = "{413, 0}";
},
{
name = top;
position = "{413, 520}";
}
);
layerId = "5EDCAC97-4996-4925-B8D9-EA484E9BADFC";
paths = (
{
closed = 1;
nodes = (
"206 0 LINE",
"206 520 LINE",
"40 520 LINE",
"40 0 LINE"
);
},
{
closed = 1;
nodes = (
"500 0 LINE",
"500 327 LINE",
"334 327 LINE",
"334 0 LINE"
);
},
{
closed = 1;
nodes = (
"206 336 LINE",
"206 378 OFFCURVE",
"233 410 OFFCURVE",
"270 410 CURVE",
"310 536 LINE",
"213 536 OFFCURVE",
"140 450 OFFCURVE",
"140 336 CURVE"
);
},
{
closed = 1;
nodes = (
"500 327 LINE",
"500 458 OFFCURVE",
"429 536 OFFCURVE",
"310 536 CURVE",
"270 410 LINE",
"310 410 OFFCURVE",
"334 379 OFFCURVE",
"334 327 CURVE"
);
},
{
closed = 1;
nodes = (
"793 0 LINE",
"793 327 LINE",
"627 327 LINE",
"627 0 LINE"
);
},
{
closed = 1;
nodes = (
"500 328 LINE",
"500 375 OFFCURVE",
"527 410 OFFCURVE",
"563 410 CURVE",
"603 536 LINE",
"506 536 OFFCURVE",
"434 447 OFFCURVE",
"434 328 CURVE"
);
},
{
closed = 1;
nodes = (
"793 327 LINE",
"793 458 OFFCURVE",
"722 536 OFFCURVE",
"603 536 CURVE",
"563 410 LINE",
"603 410 OFFCURVE",
"627 379 OFFCURVE",
"627 327 CURVE"
);
}
);
width = 823;
}
);
leftKerningGroup = b;
leftMetricsKey = "=B";
rightKerningGroup = a;
rightMetricsKey = "=a";
unicode = 006D;
},
{
glyphname = n;
lastChange = "2020-11-26 21:43:25 +0000";
layers = (
{
anchors = (
{
name = bottom;
position = "{218, 0}";
},
{
name = top;
position = "{218, 500}";
}
);
background = {
paths = (
{
closed = 1;
nodes = (
"41 0 LINE",
"107 0 LINE",
"107 500 LINE",
"41 500 LINE"
);
},
{
closed = 1;
nodes = (
"317 0 LINE",
"383 0 LINE",
"383 350 LINE",
"317 350 LINE"
);
},
{
closed = 1;
nodes = (
"226 515 LINE",
"136 515 OFFCURVE",
"83 454 OFFCURVE",
"83 350 CURVE",
"107 350 LINE",
"107 412 OFFCURVE",
"146 449 OFFCURVE",
"212 449 CURVE"
);
},
{
closed = 1;
nodes = (
"275 449 OFFCURVE",
"317 409 OFFCURVE",
"317 350 CURVE",
"383 350 LINE",
"383 449 OFFCURVE",
"318 515 OFFCURVE",
"226 515 CURVE",
"212 449 LINE"
);
}
);
};
components = (
{
name = slash.curve.comp;
transform = "{1, 0, 0, 1, 68, 0}";
}
);
layerId = "EA4BDF10-EAD0-47D5-9AD5-B8C643A094C2";
paths = (
{
closed = 1;
nodes = (
"106 0 LINE",
"106 500 LINE",
"40 500 LINE",
"40 0 LINE"
);
},
{
closed = 1;
nodes = (
"383 0 LINE",
"383 350 LINE",
"317 350 LINE",
"317 0 LINE"
);
}
);
width = 413;
},
{
anchors = (
{
name = bottom;
position = "{282, 0}";
},
{
name = top;
position = "{282, 520}";
}
);
components = (
{
name = slash.curve.comp;
transform = "{1, 0, 0, 1, 160, 0}";
}
);
layerId = "5EDCAC97-4996-4925-B8D9-EA484E9BADFC";
paths = (
{
closed = 1;
nodes = (
"206 0 LINE",
"206 520 LINE",
"40 520 LINE",
"40 0 LINE"
);
},
{
closed = 1;
nodes = (
"520 0 LINE",
"520 327 LINE",
"354 327 LINE",
"354 0 LINE"
);
}
);
width = 550;
}
);
leftKerningGroup = b;
leftMetricsKey = "=B";
rightKerningGroup = a;
rightMetricsKey = "=a";
unicode = 006E;
},
{
glyphname = o;
lastChange = "2020-12-20 03:02:22 +0000";
layers = (
{
anchors = (
{
name = bottom;
position = "{191, 0}";
},
{
name = center;
position = "{191, 250}";
},
{
name = ogonek;
position = "{366, 10}";
},
{
name = top;
position = "{191, 500}";
},
{
name = topright;
position = "{390, 500}";
}
);
background = {
paths = (
{
closed = 1;
nodes = (
"20 365 LINE",
"20 135 LINE",
"86 135 LINE",
"86 365 LINE"
);
},
{
closed = 1;
nodes = (
"191 515 LINE",
"88 515 OFFCURVE",
"20 455 OFFCURVE",
"20 365 CURVE",
"86 365 LINE",
"86 416 OFFCURVE",
"119 449 OFFCURVE",
"191 449 CURVE"
);
},
{
closed = 1;
nodes = (
"119 51 OFFCURVE",
"86 84 OFFCURVE",
"86 135 CURVE",
"20 135 LINE",
"20 45 OFFCURVE",
"88 -15 OFFCURVE",
"191 -15 CURVE",
"191 51 LINE"
);
},
{
closed = 1;
nodes = (
"296 135 LINE",
"362 135 LINE",
"362 365 LINE",
"296 365 LINE"
);
},
{
closed = 1;
nodes = (
"263 449 OFFCURVE",
"296 416 OFFCURVE",
"296 365 CURVE",
"362 365 LINE",
"362 455 OFFCURVE",
"294 515 OFFCURVE",
"191 515 CURVE",
"191 449 LINE"
);
},
{
closed = 1;
nodes = (
"191 -15 LINE",
"294 -15 OFFCURVE",
"362 45 OFFCURVE",
"362 135 CURVE",
"296 135 LINE",
"296 84 OFFCURVE",
"263 51 OFFCURVE",
"191 51 CURVE"
);
}
);
};
components = (
{
name = tall.curve;
transform = "{1, 0, 0, 1, 20, 0}";
},
{
name = tall.curve;
transform = "{-1, 0, 0, 1, 362, 0}";
},
{
name = tall.curve;
transform = "{1, 0, 0, -1, 20, 500}";
},
{
name = tall.curve;
transform = "{-1, 0, 0, -1, 362, 500}";
}
);
layerId = "EA4BDF10-EAD0-47D5-9AD5-B8C643A094C2";
paths = (
{
closed = 1;
nodes = (
"362 164 LINE",
"362 336 LINE",
"296 336 LINE",
"296 164 LINE"
);
},
{
closed = 1;
nodes = (
"86 164 LINE",
"86 336 LINE",
"20 336 LINE",
"20 164 LINE"
);
}
);
width = 382;
},
{
anchors = (
{
name = bottom;
position = "{255, 0}";
},
{
name = center;
position = "{255, 260}";
},
{
name = ogonek;
position = "{469, 10}";
},
{
name = top;
position = "{255, 520}";
},
{
name = topright;
position = "{503, 520}";
}
);
components = (
{
name = tall.curve;
transform = "{1, 0, 0, 1, 20, -1}";
},
{
name = tall.curve;
transform = "{-1, 0, 0, 1, 490, -1}";
},
{
name = tall.curve;
transform = "{1, 0, 0, -1, 20, 521}";
},
{
name = tall.curve;
transform = "{-1, 0, 0, -1, 490, 521}";
}
);
layerId = "5EDCAC97-4996-4925-B8D9-EA484E9BADFC";
paths = (
{
closed = 1;
nodes = (
"490 224 LINE",
"490 296 LINE",
"324 296 LINE",
"324 224 LINE"
);
},
{
closed = 1;
nodes = (
"186 224 LINE",
"186 296 LINE",
"20 296 LINE",
"20 224 LINE"
);
}
);
width = 510;
}
);
leftKerningGroup = a;
leftMetricsKey = "=a-10";
rightKerningGroup = a;
rightMetricsKey = "=|a-10";
unicode = 006F;
},
{
glyphname = oslash;
lastChange = "2020-12-20 14:17:36 +0000";
layers = (
{
anchors = (
{
name = top;
position = "{191, 500}";
}
);
components = (
{
name = o;
}
);
guideLines = (
{
angle = 90;
position = "{191, 554}";
}
);
layerId = "EA4BDF10-EAD0-47D5-9AD5-B8C643A094C2";
paths = (
{
closed = 1;
nodes = (
"103 -54 LINE",
"336 554 LINE",
"279 554 LINE",
"46 -54 LINE"
);
}
);
width = 382;
},
{
anchors = (
{
name = top;
position = "{256, 520}";
}
);
components = (
{
name = o;
}
);
guideLines = (
{
angle = 90;
position = "{255, 567}";
}
);
layerId = "5EDCAC97-4996-4925-B8D9-EA484E9BADFC";
paths = (
{
closed = 1;
nodes = (
"168 -44 LINE",
"401 564 LINE",
"344 564 LINE",
"111 -44 LINE"
);
}
);
width = 510;
}
);
leftKerningGroup = a;
leftMetricsKey = "=o";
rightKerningGroup = a;
rightMetricsKey = "=o";
unicode = 00F8;
},
{
glyphname = thorn;
lastChange = "2020-11-26 21:43:25 +0000";
layers = (
{
anchors = (
{
name = bottom;
position = "{208, 0}";
},
{
name = top;
position = "{208, 500}";
}
);
components = (
{
name = p;
}
);
layerId = "EA4BDF10-EAD0-47D5-9AD5-B8C643A094C2";
paths = (
{
closed = 1;
nodes = (
"106 499 LINE",
"106 700 LINE",
"40 700 LINE",
"40 499 LINE"
);
}
);
width = 413;
},
{
anchors = (
{
name = bottom;
position = "{282, 0}";
},
{
name = top;
position = "{282, 520}";
}
);
components = (
{
name = p;
}
);
layerId = "5EDCAC97-4996-4925-B8D9-EA484E9BADFC";
paths = (
{
closed = 1;
nodes = (
"206 518 LINE",
"206 720 LINE",
"40 720 LINE",
"40 518 LINE"
);
}
);
width = 550;
}
);
leftKerningGroup = b;
leftMetricsKey = p;
rightKerningGroup = a;
rightMetricsKey = "=p";
unicode = 00FE;
},
{
glyphname = r;
lastChange = "2020-11-26 21:43:25 +0000";
layers = (
{
anchors = (
{
name = bottom;
position = "{148, 0}";
},
{
name = top;
position = "{148, 500}";
}
);
background = {
paths = (
{
closed = 1;
nodes = (
"40 497 LINE",
"40 3 LINE",
"43 0 LINE",
"103 0 LINE",
"106 3 LINE",
"106 497 LINE",
"103 500 LINE",
"43 500 LINE"
);
},
{
closed = 1;
nodes = (
"235 444 OFFCURVE",
"253 438 OFFCURVE",
"269 424 CURVE",
"272 424 LINE",
"314 478 LINE",
"314 481 LINE",
"291 498 OFFCURVE",
"256 510 OFFCURVE",
"225 510 CURVE",
"211 444 LINE"
);
},
{
closed = 1;
nodes = (
"225 510 LINE",
"135 510 OFFCURVE",
"82 449 OFFCURVE",
"82 345 CURVE",
"106 345 LINE",
"106 407 OFFCURVE",
"145 444 OFFCURVE",
"211 444 CURVE"
);
}
);
};
layerId = "EA4BDF10-EAD0-47D5-9AD5-B8C643A094C2";
paths = (
{
closed = 1;
nodes = (
"106 0 LINE",
"106 500 LINE",
"40 500 LINE",
"40 0 LINE"
);
},
{
closed = 1;
nodes = (
"106 345 LINE",
"106 402 OFFCURVE",
"142 444 OFFCURVE",
"191 444 CURVE",
"205 510 LINE",
"126 510 OFFCURVE",
"67 439 OFFCURVE",
"67 345 CURVE"
);
},
{
closed = 1;
nodes = (
"285 480 LINE",
"259 501 OFFCURVE",
"234 510 OFFCURVE",
"205 510 CURVE",
"191 444 LINE",
"211 444 OFFCURVE",
"229 437 OFFCURVE",
"251 422 CURVE"
);
}
);
width = 290;
},
{
anchors = (
{
name = bottom;
position = "{221, 0}";
},
{
name = top;
position = "{221, 520}";
}
);
layerId = "5EDCAC97-4996-4925-B8D9-EA484E9BADFC";
paths = (
{
closed = 1;
nodes = (
"206 0 LINE",
"206 520 LINE",
"40 520 LINE",
"40 0 LINE"
);
},
{
closed = 1;
nodes = (
"206 296 LINE",
"206 355 OFFCURVE",
"230 390 OFFCURVE",
"270 390 CURVE",
"300 535 LINE",
"199 535 OFFCURVE",
"140 446 OFFCURVE",
"140 296 CURVE"
);
},
{
closed = 1;
nodes = (
"397 478 LINE",
"376 511 OFFCURVE",
"335 535 OFFCURVE",
"300 535 CURVE",
"270 390 LINE",
"296 390 OFFCURVE",
"328 373 OFFCURVE",
"346 350 CURVE"
);
}
);
width = 402;
}
);
leftKerningGroup = b;
leftMetricsKey = "=B";
rightKerningGroup = r;
rightMetricsKey = "=k";
unicode = 0072;
},
{
glyphname = s;
lastChange = "2020-11-26 21:43:25 +0000";
layers = (
{
anchors = (
{
name = bottom;
position = "{189, 0}";
},
{
name = top;
position = "{189, 500}";
}
);
background = {
paths = (
{
closed = 1;
nodes = (
"18 50 OFFCURVE",
"86 -8 OFFCURVE",
"189 -8 CURVE SMOOTH",
"286 -8 OFFCURVE",
"350 60 OFFCURVE",
"350 132 CURVE SMOOTH",
"350 298 OFFCURVE",
"94 251 OFFCURVE",
"94 365 CURVE SMOOTH",
"94 400 OFFCURVE",
"127 434 OFFCURVE",
"189 434 CURVE SMOOTH",
"261 434 OFFCURVE",
"294 404 OFFCURVE",
"294 353 CURVE",
"297 350 LINE",
"357 350 LINE",
"360 353 LINE",
"360 443 OFFCURVE",
"292 500 OFFCURVE",
"189 500 CURVE SMOOTH",
"92 500 OFFCURVE",
"28 437 OFFCURVE",
"28 365 CURVE SMOOTH",
"28 200 OFFCURVE",
"284 246 OFFCURVE",
"284 132 CURVE SMOOTH",
"284 97 OFFCURVE",
"251 58 OFFCURVE",
"189 58 CURVE SMOOTH",
"117 58 OFFCURVE",
"84 88 OFFCURVE",
"84 139 CURVE",
"81 142 LINE",
"21 142 LINE",
"18 140 LINE"
);
}
);
};
components = (
{
name = cut.curve;
transform = "{1, 0, 0, -1, 20, 485}";
},
{
name = cut.curve;
transform = "{-1, 0, 0, 1, 352, 16}";
}
);
layerId = "EA4BDF10-EAD0-47D5-9AD5-B8C643A094C2";
paths = (
{
closed = 1;
nodes = (
"284 125 OFFCURVE",
"350 125 OFFCURVE",
"350 125 CURVE SMOOTH",
"350 291 OFFCURVE",
"103 272 OFFCURVE",
"103 380 CURVE SMOOTH",
"103 380 OFFCURVE",
"37 380 OFFCURVE",
"37 380 CURVE SMOOTH",
"37 215 OFFCURVE",
"284 233 OFFCURVE",
"284 125 CURVE SMOOTH"
);
},
{
closed = 1;
nodes = (
"281 -15 OFFCURVE",
"350 45 OFFCURVE",
"350 125 CURVE",
"284 125 LINE",
"284 81 OFFCURVE",
"243 48 OFFCURVE",
"189 48 CURVE",
"189 -15 LINE"
);
},
{
closed = 1;
nodes = (
"103 380 LINE",
"103 422 OFFCURVE",
"137 453 OFFCURVE",
"183 453 CURVE",
"183 516 LINE",
"100 516 OFFCURVE",
"37 458 OFFCURVE",
"37 380 CURVE"
);
}
);
width = 372;
},
{
anchors = (
{
name = bottom;
position = "{238, 0}";
},
{
name = top;
position = "{238, 520}";
}
);
components = (
{
name = cut.curve;
transform = "{1, 0, 0, -1, 20, 520}";
},
{
name = cut.curve;
transform = "{-1, 0, 0, 1, 458, 0}";
}
);
layerId = "5EDCAC97-4996-4925-B8D9-EA484E9BADFC";
paths = (
{
closed = 1;
nodes = (
"294 145 OFFCURVE",
"450 145 OFFCURVE",
"450 145 CURVE SMOOTH",
"450 311 OFFCURVE",
"193 302 OFFCURVE",
"193 370 CURVE SMOOTH",
"193 370 OFFCURVE",
"37 370 OFFCURVE",
"37 370 CURVE SMOOTH",
"37 205 OFFCURVE",
"294 213 OFFCURVE",
"294 145 CURVE SMOOTH"
);
},
{
closed = 1;
nodes = (
"371 -16 OFFCURVE",
"450 44 OFFCURVE",
"450 145 CURVE",
"294 145 LINE",
"294 123 OFFCURVE",
"273 110 OFFCURVE",
"238 110 CURVE",
"238 -16 LINE"
);
},
{
closed = 1;
nodes = (
"193 370 LINE",
"193 393 OFFCURVE",
"213 410 OFFCURVE",
"240 410 CURVE",
"240 536 LINE",
"124 536 OFFCURVE",
"37 465 OFFCURVE",
"37 370 CURVE"
);
}
);
width = 478;
}
);
leftKerningGroup = a;
leftMetricsKey = "=a-10";
rightKerningGroup = a;
rightMetricsKey = "=a-10";
unicode = 0073;
},
{
glyphname = germandbls;
lastChange = "2020-11-26 21:43:25 +0000";
layers = (
{
components = (
{
name = tall.thincurve;
transform = "{1, 0, 0, 1, 40, 185}";
},
{
name = tall.thincurve;
transform = "{-1, 0, 0, 1, 382, 185}";
},
{
name = tall.thincurve;
transform = "{-1, 0, 0, -1, 382, 837}";
},
{
name = tall.thincurve;
transform = "{-1, 0, 0, 1, 412, -133}";
},
{
name = tall.thincurve;
transform = "{-1, 0, 0, -1, 412, 515}";
}
);
layerId = "EA4BDF10-EAD0-47D5-9AD5-B8C643A094C2";
paths = (
{
closed = 1;
nodes = (
"103 0 LINE",
"103 520 LINE",
"40 520 LINE",
"40 0 LINE"
);
},
{
closed = 1;
nodes = (
"241 0 LINE",
"241 60 LINE",
"170 60 LINE",
"170 0 LINE"
);
},
{
closed = 1;
nodes = (
"241 322 LINE",
"241 382 LINE",
"170 382 LINE",
"170 322 LINE"
);
},
{
closed = 1;
nodes = (
"412 180 LINE",
"412 202 LINE",
"349 202 LINE",
"349 180 LINE"
);
},
{
closed = 1;
nodes = (
"382 502 LINE",
"382 520 LINE",
"319 520 LINE",
"319 502 LINE"
);
}
);
width = 437;
},
{
components = (
{
name = tall.thincurve;
transform = "{1, 0, 0, 1, 40, 155}";
},
{
name = tall.thincurve;
transform = "{-1, 0, 0, 1, 489, 155}";
},
{
name = tall.thincurve;
transform = "{-1, 0, 0, -1, 489, 827}";
},
{
name = tall.thincurve;
transform = "{-1, 0, 0, 1, 499, -122}";
},
{
name = tall.thincurve;
transform = "{-1, 0, 0, -1, 499, 521}";
}
);
layerId = "5EDCAC97-4996-4925-B8D9-EA484E9BADFC";
paths = (
{
closed = 1;
nodes = (
"196 0 LINE",
"196 506 LINE",
"40 506 LINE",
"40 0 LINE"
);
},
{
closed = 1;
nodes = (
"277 -15 LINE",
"277 108 LINE",
"243 108 LINE",
"223 -15 LINE"
);
},
{
closed = 1;
nodes = (
"264 291 LINE",
"264 414 LINE",
"233 414 LINE",
"233 291 LINE"
);
},
{
closed = 1;
nodes = (
"499 169 LINE",
"499 230 LINE",
"343 230 LINE",
"343 169 LINE"
);
},
{
closed = 1;
nodes = (
"489 473 LINE",
"489 510 LINE",
"333 510 LINE",
"333 473 LINE"
);
}
);
width = 524;
}
);
leftKerningGroup = B;
leftMetricsKey = B;
rightKerningGroup = B;
rightMetricsKey = B;
unicode = 00DF;
},
{
glyphname = t;
lastChange = "2020-12-19 23:40:06 +0000";
layers = (
{
anchors = (
{
name = bottom;
position = "{141, 0}";
},
{
name = center;
position = "{141, 250}";
},
{
name = top;
position = "{141, 500}";
},
{
name = topright;
position = "{283, 500}";
}
);
background = {
paths = (
{
closed = 1;
nodes = (
"78 168 LINE",
"144 168 LINE",
"144 670 LINE",
"141 670 LINE",
"81 658 LINE",
"78 655 LINE"
);
},
{
closed = 1;
nodes = (
"20 497 LINE",
"20 447 LINE",
"23 444 LINE",
"267 444 LINE",
"270 447 LINE",
"270 497 LINE",
"267 500 LINE",
"23 500 LINE"
);
},
{
closed = 1;
nodes = (
"78 168 LINE",
"78 56 OFFCURVE",
"143 -3 OFFCURVE",
"267 -3 CURVE",
"270 0 LINE",
"257 60 LINE",
"255 63 LINE",
"185 63 OFFCURVE",
"144 102 OFFCURVE",
"144 168 CURVE"
);
}
);
};
components = (
{
name = fountain.curve.comp;
transform = "{1, 0, 0, -1, 78, 685}";
}
);
layerId = "EA4BDF10-EAD0-47D5-9AD5-B8C643A094C2";
paths = (
{
closed = 1;
nodes = (
"144 139 LINE",
"144 700 LINE",
"78 691 LINE",
"78 139 LINE"
);
},
{
closed = 1;
nodes = (
"270 440 LINE",
"270 500 LINE",
"20 500 LINE",
"20 440 LINE"
);
}
);
width = 300;
},
{
anchors = (
{
name = bottom;
position = "{200, 0}";
},
{
name = center;
position = "{170, 260}";
},
{
name = top;
position = "{170, 520}";
},
{
name = topright;
position = "{359, 520}";
}
);
components = (
{
name = fountain.curve.comp;
transform = "{1, 0, 0, -1, 78, 720}";
}
);
layerId = "5EDCAC97-4996-4925-B8D9-EA484E9BADFC";
paths = (
{
closed = 1;
nodes = (
"244 193 LINE",
"244 735 LINE",
"78 721 LINE",
"78 193 LINE"
);
},
{
closed = 1;
nodes = (
"370 400 LINE",
"370 520 LINE",
"20 520 LINE",
"20 400 LINE"
);
}
);
width = 415;
}
);
leftKerningGroup = f;
leftMetricsKey = "=a-10";
rightKerningGroup = t;
rightMetricsKey = "=f+10";
unicode = 0074;
},
{
glyphname = v;
lastChange = "2020-11-26 21:43:25 +0000";
layers = (
{
anchors = (
{
name = bottom;
position = "{214, 0}";
},
{
name = top;
position = "{214, 500}";
}
);
layerId = "EA4BDF10-EAD0-47D5-9AD5-B8C643A094C2";
paths = (
{
closed = 1;
nodes = (
"248 0 LINE",
"414 500 LINE",
"347 500 LINE",
"181 0 LINE"
);
},
{
closed = 1;
nodes = (
"248 0 LINE",
"82 500 LINE",
"15 500 LINE",
"181 0 LINE"
);
}
);
width = 429;
},
{
anchors = (
{
name = bottom;
position = "{268, 0}";
},
{
name = top;
position = "{268, 520}";
}
);
layerId = "5EDCAC97-4996-4925-B8D9-EA484E9BADFC";
paths = (
{
closed = 1;
nodes = (
"355 0 LINE",
"521 520 LINE",
"354 520 LINE",
"218 0 LINE"
);
},
{
closed = 1;
nodes = (
"318 0 LINE",
"182 520 LINE",
"15 520 LINE",
"181 0 LINE"
);
}
);
width = 536;
}
);
leftKerningGroup = V;
leftMetricsKey = "=V";
rightKerningGroup = V;
rightMetricsKey = "=V";
unicode = 0076;
},
{
glyphname = w;
lastChange = "2020-11-26 21:43:25 +0000";
layers = (
{
anchors = (
{
name = bottom;
position = "{317, 0}";
},
{
name = top;
position = "{317, 500}";
}
);
layerId = "EA4BDF10-EAD0-47D5-9AD5-B8C643A094C2";
paths = (
{
closed = 1;
nodes = (
"486 0 LINE",
"621 500 LINE",
"555 500 LINE",
"420 0 LINE"
);
},
{
closed = 1;
nodes = (
"216 0 LINE",
"81 500 LINE",
"15 500 LINE",
"150 0 LINE"
);
},
{
closed = 1;
nodes = (
"216 0 LINE",
"351 500 LINE",
"285 500 LINE",
"150 0 LINE"
);
},
{
closed = 1;
nodes = (
"486 0 LINE",
"351 500 LINE",
"285 500 LINE",
"420 0 LINE"
);
}
);
width = 636;
},
{
anchors = (
{
name = bottom;
position = "{374, 0}";
},
{
name = top;
position = "{374, 520}";
}
);
background = {
paths = (
{
closed = 1;
nodes = (
"567 0 LINE SMOOTH",
"593 0 OFFCURVE",
"611 13 OFFCURVE",
"618 38 CURVE SMOOTH",
"739 470 LINE SMOOTH",
"748 502 OFFCURVE",
"733 520 OFFCURVE",
"701 520 CURVE SMOOTH",
"627 520 LINE SMOOTH",
"600 520 OFFCURVE",
"583 506 OFFCURVE",
"577 480 CURVE SMOOTH",
"481 50 LINE SMOOTH",
"474 19 OFFCURVE",
"490 0 OFFCURVE",
"521 0 CURVE SMOOTH"
);
},
{
closed = 1;
nodes = (
"227 0 LINE SMOOTH",
"258 0 OFFCURVE",
"274 19 OFFCURVE",
"267 50 CURVE SMOOTH",
"171 480 LINE SMOOTH",
"165 506 OFFCURVE",
"148 520 OFFCURVE",
"121 520 CURVE SMOOTH",
"47 520 LINE SMOOTH",
"15 520 OFFCURVE",
"0 502 OFFCURVE",
"9 470 CURVE SMOOTH",
"130 38 LINE SMOOTH",
"137 13 OFFCURVE",
"155 0 OFFCURVE",
"181 0 CURVE SMOOTH"
);
},
{
closed = 1;
nodes = (
"239 0 LINE SMOOTH",
"265 0 OFFCURVE",
"281 12 OFFCURVE",
"289 38 CURVE SMOOTH",
"419 469 LINE SMOOTH",
"428 501 OFFCURVE",
"413 520 OFFCURVE",
"381 520 CURVE SMOOTH",
"347 520 LINE SMOOTH",
"321 520 OFFCURVE",
"303 507 OFFCURVE",
"296 482 CURVE SMOOTH",
"175 50 LINE SMOOTH",
"166 18 OFFCURVE",
"181 0 OFFCURVE",
"213 0 CURVE SMOOTH"
);
},
{
closed = 1;
nodes = (
"535 0 LINE SMOOTH",
"567 0 OFFCURVE",
"582 18 OFFCURVE",
"573 50 CURVE SMOOTH",
"452 482 LINE SMOOTH",
"445 507 OFFCURVE",
"427 520 OFFCURVE",
"401 520 CURVE SMOOTH",
"367 520 LINE SMOOTH",
"335 520 OFFCURVE",
"320 500 OFFCURVE",
"329 469 CURVE SMOOTH",
"459 38 LINE SMOOTH",
"467 12 OFFCURVE",
"483 0 OFFCURVE",
"509 0 CURVE SMOOTH"
);
}
);
};
layerId = "5EDCAC97-4996-4925-B8D9-EA484E9BADFC";
paths = (
{
closed = 1;
nodes = (
"597 0 LINE",
"733 520 LINE",
"566 520 LINE",
"460 0 LINE"
);
},
{
closed = 1;
nodes = (
"288 0 LINE",
"182 520 LINE",
"15 520 LINE",
"151 0 LINE"
);
},
{
closed = 1;
nodes = (
"288 0 LINE",
"434 520 LINE",
"312 520 LINE",
"176 0 LINE"
);
},
{
closed = 1;
nodes = (
"572 0 LINE",
"436 520 LINE",
"314 520 LINE",
"460 0 LINE"
);
}
);
width = 748;
}
);
leftKerningGroup = V;
leftMetricsKey = "=V";
rightKerningGroup = V;
rightMetricsKey = "=V";
unicode = 0077;
},
{
glyphname = x;
lastChange = "2020-11-26 21:43:25 +0000";
layers = (
{
anchors = (
{
name = bottom;
position = "{192, 0}";
},
{
name = top;
position = "{192, 500}";
}
);
layerId = "EA4BDF10-EAD0-47D5-9AD5-B8C643A094C2";
paths = (
{
closed = 1;
nodes = (
"373 0 LINE",
"87 500 LINE",
"15 500 LINE",
"301 0 LINE"
);
},
{
closed = 1;
nodes = (
"87 0 LINE",
"373 500 LINE",
"301 500 LINE",
"15 0 LINE"
);
}
);
width = 388;
},
{
anchors = (
{
name = bottom;
position = "{263, 0}";
},
{
name = top;
position = "{263, 520}";
}
);
layerId = "5EDCAC97-4996-4925-B8D9-EA484E9BADFC";
paths = (
{
closed = 1;
nodes = (
"511 0 LINE",
"185 520 LINE",
"15 520 LINE",
"341 0 LINE"
);
},
{
closed = 1;
nodes = (
"185 0 LINE",
"511 520 LINE",
"341 520 LINE",
"15 0 LINE"
);
}
);
width = 526;
}
);
leftKerningGroup = V;
leftMetricsKey = "=V";
rightKerningGroup = V;
rightMetricsKey = "=V";
unicode = 0078;
},
{
glyphname = y;
lastChange = "2020-12-09 02:06:55 +0000";
layers = (
{
anchors = (
{
name = bottom;
position = "{214, 0}";
},
{
name = top;
position = "{214, 500}";
}
);
background = {
paths = (
{
closed = 1;
nodes = (
"142 -105 OFFCURVE",
"105 -136 OFFCURVE",
"67 -126 CURVE",
"65 -128 LINE",
"36 -184 LINE",
"38 -187 LINE",
"120 -210 OFFCURVE",
"189 -163 OFFCURVE",
"217 -74 CURVE",
"158 -46 LINE"
);
},
{
closed = 1;
nodes = (
"217 -74 LINE",
"372 497 LINE",
"369 500 LINE",
"307 500 LINE",
"304 497 LINE",
"158 -46 LINE",
"161 -49 LINE",
"214 -77 LINE"
);
},
{
closed = 1;
nodes = (
"235 0 LINE",
"238 3 LINE",
"105 497 LINE",
"102 500 LINE",
"40 500 LINE",
"37 497 LINE",
"171 3 LINE",
"174 0 LINE"
);
}
);
};
components = (
{
name = v;
}
);
layerId = "EA4BDF10-EAD0-47D5-9AD5-B8C643A094C2";
paths = (
{
closed = 1;
nodes = (
"127 -210 OFFCURVE",
"195 -168 OFFCURVE",
"224 -74 CURVE",
"164 -46 LINE",
"146 -112 OFFCURVE",
"106 -143 OFFCURVE",
"56 -129 CURVE",
"43 -187 LINE"
);
},
{
closed = 1;
nodes = (
"283 106 LINE",
"217 106 LINE",
"164 -46 LINE",
"224 -74 LINE"
);
}
);
width = 429;
},
{
anchors = (
{
name = bottom;
position = "{268, 0}";
},
{
name = top;
position = "{268, 520}";
}
);
components = (
{
name = v;
}
);
layerId = "5EDCAC97-4996-4925-B8D9-EA484E9BADFC";
paths = (
{
closed = 1;
nodes = (
"191 -227 OFFCURVE",
"302 -171 OFFCURVE",
"344 -37 CURVE",
"177 -9 LINE",
"165 -54 OFFCURVE",
"130 -72 OFFCURVE",
"83 -59 CURVE",
"45 -187 LINE"
);
},
{
closed = 1;
nodes = (
"388 106 LINE",
"216 106 LINE",
"177 -9 LINE",
"344 -37 LINE"
);
}
);
width = 536;
}
);
leftKerningGroup = V;
leftMetricsKey = "=V";
rightKerningGroup = V;
rightMetricsKey = "=V";
unicode = 0079;
},
{
glyphname = z;
lastChange = "2020-11-26 21:43:25 +0000";
layers = (
{
anchors = (
{
name = bottom;
position = "{195, 0}";
},
{
name = center;
position = "{195, 250}";
},
{
name = top;
position = "{195, 500}";
}
);
layerId = "EA4BDF10-EAD0-47D5-9AD5-B8C643A094C2";
paths = (
{
closed = 1;
nodes = (
"116 63 LINE",
"350 437 LINE",
"275 437 LINE",
"40 63 LINE"
);
},
{
closed = 1;
nodes = (
"350 0 LINE",
"350 63 LINE",
"40 63 LINE",
"40 0 LINE"
);
},
{
closed = 1;
nodes = (
"350 437 LINE",
"350 500 LINE",
"40 500 LINE",
"40 437 LINE"
);
}
);
width = 390;
},
{
anchors = (
{
name = bottom;
position = "{225, 0}";
},
{
name = center;
position = "{225, 260}";
},
{
name = top;
position = "{225, 520}";
}
);
layerId = "5EDCAC97-4996-4925-B8D9-EA484E9BADFC";
paths = (
{
closed = 1;
nodes = (
"216 133 LINE",
"410 387 LINE",
"235 387 LINE",
"40 133 LINE"
);
},
{
closed = 1;
nodes = (
"410 0 LINE",
"410 133 LINE",
"40 133 LINE",
"40 0 LINE"
);
},
{
closed = 1;
nodes = (
"410 387 LINE",
"410 520 LINE",
"40 520 LINE",
"40 387 LINE"
);
}
);
width = 450;
}
);
leftKerningGroup = a;
leftMetricsKey = "=a+10";
rightKerningGroup = d;
rightMetricsKey = "=a+10";
unicode = 007A;
},
{
color = 7;
glyphname = a.ss01;
lastChange = "2020-11-26 21:43:25 +0000";
layers = (
{
anchors = (
{
name = bottom;
position = "{220, 0}";
},
{
name = ogonek;
position = "{400, 10}";
},
{
name = top;
position = "{220, 510}";
}
);
background = {
paths = (
{
closed = 1;
nodes = (
"325 0 LINE",
"391 0 LINE",
"391 350 LINE",
"325 350 LINE"
);
},
{
closed = 1;
nodes = (
"292 434 OFFCURVE",
"325 401 OFFCURVE",
"325 350 CURVE",
"391 350 LINE",
"391 440 OFFCURVE",
"323 500 OFFCURVE",
"220 500 CURVE",
"220 434 LINE"
);
},
{
closed = 1;
nodes = (
"200 -8 LINE",
"286 -8 OFFCURVE",
"348 52 OFFCURVE",
"348 142 CURVE",
"325 142 LINE",
"325 97 OFFCURVE",
"263 57 OFFCURVE",
"200 57 CURVE"
);
},
{
closed = 1;
nodes = (
"138 57 OFFCURVE",
"96 91 OFFCURVE",
"96 142 CURVE",
"30 142 LINE",
"30 52 OFFCURVE",
"98 -8 OFFCURVE",
"200 -8 CURVE",
"200 57 LINE"
);
},
{
closed = 1;
nodes = (
"200 286 LINE",
"92 286 OFFCURVE",
"30 232 OFFCURVE",
"30 142 CURVE",
"96 142 LINE",
"96 200 OFFCURVE",
"122 227 OFFCURVE",
"200 227 CURVE"
);
},
{
closed = 1;
nodes = (
"220 500 LINE",
"117 500 OFFCURVE",
"49 446 OFFCURVE",
"49 365 CURVE",
"52 362 LINE",
"112 350 LINE",
"115 352 LINE",
"115 403 OFFCURVE",
"148 434 OFFCURVE",
"220 434 CURVE"
);
},
{
closed = 1;
nodes = (
"200 227 LINE",
"378 227 LINE",
"378 286 LINE",
"200 286 LINE"
);
}
);
};
components = (
{
name = a.comp;
transform = "{1, 0, 0, 1, 30, 0}";
}
);
layerId = "EA4BDF10-EAD0-47D5-9AD5-B8C643A094C2";
paths = (
{
closed = 1;
nodes = (
"391 0 LINE",
"391 350 LINE",
"325 350 LINE",
"325 0 LINE"
);
}
);
width = 421;
},
{
anchors = (
{
name = bottom;
position = "{271, 0}";
},
{
name = ogonek;
position = "{474, 10}";
},
{
name = top;
position = "{271, 540}";
}
);
components = (
{
name = a.comp;
transform = "{1, 0, 0, 1, 30, 0}";
}
);
layerId = "5EDCAC97-4996-4925-B8D9-EA484E9BADFC";
paths = (
{
closed = 1;
nodes = (
"501 0 LINE",
"501 327 LINE",
"335 327 LINE",
"335 0 LINE"
);
}
);
width = 531;
}
);
leftKerningGroup = a;
leftMetricsKey = "=30";
rightKerningGroup = a;
rightMetricsKey = "=30";
},
{
glyphname = y.ss01;
lastChange = "2020-12-09 02:09:41 +0000";
layers = (
{
anchors = (
{
name = bottom;
position = "{215, 0}";
},
{
name = top;
position = "{215, 500}";
}
);
components = (
{
name = v;
}
);
layerId = "EA4BDF10-EAD0-47D5-9AD5-B8C643A094C2";
paths = (
{
closed = 1;
nodes = (
"191 -171 LINE",
"248 0 LINE",
"181 0 LINE",
"124 -171 LINE"
);
}
);
width = 429;
},
{
anchors = (
{
name = bottom;
position = "{268, 0}";
},
{
name = top;
position = "{268, 520}";
}
);
components = (
{
name = v;
}
);
layerId = "5EDCAC97-4996-4925-B8D9-EA484E9BADFC";
paths = (
{
closed = 1;
nodes = (
"296 -186 LINE",
"355 0 LINE",
"181 0 LINE",
"122 -186 LINE"
);
}
);
width = 536;
}
);
leftKerningGroup = V;
leftMetricsKey = "=V";
rightKerningGroup = V;
rightMetricsKey = "=V";
},
{
export = 0;
glyphname = a.comp;
lastChange = "2020-11-26 21:43:25 +0000";
layers = (
{
components = (
{
name = general.curve;
transform = "{-1, 0, 0, 1, 361, 15}";
},
{
name = cut.curve;
transform = "{1, 0, 0, 1, 21, 15}";
}
);
layerId = "EA4BDF10-EAD0-47D5-9AD5-B8C643A094C2";
paths = (
{
closed = 1;
nodes = (
"275 -15 OFFCURVE",
"333 48 OFFCURVE",
"333 185 CURVE",
"295 185 LINE",
"295 82 OFFCURVE",
"253 45 OFFCURVE",
"170 45 CURVE",
"170 -15 LINE"
);
},
{
closed = 1;
nodes = (
"170 45 LINE",
"111 45 OFFCURVE",
"66 88 OFFCURVE",
"66 145 CURVE",
"0 145 LINE",
"0 54 OFFCURVE",
"73 -15 OFFCURVE",
"170 -15 CURVE"
);
},
{
closed = 1;
nodes = (
"66 145 LINE",
"66 202 OFFCURVE",
"119 244 OFFCURVE",
"190 244 CURVE",
"190 304 LINE",
"81 304 OFFCURVE",
"0 236 OFFCURVE",
"0 145 CURVE"
);
},
{
closed = 1;
nodes = (
"348 244 LINE",
"348 304 LINE",
"190 304 LINE",
"190 244 LINE"
);
},
{
closed = 1;
nodes = (
"333 185 LINE",
"333 351 LINE",
"295 351 LINE",
"295 185 LINE"
);
}
);
width = 361;
},
{
components = (
{
name = general.curve;
transform = "{-1, 0, 0, 1, 471, 0}";
},
{
name = cut.curve;
transform = "{1, 0, 0, 1, 13, 0}";
}
);
layerId = "5EDCAC97-4996-4925-B8D9-EA484E9BADFC";
paths = (
{
closed = 1;
nodes = (
"272 -15 OFFCURVE",
"341 68 OFFCURVE",
"341 179 CURVE",
"305 189 LINE",
"305 136 OFFCURVE",
"270 105 OFFCURVE",
"210 105 CURVE",
"180 -15 LINE"
);
},
{
closed = 1;
nodes = (
"210 105 LINE",
"170 105 OFFCURVE",
"146 126 OFFCURVE",
"146 161 CURVE",
"0 146 LINE",
"0 54 OFFCURVE",
"77 -15 OFFCURVE",
"180 -15 CURVE"
);
},
{
closed = 1;
nodes = (
"146 161 LINE",
"146 197 OFFCURVE",
"177 219 OFFCURVE",
"230 219 CURVE",
"210 309 LINE",
"90 309 OFFCURVE",
"0 239 OFFCURVE",
"0 146 CURVE"
);
},
{
closed = 1;
nodes = (
"335 219 LINE",
"335 309 LINE",
"210 309 LINE",
"230 219 LINE"
);
},
{
closed = 1;
nodes = (
"341 179 LINE",
"341 317 LINE",
"305 317 LINE",
"305 189 LINE"
);
}
);
width = 471;
}
);
leftMetricsKey = "=0";
rightMetricsKey = "=0";
},
{
glyphname = F_T;
lastChange = "2020-11-26 21:43:25 +0000";
layers = (
{
components = (
{
name = F;
},
{
name = I;
transform = "{1, 0, 0, 1, 477, 0}";
}
);
layerId = "EA4BDF10-EAD0-47D5-9AD5-B8C643A094C2";
paths = (
{
closed = 1;
nodes = (
"745 634 LINE",
"745 700 LINE",
"385 700 LINE",
"385 634 LINE"
);
}
);
width = 740;
},
{
components = (
{
name = F;
},
{
name = I;
transform = "{1, 0, 0, 1, 532, 0}";
}
);
layerId = "5EDCAC97-4996-4925-B8D9-EA484E9BADFC";
paths = (
{
closed = 1;
nodes = (
"900 594 LINE",
"900 720 LINE",
"450 720 LINE",
"450 594 LINE"
);
}
);
width = 895;
}
);
leftKerningGroup = B;
leftMetricsKey = F;
rightKerningGroup = T;
rightMetricsKey = T;
},
{
glyphname = T_T;
lastChange = "2020-11-26 21:43:25 +0000";
layers = (
{
components = (
{
name = I;
transform = "{1, 0, 0, 1, 117, 0}";
},
{
name = I;
transform = "{1, 0, 0, 1, 472, 0}";
}
);
layerId = "EA4BDF10-EAD0-47D5-9AD5-B8C643A094C2";
paths = (
{
closed = 1;
nodes = (
"355 634 LINE",
"355 700 LINE",
"-5 700 LINE",
"-5 634 LINE"
);
},
{
closed = 1;
nodes = (
"740 634 LINE",
"740 700 LINE",
"380 700 LINE",
"380 634 LINE"
);
}
);
width = 735;
},
{
components = (
{
name = I;
transform = "{1, 0, 0, 1, 117, 0}";
},
{
name = I;
transform = "{1, 0, 0, 1, 547, 0}";
}
);
layerId = "5EDCAC97-4996-4925-B8D9-EA484E9BADFC";
paths = (
{
closed = 1;
nodes = (
"445 594 LINE",
"445 720 LINE",
"-5 720 LINE",
"-5 594 LINE"
);
},
{
closed = 1;
nodes = (
"915 594 LINE",
"915 720 LINE",
"465 720 LINE",
"465 594 LINE"
);
}
);
width = 910;
}
);
leftKerningGroup = T;
leftMetricsKey = T;
rightKerningGroup = T;
rightMetricsKey = T;
},
{
glyphname = f_i;
lastChange = "2020-11-26 21:43:25 +0000";
layers = (
{
anchors = (
{
name = bottom;
position = "{135, 0}";
},
{
name = top;
position = "{135, 800}";
}
);
components = (
{
name = idotless;
transform = "{1, 0, 0, 1, 254, 0}";
}
);
layerId = "EA4BDF10-EAD0-47D5-9AD5-B8C643A094C2";
paths = (
{
closed = 1;
nodes = (
"134 0 LINE",
"134 550 LINE",
"68 550 LINE",
"68 0 LINE"
);
},
{
closed = 1;
nodes = (
"318 440 LINE",
"318 500 LINE",
"10 500 LINE",
"10 440 LINE"
);
},
{
closed = 1;
nodes = (
"134 550 LINE",
"134 613 OFFCURVE",
"169 651 OFFCURVE",
"229 651 CURVE",
"229 715 LINE",
"128 715 OFFCURVE",
"68 654 OFFCURVE",
"68 550 CURVE"
);
},
{
closed = 1;
nodes = (
"364 681 LINE",
"306 708 OFFCURVE",
"266 715 OFFCURVE",
"229 715 CURVE",
"229 651 LINE",
"270 651 OFFCURVE",
"296 645 OFFCURVE",
"346 624 CURVE"
);
}
);
width = 404;
},
{
anchors = (
{
name = bottom;
position = "{187, 0}";
},
{
name = top;
position = "{187, 800}";
}
);
components = (
{
name = idotless;
transform = "{1, 0, 0, 1, 308, 0}";
}
);
layerId = "5EDCAC97-4996-4925-B8D9-EA484E9BADFC";
paths = (
{
closed = 1;
nodes = (
"234 0 LINE",
"234 527 LINE",
"68 527 LINE",
"68 0 LINE"
);
},
{
closed = 1;
nodes = (
"359 400 LINE",
"359 520 LINE",
"10 520 LINE",
"10 400 LINE"
);
},
{
closed = 1;
nodes = (
"234 526 LINE",
"234 573 OFFCURVE",
"263 600 OFFCURVE",
"313 600 CURVE",
"303 736 LINE",
"155 736 OFFCURVE",
"68 658 OFFCURVE",
"68 526 CURVE"
);
},
{
closed = 1;
nodes = (
"474 693 LINE",
"431 719 OFFCURVE",
"369 736 OFFCURVE",
"303 736 CURVE",
"313 600 LINE",
"361 600 OFFCURVE",
"397 588 OFFCURVE",
"441 565 CURVE"
);
}
);
width = 567;
}
);
leftMetricsKey = f;
rightMetricsKey = i;
},
{
glyphname = f_l;
lastChange = "2020-11-26 21:43:25 +0000";
layers = (
{
layerId = "EA4BDF10-EAD0-47D5-9AD5-B8C643A094C2";
paths = (
{
closed = 1;
nodes = (
"398 0 LINE",
"398 685 LINE",
"332 685 LINE",
"332 0 LINE"
);
},
{
closed = 1;
nodes = (
"134 0 LINE",
"134 550 LINE",
"68 550 LINE",
"68 0 LINE"
);
},
{
closed = 1;
nodes = (
"260 440 LINE",
"260 500 LINE",
"10 500 LINE",
"10 440 LINE"
);
},
{
closed = 1;
nodes = (
"134 550 LINE",
"134 613 OFFCURVE",
"173 651 OFFCURVE",
"239 651 CURVE",
"239 715 LINE",
"132 715 OFFCURVE",
"68 654 OFFCURVE",
"68 550 CURVE"
);
},
{
closed = 1;
nodes = (
"398 686 LINE",
"346 704 OFFCURVE",
"287 715 OFFCURVE",
"239 715 CURVE",
"239 651 LINE",
"283 651 OFFCURVE",
"342 640 OFFCURVE",
"398 622 CURVE"
);
}
);
width = 448;
},
{
layerId = "5EDCAC97-4996-4925-B8D9-EA484E9BADFC";
paths = (
{
closed = 1;
nodes = (
"580 0 LINE",
"580 696 LINE",
"414 696 LINE",
"414 0 LINE"
);
},
{
closed = 1;
nodes = (
"234 0 LINE",
"234 527 LINE",
"68 527 LINE",
"68 0 LINE"
);
},
{
closed = 1;
nodes = (
"349 400 LINE",
"349 520 LINE",
"10 520 LINE",
"10 400 LINE"
);
},
{
closed = 1;
nodes = (
"234 526 LINE",
"234 573 OFFCURVE",
"271 600 OFFCURVE",
"333 600 CURVE",
"323 736 LINE",
"163 736 OFFCURVE",
"68 658 OFFCURVE",
"68 526 CURVE"
);
},
{
closed = 1;
nodes = (
"580 696 LINE",
"499 723 OFFCURVE",
"422 736 OFFCURVE",
"323 736 CURVE",
"333 600 LINE",
"361 600 OFFCURVE",
"386 596 OFFCURVE",
"414 584 CURVE"
);
}
);
width = 630;
}
);
leftMetricsKey = f;
rightMetricsKey = l;
},
{
glyphname = "a-deva";
lastChange = "2020-12-12 00:55:48 +0000";
layers = (
{
anchors = (
{
name = bottom;
position = "{495, 0}";
},
{
name = candra;
position = "{293, 630}";
},
{
name = nukta;
position = "{129, -102}";
},
{
name = top;
position = "{494, 630}";
}
);
components = (
{
name = "a-deva.comp";
transform = "{1, 0, 0, 1, 43, 0}";
},
{
name = cut.curve;
transform = "{1, 0, 0, 1, 35, 145}";
},
{
alignment = -1;
name = narrow.thincurve;
transform = "{-1, 0, 0, 1, 365, 15}";
},
{
name = "aaMatra-deva.cut";
transform = "{1, 0, 0, 1, 426, 0}";
}
);
guideLines = (
{
angle = 90;
position = "{49, 659}";
},
{
angle = 180;
position = "{80, 710}";
}
);
layerId = "EA4BDF10-EAD0-47D5-9AD5-B8C643A094C2";
paths = (
{
closed = 1;
nodes = (
"508 276 LINE",
"508 336 LINE",
"292 336 LINE",
"292 276 LINE"
);
}
);
width = 587;
},
{
anchors = (
{
name = bottom;
position = "{662, 0}";
},
{
name = candra;
position = "{382, 660}";
},
{
name = nukta;
position = "{72, -123}";
},
{
name = top;
position = "{657, 660}";
}
);
components = (
{
name = "a-deva.comp";
transform = "{1, 0, 0, 1, 35, 2}";
},
{
name = cut.curve;
transform = "{1, 0, 0, 1, 38, 138}";
},
{
alignment = -1;
name = narrow.thincurve;
transform = "{-1, 0, 0, 1, 488, -16}";
},
{
name = "aaMatra-deva.cut";
transform = "{1, 0, 0, 1, 540, 0}";
}
);
layerId = "5EDCAC97-4996-4925-B8D9-EA484E9BADFC";
paths = (
{
closed = 1;
nodes = (
"661 234 LINE",
"661 354 LINE",
"425 354 LINE",
"425 234 LINE"
);
}
);
width = 794;
}
);
leftMetricsKey = "=aaMatra-deva*-1";
rightMetricsKey = "=aaMatra-deva";
unicode = 0905;
script = devanagari;
category = Letter;
subCategory = Matra;
},
{
glyphname = "u-deva";
lastChange = "2020-12-11 00:31:40 +0000";
layers = (
{
anchors = (
{
name = bottom;
position = "{197, -50}";
},
{
name = candra;
position = "{79, 630}";
},
{
name = top;
position = "{201, 630}";
}
);
components = (
{
name = "a-deva.comp";
transform = "{1, 0, 0, 1, 20, 0}";
}
);
layerId = "EA4BDF10-EAD0-47D5-9AD5-B8C643A094C2";
paths = (
{
closed = 1;
nodes = (
"342 475 LINE",
"342 555 OFFCURVE",
"269 615 OFFCURVE",
"171 615 CURVE",
"171 567 LINE",
"231 567 OFFCURVE",
"276 528 OFFCURVE",
"276 475 CURVE"
);
},
{
closed = 1;
nodes = (
"433 567 LINE",
"433 630 LINE",
"-35 630 LINE",
"-35 567 LINE"
);
}
);
width = 398;
},
{
anchors = (
{
name = bottom;
position = "{415, -26}";
},
{
name = candra;
position = "{135, 660}";
},
{
name = top;
position = "{375, 660}";
}
);
components = (
{
name = "a-deva.comp";
transform = "{1, 0, 0, 1, 20, 0}";
}
);
layerId = "5EDCAC97-4996-4925-B8D9-EA484E9BADFC";
paths = (
{
closed = 1;
nodes = (
"473 482 LINE",
"473 566 OFFCURVE",
"383 625 OFFCURVE",
"232 625 CURVE",
"232 547 LINE",
"283 547 OFFCURVE",
"313 517 OFFCURVE",
"313 482 CURVE"
);
},
{
closed = 1;
nodes = (
"555 547 LINE",
"555 660 LINE",
"-35 660 LINE",
"-35 547 LINE"
);
}
);
width = 520;
}
);
leftMetricsKey = "=aaMatra-deva";
rightMetricsKey = "=aaMatra-deva";
unicode = 0909;
script = devanagari;
category = Letter;
subCategory = Matra;
},
{
glyphname = "uu-deva";
lastChange = "2020-12-11 00:34:33 +0000";
layers = (
{
anchors = (
{
name = bottom;
position = "{227, -50}";
},
{
name = candra;
position = "{30, 630}";
},
{
name = top;
position = "{238, 630}";
}
);
components = (
{
name = "u-deva";
},
{
name = "slash-xl.thincurve";
transform = "{-0.70711, -0.70711, 0.70711, -0.70711, -30, 855}";
}
);
layerId = "EA4BDF10-EAD0-47D5-9AD5-B8C643A094C2";
paths = (
{
closed = 1;
nodes = (
"595 567 LINE",
"595 630 LINE",
"134 630 LINE",
"134 567 LINE"
);
}
);
width = 560;
},
{
anchors = (
{
name = bottom;
position = "{577, -40}";
},
{
name = candra;
position = "{104, 660}";
},
{
name = top;
position = "{397, 660}";
}
);
components = (
{
name = "u-deva";
},
{
name = "slash-xl.thincurve";
transform = "{-0.70711, -0.70711, 0.70711, -0.70711, 129, 908}";
}
);
layerId = "5EDCAC97-4996-4925-B8D9-EA484E9BADFC";
paths = (
{
closed = 1;
nodes = (
"785 547 LINE",
"785 660 LINE",
"294 660 LINE",
"294 547 LINE"
);
}
);
width = 750;
}
);
leftMetricsKey = "=aaMatra-deva";
rightMetricsKey = "=aaMatra-deva";
unicode = 090A;
script = devanagari;
category = Letter;
subCategory = Matra;
},
{
glyphname = "lVocalic-deva";
lastChange = "2020-12-20 00:28:36 +0000";
layers = (
{
anchors = (
{
name = bottom;
position = "{540, -37}";
},
{
name = candra;
position = "{329, 630}";
},
{
name = top;
position = "{541, 630}";
}
);
components = (
{
name = "lVocalic-base-deva";
},
{
name = "rVocalicMatra-deva";
transform = "{1, 0, 0, 1, 417, 114}";
}
);
layerId = "EA4BDF10-EAD0-47D5-9AD5-B8C643A094C2";
paths = (
{
closed = 1;
nodes = (
"565 123 LINE",
"565 585 LINE",
"502 585 LINE",
"502 123 LINE"
);
},
{
closed = 1;
nodes = (
"692 567 LINE",
"692 630 LINE",
"225 630 LINE",
"225 567 LINE"
);
}
);
width = 657;
},
{
anchors = (
{
name = bottom;
position = "{634, -19}";
},
{
name = candra;
position = "{399, 660}";
},
{
name = top;
position = "{614, 660}";
}
);
components = (
{
name = "lVocalic-base-deva";
},
{
name = "rVocalicMatra-deva";
transform = "{1, 0, 0, 1, 485, 152}";
}
);
layerId = "5EDCAC97-4996-4925-B8D9-EA484E9BADFC";
paths = (
{
closed = 1;
nodes = (
"695 123 LINE",
"695 585 LINE",
"532 585 LINE",
"532 123 LINE"
);
},
{
closed = 1;
nodes = (
"772 547 LINE",
"772 660 LINE",
"375 660 LINE",
"375 547 LINE"
);
}
);
width = 737;
}
);
leftMetricsKey = "=aaMatra-deva";
rightMetricsKey = "=aaMatra-deva";
unicode = 090C;
script = devanagari;
category = Letter;
subCategory = Matra;
},
{
glyphname = "llVocalic-deva";
lastChange = "2020-11-26 21:43:25 +0000";
layers = (
{
anchors = (
{
name = bottom;
position = "{539, -50}";
},
{
name = candra;
position = "{329, 630}";
},
{
name = top;
position = "{541, 630}";
}
);
components = (
{
alignment = -1;
name = "rrVocalicMatra-deva";
transform = "{1, 0, 0, 1, 429, 24}";
},
{
name = "lVocalic-base-deva";
}
);
layerId = "EA4BDF10-EAD0-47D5-9AD5-B8C643A094C2";
paths = (
{
closed = 1;
nodes = (
"565 123 LINE",
"565 585 LINE",
"502 585 LINE",
"502 123 LINE"
);
},
{
closed = 1;
nodes = (
"692 567 LINE",
"692 630 LINE",
"225 630 LINE",
"225 567 LINE"
);
}
);
width = 657;
},
{
anchors = (
{
name = bottom;
position = "{636, 0}";
},
{
name = candra;
position = "{412, 660}";
},
{
name = top;
position = "{616, 660}";
}
);
components = (
{
alignment = -1;
name = "rrVocalicMatra-deva";
transform = "{1, 0, 0, 1, 502, -119}";
},
{
name = "lVocalic-base-deva";
}
);
layerId = "5EDCAC97-4996-4925-B8D9-EA484E9BADFC";
paths = (
{
closed = 1;
nodes = (
"695 123 LINE",
"695 585 LINE",
"532 585 LINE",
"532 123 LINE"
);
},
{
closed = 1;
nodes = (
"798 547 LINE",
"798 660 LINE",
"375 660 LINE",
"375 547 LINE"
);
}
);
width = 763;
}
);
leftMetricsKey = "=aaMatra-deva";
rightMetricsKey = "=aaMatra-deva";
unicode = 0961;
script = devanagari;
category = Letter;
subCategory = Matra;
},
{
glyphname = "e-deva";
lastChange = "2020-12-19 21:07:48 +0000";
layers = (
{
anchors = (
{
name = bottom;
position = "{363, 0}";
},
{
name = candra;
position = "{95, 630}";
},
{
name = top;
position = "{363, 630}";
}
);
layerId = "EA4BDF10-EAD0-47D5-9AD5-B8C643A094C2";
paths = (
{
closed = 1;
nodes = (
"335 48 LINE",
"202 48 OFFCURVE",
"141 128 OFFCURVE",
"141 301 CURVE",
"75 301 LINE",
"75 84 OFFCURVE",
"157 -15 OFFCURVE",
"335 -15 CURVE"
);
},
{
closed = 1;
nodes = (
"141 301 LINE",
"141 604 LINE",
"75 604 LINE",
"75 301 LINE"
);
},
{
closed = 1;
nodes = (
"396 430 LINE",
"396 605 LINE",
"330 605 LINE",
"330 430 LINE"
);
},
{
closed = 1;
nodes = (
"485 567 LINE",
"485 630 LINE",
"-35 630 LINE",
"-35 567 LINE"
);
},
{
closed = 1;
nodes = (
"330 430 LINE",
"330 359 OFFCURVE",
"291 305 OFFCURVE",
"224 293 CURVE",
"234 230 LINE",
"336 241 OFFCURVE",
"396 318 OFFCURVE",
"396 430 CURVE"
);
}
);
width = 450;
},
{
anchors = (
{
name = bottom;
position = "{430, -20}";
},
{
name = candra;
position = "{57, 660}";
},
{
name = top;
position = "{420, 660}";
}
);
layerId = "5EDCAC97-4996-4925-B8D9-EA484E9BADFC";
paths = (
{
closed = 1;
nodes = (
"429 88 LINE",
"289 88 OFFCURVE",
"225 155 OFFCURVE",
"225 301 CURVE",
"65 301 LINE",
"65 71 OFFCURVE",
"179 -35 OFFCURVE",
"429 -35 CURVE"
);
},
{
closed = 1;
nodes = (
"225 301 LINE",
"225 604 LINE",
"65 604 LINE",
"65 301 LINE"
);
},
{
closed = 1;
nodes = (
"510 420 LINE",
"510 605 LINE",
"350 605 LINE",
"350 420 LINE"
);
},
{
closed = 1;
nodes = (
"579 547 LINE",
"579 660 LINE",
"-35 660 LINE",
"-35 547 LINE"
);
},
{
closed = 1;
nodes = (
"350 420 LINE",
"350 380 OFFCURVE",
"323 356 OFFCURVE",
"278 346 CURVE",
"298 220 LINE",
"444 230 OFFCURVE",
"510 301 OFFCURVE",
"510 420 CURVE"
);
}
);
width = 544;
}
);
leftMetricsKey = "=aaMatra-deva";
rightMetricsKey = "=aaMatra-deva";
unicode = 090F;
script = devanagari;
category = Letter;
subCategory = Matra;
},
{
glyphname = "oe-deva";
lastChange = "2020-12-18 01:03:08 +0000";
layers = (
{
components = (
{
name = "a-deva";
}
);
layerId = "EA4BDF10-EAD0-47D5-9AD5-B8C643A094C2";
paths = (
{
closed = 1;
nodes = (
"524 548 LINE",
"524 760 LINE",
"461 760 LINE",
"461 548 LINE"
);
}
);
width = 587;
},
{
components = (
{
name = "a-deva";
}
);
layerId = "5EDCAC97-4996-4925-B8D9-EA484E9BADFC";
paths = (
{
closed = 1;
nodes = (
"738 458 LINE",
"738 796 LINE",
"575 796 LINE",
"575 458 LINE"
);
}
);
width = 794;
}
);
leftMetricsKey = "=a-deva";
rightMetricsKey = "=a-deva";
unicode = 0973;
script = devanagari;
category = Letter;
subCategory = Matra;
},
{
glyphname = "ooe-deva";
lastChange = "2020-12-18 01:03:13 +0000";
layers = (
{
components = (
{
name = "aa-deva";
}
);
layerId = "EA4BDF10-EAD0-47D5-9AD5-B8C643A094C2";
paths = (
{
closed = 1;
nodes = (
"712 548 LINE",
"712 760 LINE",
"650 760 LINE",
"650 548 LINE"
);
}
);
width = 776;
},
{
components = (
{
name = "aa-deva";
}
);
layerId = "5EDCAC97-4996-4925-B8D9-EA484E9BADFC";
paths = (
{
closed = 1;
nodes = (
"1012 458 LINE",
"1012 796 LINE",
"849 796 LINE",
"849 458 LINE"
);
}
);
width = 1068;
}
);
leftMetricsKey = "=a-deva";
rightMetricsKey = "=a-deva";
unicode = 0974;
script = devanagari;
category = Letter;
subCategory = Matra;
},
{
glyphname = "aaMatra-deva";
lastChange = "2020-11-26 21:43:25 +0000";
layers = (
{
anchors = (
{
name = bottom;
position = "{96, 0}";
},
{
name = candra;
position = "{-155, 630}";
},
{
name = top;
position = "{95, 630}";
}
);
guideLines = (
{
angle = 90;
position = "{95, 635}";
}
);
layerId = "EA4BDF10-EAD0-47D5-9AD5-B8C643A094C2";
paths = (
{
closed = 1;
nodes = (
"126 0 LINE",
"126 620 LINE",
"63 620 LINE",
"63 0 LINE"
);
},
{
closed = 1;
nodes = (
"224 567 LINE",
"224 630 LINE",
"-35 630 LINE",
"-35 567 LINE"
);
}
);
width = 189;
},
{
anchors = (
{
name = bottom;
position = "{137, 0}";
},
{
name = candra;
position = "{-193, 660}";
},
{
name = top;
position = "{137, 660}";
}
);
layerId = "5EDCAC97-4996-4925-B8D9-EA484E9BADFC";
paths = (
{
closed = 1;
nodes = (
"218 0 LINE",
"218 645 LINE",
"55 645 LINE",
"55 0 LINE"
);
},
{
closed = 1;
nodes = (
"309 547 LINE",
"309 660 LINE",
"-35 660 LINE",
"-35 547 LINE"
);
}
);
width = 274;
}
);
leftMetricsKey = "=-35";
rightMetricsKey = "=-35";
unicode = 093E;
script = devanagari;
category = Letter;
subCategory = Matra;
},
{
glyphname = "iMatra-deva";
lastChange = "2020-11-26 21:43:25 +0000";
layers = (
{
anchors = (
{
name = candra;
position = "{433, 713}";
},
{
name = imatra;
position = "{457, 630}";
},
{
name = top;
position = "{521, 680}";
}
);
background = {
anchors = (
{
name = candra;
position = "{1583, 684}";
},
{
name = imatra;
position = "{1617, 630}";
},
{
name = top;
position = "{1665, 650}";
}
);
components = (
{
name = "aaMatra-deva";
}
);
paths = (
{
closed = 1;
nodes = (
"1628 788 LINE",
"1303 870 OFFCURVE",
"878 930 OFFCURVE",
"608 930 CURVE",
"628 875 LINE",
"884 875 OFFCURVE",
"1307 810 OFFCURVE",
"1611 739 CURVE"
);
},
{
closed = 1;
nodes = (
"123 615 LINE",
"111 679 LINE",
"48 669 LINE",
"59 615 LINE"
);
},
{
closed = 1;
nodes = (
"111 679 LINE",
"93 779 OFFCURVE",
"139 875 OFFCURVE",
"628 875 CURVE",
"608 930 LINE",
"97 930 OFFCURVE",
"22 803 OFFCURVE",
"48 669 CURVE"
);
}
);
};
components = (
{
name = "aaMatra-deva";
}
);
layerId = "EA4BDF10-EAD0-47D5-9AD5-B8C643A094C2";
paths = (
{
closed = 1;
nodes = (
"450 763 LINE",
"399 868 OFFCURVE",
"316 930 OFFCURVE",
"198 930 CURVE",
"218 870 LINE",
"282 870 OFFCURVE",
"346 819 OFFCURVE",
"392 733 CURVE"
);
},
{
closed = 1;
nodes = (
"125 615 LINE",
"105 714 LINE",
"41 703 LINE",
"59 615 LINE"
);
},
{
closed = 1;
nodes = (
"105 714 LINE",
"89 804 OFFCURVE",
"117 870 OFFCURVE",
"218 870 CURVE",
"198 930 LINE",
"83 930 OFFCURVE",
"16 833 OFFCURVE",
"41 703 CURVE"
);
}
);
width = 190;
},
{
anchors = (
{
name = candra;
position = "{576, 790}";
},
{
name = imatra;
position = "{687, 660}";
},
{
name = top;
position = "{736, 800}";
}
);
background = {
anchors = (
{
name = candra;
position = "{2397, 736}";
},
{
name = imatra;
position = "{2487, 660}";
},
{
name = top;
position = "{2597, 668}";
}
);
components = (
{
name = "aaMatra-deva";
}
);
paths = (
{
closed = 1;
nodes = (
"2396 788 LINE",
"1947 895 OFFCURVE",
"1400 960 OFFCURVE",
"890 960 CURVE",
"920 840 LINE",
"1469 840 OFFCURVE",
"1926 774 OFFCURVE",
"2343 682 CURVE"
);
},
{
closed = 1;
nodes = (
"226 635 LINE",
"206 673 LINE",
"43 663 LINE",
"51 635 LINE"
);
},
{
closed = 1;
nodes = (
"206 673 LINE",
"156 784 OFFCURVE",
"229 840 OFFCURVE",
"920 840 CURVE",
"890 960 LINE",
"97 960 OFFCURVE",
"-7 843 OFFCURVE",
"43 663 CURVE"
);
}
);
};
components = (
{
name = "aaMatra-deva";
}
);
layerId = "5EDCAC97-4996-4925-B8D9-EA484E9BADFC";
paths = (
{
closed = 1;
nodes = (
"651 796 LINE",
"566 899 OFFCURVE",
"432 960 OFFCURVE",
"290 960 CURVE",
"300 830 LINE",
"393 830 OFFCURVE",
"476 787 OFFCURVE",
"524 713 CURVE"
);
},
{
closed = 1;
nodes = (
"226 635 LINE",
"206 673 LINE",
"43 663 LINE",
"51 635 LINE"
);
},
{
closed = 1;
nodes = (
"206 673 LINE",
"166 763 OFFCURVE",
"206 830 OFFCURVE",
"300 830 CURVE",
"290 960 LINE",
"102 960 OFFCURVE",
"-4 833 OFFCURVE",
"43 663 CURVE"
);
}
);
width = 272;
}
);
leftMetricsKey = "=aaMatra-deva";
unicode = 093F;
script = devanagari;
category = Letter;
subCategory = Matra;
},
{
glyphname = "iMatra_anusvara-deva";
lastChange = "2020-11-26 21:43:25 +0000";
layers = (
{
anchors = (
{
name = candra;
position = "{433, 713}";
},
{
name = imatra;
position = "{457, 630}";
},
{
name = top;
position = "{521, 680}";
}
);
background = {
anchors = (
{
name = candra;
position = "{1583, 684}";
},
{
name = imatra;
position = "{1617, 630}";
},
{
name = top;
position = "{1665, 650}";
}
);
components = (
{
name = "aaMatra-deva";
},
{
name = "anusvara-deva";
transform = "{1, 0, 0, 1, 1637, 162}";
}
);
paths = (
{
closed = 1;
nodes = (
"1628 788 LINE",
"1303 870 OFFCURVE",
"878 930 OFFCURVE",
"608 930 CURVE",
"628 875 LINE",
"884 875 OFFCURVE",
"1307 810 OFFCURVE",
"1611 739 CURVE"
);
},
{
closed = 1;
nodes = (
"123 615 LINE",
"111 679 LINE",
"48 669 LINE",
"59 615 LINE"
);
},
{
closed = 1;
nodes = (
"111 679 LINE",
"93 779 OFFCURVE",
"139 875 OFFCURVE",
"628 875 CURVE",
"608 930 LINE",
"97 930 OFFCURVE",
"22 803 OFFCURVE",
"48 669 CURVE"
);
}
);
};
components = (
{
name = "aaMatra-deva";
},
{
name = "anusvara-deva";
transform = "{1, 0, 0, 1, 477, 152}";
}
);
layerId = "EA4BDF10-EAD0-47D5-9AD5-B8C643A094C2";
paths = (
{
closed = 1;
nodes = (
"450 763 LINE",
"399 868 OFFCURVE",
"316 930 OFFCURVE",
"198 930 CURVE",
"218 870 LINE",
"282 870 OFFCURVE",
"346 819 OFFCURVE",
"392 733 CURVE"
);
},
{
closed = 1;
nodes = (
"125 615 LINE",
"105 714 LINE",
"41 703 LINE",
"59 615 LINE"
);
},
{
closed = 1;
nodes = (
"105 714 LINE",
"89 804 OFFCURVE",
"117 870 OFFCURVE",
"218 870 CURVE",
"198 930 LINE",
"83 930 OFFCURVE",
"16 833 OFFCURVE",
"41 703 CURVE"
);
}
);
width = 190;
},
{
anchors = (
{
name = candra;
position = "{576, 790}";
},
{
name = imatra;
position = "{687, 660}";
},
{
name = top;
position = "{736, 800}";
}
);
background = {
anchors = (
{
name = candra;
position = "{2397, 736}";
},
{
name = imatra;
position = "{2487, 660}";
},
{
name = top;
position = "{2597, 668}";
}
);
components = (
{
name = "aaMatra-deva";
},
{
name = "anusvara-deva";
transform = "{1, 0, 0, 1, 2427, 192}";
}
);
paths = (
{
closed = 1;
nodes = (
"2396 788 LINE",
"1947 895 OFFCURVE",
"1400 960 OFFCURVE",
"890 960 CURVE",
"920 840 LINE",
"1469 840 OFFCURVE",
"1926 774 OFFCURVE",
"2343 682 CURVE"
);
},
{
closed = 1;
nodes = (
"226 635 LINE",
"206 673 LINE",
"43 663 LINE",
"51 635 LINE"
);
},
{
closed = 1;
nodes = (
"206 673 LINE",
"156 784 OFFCURVE",
"229 840 OFFCURVE",
"920 840 CURVE",
"890 960 LINE",
"97 960 OFFCURVE",
"-7 843 OFFCURVE",
"43 663 CURVE"
);
}
);
};
components = (
{
name = "aaMatra-deva";
},
{
name = "anusvara-deva";
transform = "{1, 0, 0, 1, 707, 142}";
}
);
layerId = "5EDCAC97-4996-4925-B8D9-EA484E9BADFC";
paths = (
{
closed = 1;
nodes = (
"651 796 LINE",
"566 899 OFFCURVE",
"432 960 OFFCURVE",
"290 960 CURVE",
"300 830 LINE",
"393 830 OFFCURVE",
"476 787 OFFCURVE",
"524 713 CURVE"
);
},
{
closed = 1;
nodes = (
"226 635 LINE",
"206 673 LINE",
"43 663 LINE",
"51 635 LINE"
);
},
{
closed = 1;
nodes = (
"206 673 LINE",
"166 763 OFFCURVE",
"206 830 OFFCURVE",
"300 830 CURVE",
"290 960 LINE",
"102 960 OFFCURVE",
"-4 833 OFFCURVE",
"43 663 CURVE"
);
}
);
width = 272;
}
);
leftMetricsKey = "=aaMatra-deva";
},
{
glyphname = "iMatra_reph-deva";
lastChange = "2020-12-18 00:49:22 +0000";
layers = (
{
anchors = (
{
name = bottom;
position = "{96, 0}";
},
{
name = candra;
position = "{163, 876}";
},
{
name = imatra;
position = "{517, 580}";
},
{
name = top;
position = "{511, 680}";
}
);
background = {
anchors = (
{
name = bottom;
position = "{96, 0}";
},
{
name = candra;
position = "{1285, 807}";
},
{
name = imatra;
position = "{1667, 520}";
},
{
name = top;
position = "{1671, 630}";
}
);
components = (
{
name = "aaMatra-deva";
},
{
name = "reph-deva";
transform = "{1, 0, 0, 1, 1559, 109}";
}
);
paths = (
{
closed = 1;
nodes = (
"1628 788 LINE",
"1303 870 OFFCURVE",
"878 930 OFFCURVE",
"608 930 CURVE",
"628 875 LINE",
"884 875 OFFCURVE",
"1307 810 OFFCURVE",
"1611 739 CURVE"
);
},
{
closed = 1;
nodes = (
"123 615 LINE",
"111 679 LINE",
"48 669 LINE",
"59 615 LINE"
);
},
{
closed = 1;
nodes = (
"111 679 LINE",
"93 779 OFFCURVE",
"139 875 OFFCURVE",
"628 875 CURVE",
"608 930 LINE",
"97 930 OFFCURVE",
"22 803 OFFCURVE",
"48 669 CURVE"
);
}
);
};
components = (
{
name = "aaMatra-deva";
},
{
name = "reph-deva";
transform = "{1, 0, 0, 1, 340, 103}";
}
);
layerId = "EA4BDF10-EAD0-47D5-9AD5-B8C643A094C2";
paths = (
{
closed = 1;
nodes = (
"433 754 LINE",
"382 859 OFFCURVE",
"316 930 OFFCURVE",
"198 930 CURVE",
"218 870 LINE",
"282 870 OFFCURVE",
"346 819 OFFCURVE",
"392 733 CURVE"
);
},
{
closed = 1;
nodes = (
"125 615 LINE",
"105 714 LINE",
"41 703 LINE",
"59 615 LINE"
);
},
{
closed = 1;
nodes = (
"105 714 LINE",
"89 804 OFFCURVE",
"117 870 OFFCURVE",
"218 870 CURVE",
"198 930 LINE",
"83 930 OFFCURVE",
"16 833 OFFCURVE",
"41 703 CURVE"
);
}
);
width = 189;
},
{
anchors = (
{
name = bottom;
position = "{136, 0}";
},
{
name = candra;
position = "{264, 854}";
},
{
name = imatra;
position = "{657, 620}";
},
{
name = top;
position = "{791, 635}";
}
);
background = {
anchors = (
{
name = bottom;
position = "{136, 0}";
},
{
name = candra;
position = "{1943, 883}";
},
{
name = imatra;
position = "{2473, 560}";
},
{
name = top;
position = "{2640, 582}";
}
);
components = (
{
name = "aaMatra-deva";
},
{
name = "reph-deva";
transform = "{1, 0, 0, 1, 2289, 22}";
}
);
paths = (
{
closed = 1;
nodes = (
"2396 788 LINE",
"1947 895 OFFCURVE",
"1400 960 OFFCURVE",
"890 960 CURVE",
"920 840 LINE",
"1469 840 OFFCURVE",
"1926 774 OFFCURVE",
"2343 682 CURVE"
);
},
{
closed = 1;
nodes = (
"226 635 LINE",
"206 673 LINE",
"43 663 LINE",
"51 635 LINE"
);
},
{
closed = 1;
nodes = (
"206 673 LINE",
"156 784 OFFCURVE",
"229 840 OFFCURVE",
"920 840 CURVE",
"890 960 LINE",
"97 960 OFFCURVE",
"-7 843 OFFCURVE",
"43 663 CURVE"
);
}
);
};
components = (
{
name = "aaMatra-deva";
},
{
name = "reph-deva";
transform = "{1, 0, 0, 1, 468, 53}";
}
);
layerId = "5EDCAC97-4996-4925-B8D9-EA484E9BADFC";
paths = (
{
closed = 1;
nodes = (
"632 783 LINE",
"547 886 OFFCURVE",
"432 960 OFFCURVE",
"290 960 CURVE",
"300 830 LINE",
"393 830 OFFCURVE",
"476 787 OFFCURVE",
"524 713 CURVE"
);
},
{
closed = 1;
nodes = (
"226 635 LINE",
"206 673 LINE",
"43 663 LINE",
"51 635 LINE"
);
},
{
closed = 1;
nodes = (
"206 673 LINE",
"166 763 OFFCURVE",
"206 830 OFFCURVE",
"300 830 CURVE",
"290 960 LINE",
"102 960 OFFCURVE",
"-4 833 OFFCURVE",
"43 663 CURVE"
);
}
);
width = 274;
}
);
script = devanagari;
category = Letter;
subCategory = Matra;
},
{
glyphname = "iMatra_reph_anusvara-deva";
lastChange = "2020-12-18 00:52:14 +0000";
layers = (
{
anchors = (
{
name = bottom;
position = "{96, 0}";
},
{
name = candra;
position = "{163, 876}";
},
{
name = imatra;
position = "{517, 580}";
},
{
name = top;
position = "{511, 680}";
}
);
background = {
anchors = (
{
name = bottom;
position = "{96, 0}";
},
{
name = candra;
position = "{1285, 807}";
},
{
name = imatra;
position = "{1667, 520}";
},
{
name = top;
position = "{1671, 630}";
}
);
components = (
{
name = "aaMatra-deva";
},
{
name = period;
transform = "{1.0491, 0, 0, 1.0491, 1633, 794}";
},
{
name = "reph-deva";
transform = "{1, 0, 0, 1, 1559, 109}";
}
);
paths = (
{
closed = 1;
nodes = (
"1628 788 LINE",
"1303 870 OFFCURVE",
"878 930 OFFCURVE",
"608 930 CURVE",
"628 875 LINE",
"884 875 OFFCURVE",
"1307 810 OFFCURVE",
"1611 739 CURVE"
);
},
{
closed = 1;
nodes = (
"123 615 LINE",
"111 679 LINE",
"48 669 LINE",
"59 615 LINE"
);
},
{
closed = 1;
nodes = (
"111 679 LINE",
"93 779 OFFCURVE",
"139 875 OFFCURVE",
"628 875 CURVE",
"608 930 LINE",
"97 930 OFFCURVE",
"22 803 OFFCURVE",
"48 669 CURVE"
);
}
);
};
components = (
{
name = "aaMatra-deva";
},
{
name = period;
transform = "{1.0491, 0, 0, 1.0491, 414, 788}";
},
{
name = "reph-deva";
transform = "{1, 0, 0, 1, 340, 103}";
}
);
layerId = "EA4BDF10-EAD0-47D5-9AD5-B8C643A094C2";
paths = (
{
closed = 1;
nodes = (
"440 758 LINE",
"389 863 OFFCURVE",
"316 930 OFFCURVE",
"198 930 CURVE",
"218 870 LINE",
"282 870 OFFCURVE",
"346 819 OFFCURVE",
"392 733 CURVE"
);
},
{
closed = 1;
nodes = (
"125 615 LINE",
"105 714 LINE",
"41 703 LINE",
"59 615 LINE"
);
},
{
closed = 1;
nodes = (
"105 714 LINE",
"89 804 OFFCURVE",
"117 870 OFFCURVE",
"218 870 CURVE",
"198 930 LINE",
"83 930 OFFCURVE",
"16 833 OFFCURVE",
"41 703 CURVE"
);
}
);
width = 189;
},
{
anchors = (
{
name = bottom;
position = "{136, 0}";
},
{
name = candra;
position = "{264, 854}";
},
{
name = imatra;
position = "{657, 620}";
},
{
name = top;
position = "{791, 635}";
}
);
background = {
anchors = (
{
name = bottom;
position = "{136, 0}";
},
{
name = candra;
position = "{1943, 883}";
},
{
name = imatra;
position = "{2473, 560}";
},
{
name = top;
position = "{2640, 582}";
}
);
components = (
{
name = "aaMatra-deva";
},
{
name = period;
transform = "{0.9, 0, 0, 0.9, 2459, 731}";
},
{
name = "reph-deva";
transform = "{1, 0, 0, 1, 2288, 22}";
}
);
paths = (
{
closed = 1;
nodes = (
"2396 788 LINE",
"1947 895 OFFCURVE",
"1400 960 OFFCURVE",
"890 960 CURVE",
"920 840 LINE",
"1469 840 OFFCURVE",
"1926 774 OFFCURVE",
"2343 682 CURVE"
);
},
{
closed = 1;
nodes = (
"226 635 LINE",
"206 673 LINE",
"43 663 LINE",
"51 635 LINE"
);
},
{
closed = 1;
nodes = (
"206 673 LINE",
"156 784 OFFCURVE",
"229 840 OFFCURVE",
"920 840 CURVE",
"890 960 LINE",
"97 960 OFFCURVE",
"-7 843 OFFCURVE",
"43 663 CURVE"
);
}
);
};
components = (
{
name = "aaMatra-deva";
},
{
name = period;
transform = "{0.9, 0, 0, 0.9, 639, 762}";
},
{
name = "reph-deva";
transform = "{1, 0, 0, 1, 468, 53}";
}
);
layerId = "5EDCAC97-4996-4925-B8D9-EA484E9BADFC";
paths = (
{
closed = 1;
nodes = (
"627 780 LINE",
"542 883 OFFCURVE",
"432 960 OFFCURVE",
"290 960 CURVE",
"300 830 LINE",
"393 830 OFFCURVE",
"476 787 OFFCURVE",
"524 713 CURVE"
);
},
{
closed = 1;
nodes = (
"226 635 LINE",
"206 673 LINE",
"43 663 LINE",
"51 635 LINE"
);
},
{
closed = 1;
nodes = (
"206 673 LINE",
"166 763 OFFCURVE",
"206 830 OFFCURVE",
"300 830 CURVE",
"290 960 LINE",
"102 960 OFFCURVE",
"-4 833 OFFCURVE",
"43 663 CURVE"
);
}
);
width = 274;
}
);
script = devanagari;
category = Letter;
subCategory = Matra;
},
{
glyphname = "iiMatra-deva";
lastChange = "2020-11-26 21:43:25 +0000";
layers = (
{
anchors = (
{
name = candra;
position = "{116, 630}";
},
{
name = iimatra;
position = "{-122, 630}";
},
{
name = top;
position = "{185, 630}";
}
);
background = {
anchors = (
{
name = candra;
position = "{95, 630}";
},
{
name = iimatra;
position = "{-322, 630}";
},
{
name = top;
position = "{105, 630}";
}
);
components = (
{
name = "aaMatra-deva";
}
);
paths = (
{
closed = 1;
nodes = (
"112 713 LINE",
"94 849 OFFCURVE",
"4 930 OFFCURVE",
"-148 930 CURVE",
"-138 870 LINE",
"-31 870 OFFCURVE",
"36 808 OFFCURVE",
"50 703 CURVE"
);
},
{
closed = 1;
nodes = (
"-299 734 LINE",
"-314 823 OFFCURVE",
"-250 870 OFFCURVE",
"-138 870 CURVE",
"-148 930 LINE",
"-294 930 OFFCURVE",
"-386 841 OFFCURVE",
"-362 723 CURVE"
);
},
{
closed = 1;
nodes = (
"126 605 LINE",
"112 713 LINE",
"50 703 LINE",
"63 605 LINE"
);
}
);
};
components = (
{
name = "aaMatra-deva";
}
);
layerId = "EA4BDF10-EAD0-47D5-9AD5-B8C643A094C2";
paths = (
{
closed = 1;
nodes = (
"110 714 LINE",
"91 850 OFFCURVE",
"35 930 OFFCURVE",
"-65 930 CURVE",
"-55 870 LINE",
"-11 870 OFFCURVE",
"28 812 OFFCURVE",
"46 703 CURVE"
);
},
{
closed = 1;
nodes = (
"-115 732 LINE",
"-132 810 OFFCURVE",
"-114 870 OFFCURVE",
"-55 870 CURVE",
"-65 930 LINE",
"-152 930 OFFCURVE",
"-198 841 OFFCURVE",
"-174 723 CURVE"
);
},
{
closed = 1;
nodes = (
"125 615 LINE",
"110 714 LINE",
"46 703 LINE",
"59 615 LINE"
);
}
);
width = 189;
},
{
anchors = (
{
name = candra;
position = "{116, 660}";
},
{
name = iimatra;
position = "{-132, 660}";
},
{
name = top;
position = "{337, 657}";
}
);
background = {
anchors = (
{
name = candra;
position = "{136, 660}";
},
{
name = iimatra;
position = "{-372, 660}";
},
{
name = top;
position = "{136, 660}";
}
);
components = (
{
name = "aaMatra-deva";
}
);
paths = (
{
closed = 1;
nodes = (
"208 713 LINE",
"194 868 OFFCURVE",
"65 960 OFFCURVE",
"-138 960 CURVE",
"-128 840 LINE",
"-31 840 OFFCURVE",
"33 785 OFFCURVE",
"45 693 CURVE"
);
},
{
closed = 1;
nodes = (
"-269 703 LINE",
"-290 781 OFFCURVE",
"-230 840 OFFCURVE",
"-128 840 CURVE",
"-138 960 LINE",
"-336 960 OFFCURVE",
"-462 841 OFFCURVE",
"-432 683 CURVE"
);
},
{
closed = 1;
nodes = (
"216 615 LINE",
"208 713 LINE",
"45 693 LINE",
"53 615 LINE"
);
}
);
};
components = (
{
name = "aaMatra-deva";
}
);
layerId = "5EDCAC97-4996-4925-B8D9-EA484E9BADFC";
paths = (
{
closed = 1;
nodes = (
"206 733 LINE",
"193 876 OFFCURVE",
"102 960 OFFCURVE",
"-38 960 CURVE",
"-28 840 LINE",
"7 840 OFFCURVE",
"33 793 OFFCURVE",
"43 713 CURVE"
);
},
{
closed = 1;
nodes = (
"-69 713 LINE",
"-89 786 OFFCURVE",
"-71 840 OFFCURVE",
"-28 840 CURVE",
"-38 960 LINE",
"-178 960 OFFCURVE",
"-261 846 OFFCURVE",
"-232 693 CURVE"
);
},
{
closed = 1;
nodes = (
"216 615 LINE",
"206 733 LINE",
"43 713 LINE",
"53 615 LINE"
);
}
);
width = 274;
}
);
rightMetricsKey = "=aaMatra-deva";
unicode = 0940;
script = devanagari;
category = Letter;
subCategory = Matra;
},
{
glyphname = "iiMatra_anusvara-deva";
lastChange = "2020-11-26 21:43:25 +0000";
layers = (
{
anchors = (
{
name = bottom;
position = "{96, 0}";
},
{
name = candra;
position = "{116, 630}";
},
{
name = iimatra;
position = "{-122, 630}";
},
{
name = top;
position = "{215, 630}";
}
);
background = {
anchors = (
{
name = bottom;
position = "{96, 0}";
},
{
name = candra;
position = "{95, 630}";
},
{
name = iimatra;
position = "{-322, 630}";
},
{
name = top;
position = "{105, 630}";
}
);
components = (
{
name = "aaMatra-deva";
},
{
name = "anusvara-deva";
transform = "{1, 0, 0, 1, 183, 60}";
}
);
paths = (
{
closed = 1;
nodes = (
"112 713 LINE",
"94 849 OFFCURVE",
"4 930 OFFCURVE",
"-148 930 CURVE",
"-138 870 LINE",
"-31 870 OFFCURVE",
"36 808 OFFCURVE",
"50 703 CURVE"
);
},
{
closed = 1;
nodes = (
"-299 734 LINE",
"-314 823 OFFCURVE",
"-250 870 OFFCURVE",
"-138 870 CURVE",
"-148 930 LINE",
"-294 930 OFFCURVE",
"-386 841 OFFCURVE",
"-362 723 CURVE"
);
},
{
closed = 1;
nodes = (
"126 605 LINE",
"112 713 LINE",
"50 703 LINE",
"63 605 LINE"
);
}
);
};
components = (
{
name = "aaMatra-deva";
},
{
name = "anusvara-deva";
transform = "{1, 0, 0, 1, 183, 60}";
}
);
layerId = "EA4BDF10-EAD0-47D5-9AD5-B8C643A094C2";
paths = (
{
closed = 1;
nodes = (
"110 714 LINE",
"91 850 OFFCURVE",
"35 930 OFFCURVE",
"-65 930 CURVE",
"-55 870 LINE",
"-11 870 OFFCURVE",
"28 812 OFFCURVE",
"46 703 CURVE"
);
},
{
closed = 1;
nodes = (
"-115 732 LINE",
"-132 810 OFFCURVE",
"-114 870 OFFCURVE",
"-55 870 CURVE",
"-65 930 LINE",
"-152 930 OFFCURVE",
"-198 841 OFFCURVE",
"-174 723 CURVE"
);
},
{
closed = 1;
nodes = (
"125 615 LINE",
"110 714 LINE",
"46 703 LINE",
"59 615 LINE"
);
}
);
width = 190;
},
{
anchors = (
{
name = bottom;
position = "{136, 0}";
},
{
name = candra;
position = "{116, 660}";
},
{
name = iimatra;
position = "{-132, 660}";
},
{
name = top;
position = "{336, 660}";
}
);
background = {
anchors = (
{
name = bottom;
position = "{136, 0}";
},
{
name = candra;
position = "{136, 660}";
},
{
name = iimatra;
position = "{-372, 660}";
},
{
name = top;
position = "{136, 660}";
}
);
components = (
{
name = "aaMatra-deva";
},
{
name = "anusvara-deva";
transform = "{1, 0, 0, 1, 266, 110}";
}
);
paths = (
{
closed = 1;
nodes = (
"208 713 LINE",
"194 868 OFFCURVE",
"65 960 OFFCURVE",
"-138 960 CURVE",
"-128 840 LINE",
"-31 840 OFFCURVE",
"33 785 OFFCURVE",
"45 693 CURVE"
);
},
{
closed = 1;
nodes = (
"-269 703 LINE",
"-290 781 OFFCURVE",
"-230 840 OFFCURVE",
"-128 840 CURVE",
"-138 960 LINE",
"-336 960 OFFCURVE",
"-462 841 OFFCURVE",
"-432 683 CURVE"
);
},
{
closed = 1;
nodes = (
"216 615 LINE",
"208 713 LINE",
"45 693 LINE",
"53 615 LINE"
);
}
);
};
components = (
{
name = "aaMatra-deva";
},
{
name = "anusvara-deva";
transform = "{1, 0, 0, 1, 266, 110}";
}
);
layerId = "5EDCAC97-4996-4925-B8D9-EA484E9BADFC";
paths = (
{
closed = 1;
nodes = (
"206 733 LINE",
"193 876 OFFCURVE",
"102 960 OFFCURVE",
"-38 960 CURVE",
"-28 840 LINE",
"7 840 OFFCURVE",
"33 793 OFFCURVE",
"43 713 CURVE"
);
},
{
closed = 1;
nodes = (
"-69 713 LINE",
"-89 786 OFFCURVE",
"-71 840 OFFCURVE",
"-28 840 CURVE",
"-38 960 LINE",
"-178 960 OFFCURVE",
"-261 846 OFFCURVE",
"-232 693 CURVE"
);
},
{
closed = 1;
nodes = (
"216 615 LINE",
"206 733 LINE",
"43 713 LINE",
"53 615 LINE"
);
}
);
width = 272;
}
);
},
{
glyphname = "iiMatra_reph-deva";
lastChange = "2020-12-18 01:01:09 +0000";
layers = (
{
anchors = (
{
name = bottom;
position = "{96, 0}";
},
{
name = candra;
position = "{116, 630}";
},
{
name = iimatra;
position = "{-122, 630}";
},
{
name = top;
position = "{185, 630}";
}
);
background = {
anchors = (
{
name = bottom;
position = "{96, 0}";
},
{
name = candra;
position = "{116, 630}";
},
{
name = iimatra;
position = "{-302, 630}";
},
{
name = top;
position = "{185, 630}";
}
);
components = (
{
name = "aaMatra-deva";
},
{
name = "reph-deva";
transform = "{0.86603, -0.5, 0.5, 0.86603, -297, 157}";
}
);
paths = (
{
closed = 1;
nodes = (
"112 713 LINE",
"94 849 OFFCURVE",
"4 930 OFFCURVE",
"-148 930 CURVE",
"-138 870 LINE",
"-31 870 OFFCURVE",
"36 808 OFFCURVE",
"50 703 CURVE"
);
},
{
closed = 1;
nodes = (
"-299 734 LINE",
"-314 823 OFFCURVE",
"-250 870 OFFCURVE",
"-138 870 CURVE",
"-148 930 LINE",
"-294 930 OFFCURVE",
"-386 841 OFFCURVE",
"-362 723 CURVE"
);
},
{
closed = 1;
nodes = (
"126 605 LINE",
"112 713 LINE",
"50 703 LINE",
"63 605 LINE"
);
}
);
};
components = (
{
name = "aaMatra-deva";
},
{
name = "reph-deva";
transform = "{0.86603, -0.5, 0.5, 0.86603, -297, 157}";
}
);
layerId = "EA4BDF10-EAD0-47D5-9AD5-B8C643A094C2";
paths = (
{
closed = 1;
nodes = (
"110 714 LINE",
"91 850 OFFCURVE",
"35 930 OFFCURVE",
"-65 930 CURVE",
"-55 870 LINE",
"-11 870 OFFCURVE",
"28 812 OFFCURVE",
"46 703 CURVE"
);
},
{
closed = 1;
nodes = (
"-115 732 LINE",
"-132 810 OFFCURVE",
"-114 870 OFFCURVE",
"-55 870 CURVE",
"-65 930 LINE",
"-152 930 OFFCURVE",
"-198 841 OFFCURVE",
"-174 723 CURVE"
);
},
{
closed = 1;
nodes = (
"125 615 LINE",
"110 714 LINE",
"46 703 LINE",
"59 615 LINE"
);
}
);
width = 189;
},
{
anchors = (
{
name = bottom;
position = "{137, 0}";
},
{
name = candra;
position = "{116, 660}";
},
{
name = iimatra;
position = "{-132, 660}";
},
{
name = top;
position = "{337, 657}";
}
);
background = {
anchors = (
{
name = bottom;
position = "{137, 0}";
},
{
name = candra;
position = "{116, 660}";
},
{
name = iimatra;
position = "{-332, 660}";
},
{
name = top;
position = "{337, 657}";
}
);
components = (
{
name = "aaMatra-deva";
},
{
alignment = -1;
name = "reph-deva";
transform = "{0.86603, -0.5, 0.5, 0.86603, -299, 158}";
}
);
paths = (
{
closed = 1;
nodes = (
"208 713 LINE",
"194 868 OFFCURVE",
"65 960 OFFCURVE",
"-138 960 CURVE",
"-128 840 LINE",
"-31 840 OFFCURVE",
"33 785 OFFCURVE",
"45 693 CURVE"
);
},
{
closed = 1;
nodes = (
"-269 703 LINE",
"-290 781 OFFCURVE",
"-230 840 OFFCURVE",
"-128 840 CURVE",
"-138 960 LINE",
"-336 960 OFFCURVE",
"-462 841 OFFCURVE",
"-432 683 CURVE"
);
},
{
closed = 1;
nodes = (
"216 615 LINE",
"208 713 LINE",
"45 693 LINE",
"53 615 LINE"
);
}
);
};
components = (
{
name = "aaMatra-deva";
},
{
alignment = -1;
name = "reph-deva";
transform = "{0.86603, -0.5, 0.5, 0.86603, -299, 158}";
}
);
layerId = "5EDCAC97-4996-4925-B8D9-EA484E9BADFC";
paths = (
{
closed = 1;
nodes = (
"206 733 LINE",
"193 876 OFFCURVE",
"102 960 OFFCURVE",
"-38 960 CURVE",
"-28 840 LINE",
"7 840 OFFCURVE",
"33 793 OFFCURVE",
"43 713 CURVE"
);
},
{
closed = 1;
nodes = (
"-69 713 LINE",
"-89 786 OFFCURVE",
"-71 840 OFFCURVE",
"-28 840 CURVE",
"-38 960 LINE",
"-178 960 OFFCURVE",
"-261 846 OFFCURVE",
"-232 693 CURVE"
);
},
{
closed = 1;
nodes = (
"216 615 LINE",
"206 733 LINE",
"43 713 LINE",
"53 615 LINE"
);
}
);
width = 274;
}
);
},
{
glyphname = "iiMatra_reph_anusvara-deva";
lastChange = "2020-12-18 01:02:11 +0000";
layers = (
{
anchors = (
{
name = bottom;
position = "{96, 0}";
},
{
name = candra;
position = "{116, 630}";
},
{
name = iimatra;
position = "{-122, 630}";
},
{
name = top;
position = "{185, 630}";
}
);
background = {
anchors = (
{
name = bottom;
position = "{96, 0}";
},
{
name = candra;
position = "{116, 630}";
},
{
name = iimatra;
position = "{-322, 630}";
},
{
name = top;
position = "{185, 630}";
}
);
components = (
{
name = "aaMatra-deva";
},
{
name = "reph-deva";
transform = "{0.86603, -0.5, 0.5, 0.86603, -297, 157}";
},
{
name = period;
transform = "{1.0491, 0, 0, 1.0491, 130, 670}";
}
);
paths = (
{
closed = 1;
nodes = (
"112 713 LINE",
"94 849 OFFCURVE",
"4 930 OFFCURVE",
"-148 930 CURVE",
"-138 870 LINE",
"-31 870 OFFCURVE",
"36 808 OFFCURVE",
"50 703 CURVE"
);
},
{
closed = 1;
nodes = (
"-299 734 LINE",
"-314 823 OFFCURVE",
"-250 870 OFFCURVE",
"-138 870 CURVE",
"-148 930 LINE",
"-294 930 OFFCURVE",
"-386 841 OFFCURVE",
"-362 723 CURVE"
);
},
{
closed = 1;
nodes = (
"126 605 LINE",
"112 713 LINE",
"50 703 LINE",
"63 605 LINE"
);
}
);
};
components = (
{
name = "aaMatra-deva";
},
{
name = "reph-deva";
transform = "{0.86603, -0.5, 0.5, 0.86603, -297, 157}";
},
{
name = period;
transform = "{1.0491, 0, 0, 1.0491, 130, 670}";
}
);
layerId = "EA4BDF10-EAD0-47D5-9AD5-B8C643A094C2";
paths = (
{
closed = 1;
nodes = (
"110 714 LINE",
"91 850 OFFCURVE",
"35 930 OFFCURVE",
"-65 930 CURVE",
"-55 870 LINE",
"-11 870 OFFCURVE",
"28 812 OFFCURVE",
"46 703 CURVE"
);
},
{
closed = 1;
nodes = (
"-115 732 LINE",
"-132 810 OFFCURVE",
"-114 870 OFFCURVE",
"-55 870 CURVE",
"-65 930 LINE",
"-152 930 OFFCURVE",
"-198 841 OFFCURVE",
"-174 723 CURVE"
);
},
{
closed = 1;
nodes = (
"125 615 LINE",
"110 714 LINE",
"46 703 LINE",
"59 615 LINE"
);
}
);
width = 189;
},
{
anchors = (
{
name = bottom;
position = "{137, 0}";
},
{
name = candra;
position = "{116, 660}";
},
{
name = iimatra;
position = "{-132, 660}";
},
{
name = top;
position = "{337, 657}";
}
);
background = {
anchors = (
{
name = bottom;
position = "{137, 0}";
},
{
name = candra;
position = "{116, 660}";
},
{
name = iimatra;
position = "{-332, 660}";
},
{
name = top;
position = "{337, 657}";
}
);
components = (
{
name = "aaMatra-deva";
},
{
alignment = -1;
name = "reph-deva";
transform = "{0.86603, -0.5, 0.5, 0.86603, -308, 208}";
},
{
name = period;
transform = "{0.9, 0, 0, 0.9, 204, 686}";
}
);
paths = (
{
closed = 1;
nodes = (
"208 713 LINE",
"194 868 OFFCURVE",
"65 960 OFFCURVE",
"-138 960 CURVE",
"-128 840 LINE",
"-31 840 OFFCURVE",
"33 785 OFFCURVE",
"45 693 CURVE"
);
},
{
closed = 1;
nodes = (
"-269 703 LINE",
"-290 781 OFFCURVE",
"-230 840 OFFCURVE",
"-128 840 CURVE",
"-138 960 LINE",
"-336 960 OFFCURVE",
"-462 841 OFFCURVE",
"-432 683 CURVE"
);
},
{
closed = 1;
nodes = (
"216 615 LINE",
"208 713 LINE",
"45 693 LINE",
"53 615 LINE"
);
}
);
};
components = (
{
name = "aaMatra-deva";
},
{
alignment = -1;
name = "reph-deva";
transform = "{0.86603, -0.5, 0.5, 0.86603, -308, 208}";
},
{
name = period;
transform = "{0.9, 0, 0, 0.9, 204, 686}";
}
);
layerId = "5EDCAC97-4996-4925-B8D9-EA484E9BADFC";
paths = (
{
closed = 1;
nodes = (
"206 733 LINE",
"193 876 OFFCURVE",
"102 960 OFFCURVE",
"-38 960 CURVE",
"-28 840 LINE",
"7 840 OFFCURVE",
"33 793 OFFCURVE",
"43 713 CURVE"
);
},
{
closed = 1;
nodes = (
"-69 713 LINE",
"-89 786 OFFCURVE",
"-71 840 OFFCURVE",
"-28 840 CURVE",
"-38 960 LINE",
"-178 960 OFFCURVE",
"-261 846 OFFCURVE",
"-232 693 CURVE"
);
},
{
closed = 1;
nodes = (
"216 615 LINE",
"206 733 LINE",
"43 713 LINE",
"53 615 LINE"
);
}
);
width = 274;
}
);
script = devanagari;
category = Letter;
subCategory = Matra;
},
{
glyphname = "iMatra-deva.00";
lastChange = "2020-11-26 21:43:25 +0000";
layers = (
{
anchors = (
{
name = candra;
position = "{433, 713}";
},
{
name = imatra;
position = "{457, 630}";
},
{
name = top;
position = "{521, 680}";
}
);
components = (
{
name = "aaMatra-deva";
}
);
layerId = "EA4BDF10-EAD0-47D5-9AD5-B8C643A094C2";
paths = (
{
closed = 1;
nodes = (
"450 763 LINE",
"399 868 OFFCURVE",
"316 930 OFFCURVE",
"198 930 CURVE",
"218 870 LINE",
"282 870 OFFCURVE",
"346 819 OFFCURVE",
"392 733 CURVE"
);
},
{
closed = 1;
nodes = (
"125 615 LINE",
"105 714 LINE",
"41 703 LINE",
"59 615 LINE"
);
},
{
closed = 1;
nodes = (
"105 714 LINE",
"89 804 OFFCURVE",
"117 870 OFFCURVE",
"218 870 CURVE",
"198 930 LINE",
"83 930 OFFCURVE",
"16 833 OFFCURVE",
"41 703 CURVE"
);
}
);
width = 190;
},
{
anchors = (
{
name = candra;
position = "{576, 790}";
},
{
name = imatra;
position = "{687, 660}";
},
{
name = top;
position = "{736, 800}";
}
);
components = (
{
name = "aaMatra-deva";
}
);
layerId = "5EDCAC97-4996-4925-B8D9-EA484E9BADFC";
paths = (
{
closed = 1;
nodes = (
"651 796 LINE",
"566 899 OFFCURVE",
"432 960 OFFCURVE",
"290 960 CURVE",
"300 830 LINE",
"393 830 OFFCURVE",
"476 787 OFFCURVE",
"524 713 CURVE"
);
},
{
closed = 1;
nodes = (
"226 635 LINE",
"206 673 LINE",
"43 663 LINE",
"51 635 LINE"
);
},
{
closed = 1;
nodes = (
"206 673 LINE",
"166 763 OFFCURVE",
"206 830 OFFCURVE",
"300 830 CURVE",
"290 960 LINE",
"102 960 OFFCURVE",
"-4 833 OFFCURVE",
"43 663 CURVE"
);
}
);
width = 272;
}
);
leftMetricsKey = "=aaMatra-deva";
script = devanagari;
category = Letter;
subCategory = Matra;
},
{
glyphname = "iMatra_anusvara-deva.00";
lastChange = "2020-11-26 21:43:25 +0000";
layers = (
{
anchors = (
{
name = candra;
position = "{433, 713}";
},
{
name = imatra;
position = "{457, 630}";
},
{
name = top;
position = "{521, 680}";
}
);
components = (
{
name = "aaMatra-deva";
},
{
name = "anusvara-deva";
transform = "{1, 0, 0, 1, 477, 152}";
}
);
layerId = "EA4BDF10-EAD0-47D5-9AD5-B8C643A094C2";
paths = (
{
closed = 1;
nodes = (
"450 763 LINE",
"399 868 OFFCURVE",
"316 930 OFFCURVE",
"198 930 CURVE",
"218 870 LINE",
"282 870 OFFCURVE",
"346 819 OFFCURVE",
"392 733 CURVE"
);
},
{
closed = 1;
nodes = (
"125 615 LINE",
"105 714 LINE",
"41 703 LINE",
"59 615 LINE"
);
},
{
closed = 1;
nodes = (
"105 714 LINE",
"89 804 OFFCURVE",
"117 870 OFFCURVE",
"218 870 CURVE",
"198 930 LINE",
"83 930 OFFCURVE",
"16 833 OFFCURVE",
"41 703 CURVE"
);
}
);
width = 190;
},
{
anchors = (
{
name = candra;
position = "{576, 790}";
},
{
name = imatra;
position = "{687, 660}";
},
{
name = top;
position = "{736, 800}";
}
);
components = (
{
name = "aaMatra-deva";
},
{
name = "anusvara-deva";
transform = "{1, 0, 0, 1, 707, 142}";
}
);
layerId = "5EDCAC97-4996-4925-B8D9-EA484E9BADFC";
paths = (
{
closed = 1;
nodes = (
"651 796 LINE",
"566 899 OFFCURVE",
"432 960 OFFCURVE",
"290 960 CURVE",
"300 830 LINE",
"393 830 OFFCURVE",
"476 787 OFFCURVE",
"524 713 CURVE"
);
},
{
closed = 1;
nodes = (
"226 635 LINE",
"206 673 LINE",
"43 663 LINE",
"51 635 LINE"
);
},
{
closed = 1;
nodes = (
"206 673 LINE",
"166 763 OFFCURVE",
"206 830 OFFCURVE",
"300 830 CURVE",
"290 960 LINE",
"102 960 OFFCURVE",
"-4 833 OFFCURVE",
"43 663 CURVE"
);
}
);
width = 272;
}
);
leftMetricsKey = "=aaMatra-deva";
},
{
glyphname = "iMatra_reph-deva.00";
lastChange = "2020-12-18 00:49:30 +0000";
layers = (
{
anchors = (
{
name = bottom;
position = "{96, 0}";
},
{
name = candra;
position = "{163, 876}";
},
{
name = imatra;
position = "{517, 580}";
},
{
name = top;
position = "{511, 680}";
}
);
components = (
{
name = "aaMatra-deva";
},
{
name = "reph-deva";
transform = "{1, 0, 0, 1, 340, 103}";
}
);
layerId = "EA4BDF10-EAD0-47D5-9AD5-B8C643A094C2";
paths = (
{
closed = 1;
nodes = (
"433 754 LINE",
"382 859 OFFCURVE",
"316 930 OFFCURVE",
"198 930 CURVE",
"218 870 LINE",
"282 870 OFFCURVE",
"346 819 OFFCURVE",
"392 733 CURVE"
);
},
{
closed = 1;
nodes = (
"125 615 LINE",
"105 714 LINE",
"41 703 LINE",
"59 615 LINE"
);
},
{
closed = 1;
nodes = (
"105 714 LINE",
"89 804 OFFCURVE",
"117 870 OFFCURVE",
"218 870 CURVE",
"198 930 LINE",
"83 930 OFFCURVE",
"16 833 OFFCURVE",
"41 703 CURVE"
);
}
);
width = 189;
},
{
anchors = (
{
name = bottom;
position = "{136, 0}";
},
{
name = candra;
position = "{264, 854}";
},
{
name = imatra;
position = "{657, 620}";
},
{
name = top;
position = "{791, 635}";
}
);
components = (
{
name = "aaMatra-deva";
},
{
name = "reph-deva";
transform = "{1, 0, 0, 1, 468, 53}";
}
);
layerId = "5EDCAC97-4996-4925-B8D9-EA484E9BADFC";
paths = (
{
closed = 1;
nodes = (
"632 783 LINE",
"547 886 OFFCURVE",
"432 960 OFFCURVE",
"290 960 CURVE",
"300 830 LINE",
"393 830 OFFCURVE",
"476 787 OFFCURVE",
"524 713 CURVE"
);
},
{
closed = 1;
nodes = (
"226 635 LINE",
"206 673 LINE",
"43 663 LINE",
"51 635 LINE"
);
},
{
closed = 1;
nodes = (
"206 673 LINE",
"166 763 OFFCURVE",
"206 830 OFFCURVE",
"300 830 CURVE",
"290 960 LINE",
"102 960 OFFCURVE",
"-4 833 OFFCURVE",
"43 663 CURVE"
);
}
);
width = 274;
}
);
script = devanagari;
category = Letter;
subCategory = Matra;
},
{
glyphname = "iMatra_reph_anusvara-deva.00";
lastChange = "2020-12-18 00:52:36 +0000";
layers = (
{
anchors = (
{
name = bottom;
position = "{96, 0}";
},
{
name = candra;
position = "{163, 876}";
},
{
name = imatra;
position = "{517, 580}";
},
{
name = top;
position = "{511, 680}";
}
);
components = (
{
name = "aaMatra-deva";
},
{
name = period;
transform = "{1.10061, 0, 0, 1.10061, 414, 788}";
},
{
name = "reph-deva";
transform = "{1, 0, 0, 1, 340, 103}";
}
);
layerId = "EA4BDF10-EAD0-47D5-9AD5-B8C643A094C2";
paths = (
{
closed = 1;
nodes = (
"440 758 LINE",
"389 863 OFFCURVE",
"316 930 OFFCURVE",
"198 930 CURVE",
"218 870 LINE",
"282 870 OFFCURVE",
"346 819 OFFCURVE",
"392 733 CURVE"
);
},
{
closed = 1;
nodes = (
"125 615 LINE",
"105 714 LINE",
"41 703 LINE",
"59 615 LINE"
);
},
{
closed = 1;
nodes = (
"105 714 LINE",
"89 804 OFFCURVE",
"117 870 OFFCURVE",
"218 870 CURVE",
"198 930 LINE",
"83 930 OFFCURVE",
"16 833 OFFCURVE",
"41 703 CURVE"
);
}
);
width = 189;
},
{
anchors = (
{
name = bottom;
position = "{136, 0}";
},
{
name = candra;
position = "{264, 854}";
},
{
name = imatra;
position = "{657, 620}";
},
{
name = top;
position = "{791, 635}";
}
);
components = (
{
name = "aaMatra-deva";
},
{
name = period;
transform = "{0.81, 0, 0, 0.81, 639, 762}";
},
{
name = "reph-deva";
transform = "{1, 0, 0, 1, 468, 53}";
}
);
layerId = "5EDCAC97-4996-4925-B8D9-EA484E9BADFC";
paths = (
{
closed = 1;
nodes = (
"627 780 LINE",
"542 883 OFFCURVE",
"432 960 OFFCURVE",
"290 960 CURVE",
"300 830 LINE",
"393 830 OFFCURVE",
"476 787 OFFCURVE",
"524 713 CURVE"
);
},
{
closed = 1;
nodes = (
"226 635 LINE",
"206 673 LINE",
"43 663 LINE",
"51 635 LINE"
);
},
{
closed = 1;
nodes = (
"206 673 LINE",
"166 763 OFFCURVE",
"206 830 OFFCURVE",
"300 830 CURVE",
"290 960 LINE",
"102 960 OFFCURVE",
"-4 833 OFFCURVE",
"43 663 CURVE"
);
}
);
width = 274;
}
);
script = devanagari;
category = Letter;
subCategory = Matra;
},
{
glyphname = "iiMatra-deva.00";
lastChange = "2020-11-26 21:43:25 +0000";
layers = (
{
anchors = (
{
name = candra;
position = "{116, 630}";
},
{
name = iimatra;
position = "{-122, 630}";
},
{
name = top;
position = "{185, 630}";
}
);
components = (
{
name = "aaMatra-deva";
}
);
layerId = "EA4BDF10-EAD0-47D5-9AD5-B8C643A094C2";
paths = (
{
closed = 1;
nodes = (
"110 714 LINE",
"91 850 OFFCURVE",
"35 930 OFFCURVE",
"-65 930 CURVE",
"-55 870 LINE",
"-11 870 OFFCURVE",
"28 812 OFFCURVE",
"46 703 CURVE"
);
},
{
closed = 1;
nodes = (
"-115 732 LINE",
"-132 810 OFFCURVE",
"-114 870 OFFCURVE",
"-55 870 CURVE",
"-65 930 LINE",
"-152 930 OFFCURVE",
"-198 841 OFFCURVE",
"-174 723 CURVE"
);
},
{
closed = 1;
nodes = (
"125 615 LINE",
"110 714 LINE",
"46 703 LINE",
"59 615 LINE"
);
}
);
width = 189;
},
{
anchors = (
{
name = candra;
position = "{116, 660}";
},
{
name = iimatra;
position = "{-132, 660}";
},
{
name = top;
position = "{337, 657}";
}
);
components = (
{
name = "aaMatra-deva";
}
);
layerId = "5EDCAC97-4996-4925-B8D9-EA484E9BADFC";
paths = (
{
closed = 1;
nodes = (
"206 733 LINE",
"193 876 OFFCURVE",
"102 960 OFFCURVE",
"-38 960 CURVE",
"-28 840 LINE",
"7 840 OFFCURVE",
"33 793 OFFCURVE",
"43 713 CURVE"
);
},
{
closed = 1;
nodes = (
"-69 713 LINE",
"-89 786 OFFCURVE",
"-71 840 OFFCURVE",
"-28 840 CURVE",
"-38 960 LINE",
"-178 960 OFFCURVE",
"-261 846 OFFCURVE",
"-232 693 CURVE"
);
},
{
closed = 1;
nodes = (
"216 615 LINE",
"206 733 LINE",
"43 713 LINE",
"53 615 LINE"
);
}
);
width = 274;
}
);
rightMetricsKey = "=aaMatra-deva";
script = devanagari;
category = Letter;
subCategory = Matra;
},
{
glyphname = "iiMatra_anusvara-deva.00";
lastChange = "2020-11-26 21:43:25 +0000";
layers = (
{
anchors = (
{
name = bottom;
position = "{96, 0}";
},
{
name = candra;
position = "{116, 630}";
},
{
name = iimatra;
position = "{-122, 630}";
},
{
name = top;
position = "{215, 630}";
}
);
components = (
{
name = "aaMatra-deva";
},
{
name = "anusvara-deva";
transform = "{1, 0, 0, 1, 183, 60}";
}
);
layerId = "EA4BDF10-EAD0-47D5-9AD5-B8C643A094C2";
paths = (
{
closed = 1;
nodes = (
"110 714 LINE",
"91 850 OFFCURVE",
"35 930 OFFCURVE",
"-65 930 CURVE",
"-55 870 LINE",
"-11 870 OFFCURVE",
"28 812 OFFCURVE",
"46 703 CURVE"
);
},
{
closed = 1;
nodes = (
"-115 732 LINE",
"-132 810 OFFCURVE",
"-114 870 OFFCURVE",
"-55 870 CURVE",
"-65 930 LINE",
"-152 930 OFFCURVE",
"-198 841 OFFCURVE",
"-174 723 CURVE"
);
},
{
closed = 1;
nodes = (
"125 615 LINE",
"110 714 LINE",
"46 703 LINE",
"59 615 LINE"
);
}
);
width = 190;
},
{
anchors = (
{
name = bottom;
position = "{136, 0}";
},
{
name = candra;
position = "{116, 660}";
},
{
name = iimatra;
position = "{-132, 660}";
},
{
name = top;
position = "{336, 660}";
}
);
components = (
{
name = "aaMatra-deva";
},
{
name = "anusvara-deva";
transform = "{1, 0, 0, 1, 266, 110}";
}
);
layerId = "5EDCAC97-4996-4925-B8D9-EA484E9BADFC";
paths = (
{
closed = 1;
nodes = (
"206 733 LINE",
"193 876 OFFCURVE",
"102 960 OFFCURVE",
"-38 960 CURVE",
"-28 840 LINE",
"7 840 OFFCURVE",
"33 793 OFFCURVE",
"43 713 CURVE"
);
},
{
closed = 1;
nodes = (
"-69 713 LINE",
"-89 786 OFFCURVE",
"-71 840 OFFCURVE",
"-28 840 CURVE",
"-38 960 LINE",
"-178 960 OFFCURVE",
"-261 846 OFFCURVE",
"-232 693 CURVE"
);
},
{
closed = 1;
nodes = (
"216 615 LINE",
"206 733 LINE",
"43 713 LINE",
"53 615 LINE"
);
}
);
width = 272;
}
);
},
{
glyphname = "iiMatra_reph-deva.00";
lastChange = "2020-12-18 01:02:23 +0000";
layers = (
{
anchors = (
{
name = _imatra;
position = "{72.433, 586.876}";
},
{
name = bottom;
position = "{96, 0}";
},
{
name = candra;
position = "{116, 630}";
},
{
name = iimatra;
position = "{-122, 630}";
},
{
name = top;
position = "{185, 630}";
}
);
components = (
{
name = "aaMatra-deva";
}
);
layerId = "EA4BDF10-EAD0-47D5-9AD5-B8C643A094C2";
paths = (
{
closed = 1;
nodes = (
"110 714 LINE",
"91 850 OFFCURVE",
"35 930 OFFCURVE",
"-65 930 CURVE",
"-55 870 LINE",
"-11 870 OFFCURVE",
"28 812 OFFCURVE",
"46 703 CURVE"
);
},
{
closed = 1;
nodes = (
"-115 732 LINE",
"-132 810 OFFCURVE",
"-114 870 OFFCURVE",
"-55 870 CURVE",
"-65 930 LINE",
"-152 930 OFFCURVE",
"-198 841 OFFCURVE",
"-174 723 CURVE"
);
},
{
closed = 1;
nodes = (
"125 615 LINE",
"110 714 LINE",
"46 703 LINE",
"59 615 LINE"
);
},
{
closed = 1;
nodes = (
"135.56 780.215 LINE",
"161.06 824.383 OFFCURVE",
"211.433 827.631 OFFCURVE",
"279.054 804.756 CURVE",
"299.394 859.985 LINE",
"200.828 897.263 OFFCURVE",
"125 887.925 OFFCURVE",
"86 820.375 CURVE"
);
},
{
closed = 1;
nodes = (
"119.325 644.096 LINE",
"117.014 710.093 OFFCURVE",
"120.06 753.368 OFFCURVE",
"135.56 780.215 CURVE",
"86 820.375 LINE",
"65.5 784.868 OFFCURVE",
"58.856 741.361 OFFCURVE",
"62.167 677.096 CURVE"
);
}
);
width = 189;
},
{
anchors = (
{
name = _imatra;
position = "{132.509, 517.395}";
},
{
name = bottom;
position = "{137, 0}";
},
{
name = candra;
position = "{116, 660}";
},
{
name = iimatra;
position = "{-132, 660}";
},
{
name = top;
position = "{337, 657}";
}
);
components = (
{
name = "aaMatra-deva";
}
);
layerId = "5EDCAC97-4996-4925-B8D9-EA484E9BADFC";
paths = (
{
closed = 1;
nodes = (
"206 733 LINE",
"193 876 OFFCURVE",
"102 960 OFFCURVE",
"-38 960 CURVE",
"-28 840 LINE",
"7 840 OFFCURVE",
"33 793 OFFCURVE",
"43 713 CURVE"
);
},
{
closed = 1;
nodes = (
"-69 713 LINE",
"-89 786 OFFCURVE",
"-71 840 OFFCURVE",
"-28 840 CURVE",
"-38 960 LINE",
"-178 960 OFFCURVE",
"-261 846 OFFCURVE",
"-232 693 CURVE"
);
},
{
closed = 1;
nodes = (
"216 615 LINE",
"206 733 LINE",
"43 713 LINE",
"53 615 LINE"
);
},
{
closed = 1;
nodes = (
"231.904 777.552 LINE",
"256.904 820.854 OFFCURVE",
"303.483 835.531 OFFCURVE",
"369.336 805.593 CURVE",
"418.016 929.908 LINE",
"271.586 998.284 OFFCURVE",
"171 972.064 OFFCURVE",
"109.5 865.543 CURVE"
);
},
{
closed = 1;
nodes = (
"218.928 621.077 LINE",
"210.554 690.574 OFFCURVE",
"210.404 740.313 OFFCURVE",
"231.904 777.552 CURVE",
"109.5 865.543 LINE",
"83.5 820.509 OFFCURVE",
"76.821 768.94 OFFCURVE",
"77.765 702.577 CURVE"
);
}
);
width = 274;
}
);
},
{
glyphname = "iiMatra_reph_anusvara-deva.00";
lastChange = "2020-12-18 01:02:23 +0000";
layers = (
{
anchors = (
{
name = _imatra;
position = "{72.433, 586.876}";
},
{
name = bottom;
position = "{96, 0}";
},
{
name = candra;
position = "{116, 630}";
},
{
name = iimatra;
position = "{-122, 630}";
},
{
name = top;
position = "{185, 630}";
}
);
components = (
{
name = "aaMatra-deva";
}
);
layerId = "EA4BDF10-EAD0-47D5-9AD5-B8C643A094C2";
paths = (
{
closed = 1;
nodes = (
"110 714 LINE",
"91 850 OFFCURVE",
"35 930 OFFCURVE",
"-65 930 CURVE",
"-55 870 LINE",
"-11 870 OFFCURVE",
"28 812 OFFCURVE",
"46 703 CURVE"
);
},
{
closed = 1;
nodes = (
"-115 732 LINE",
"-132 810 OFFCURVE",
"-114 870 OFFCURVE",
"-55 870 CURVE",
"-65 930 LINE",
"-152 930 OFFCURVE",
"-198 841 OFFCURVE",
"-174 723 CURVE"
);
},
{
closed = 1;
nodes = (
"125 615 LINE",
"110 714 LINE",
"46 703 LINE",
"59 615 LINE"
);
},
{
closed = 1;
nodes = (
"135.56 780.215 LINE",
"161.06 824.382 OFFCURVE",
"211.433 827.631 OFFCURVE",
"279.054 804.755 CURVE",
"299.394 859.985 LINE",
"200.828 897.262 OFFCURVE",
"125 887.925 OFFCURVE",
"86 820.375 CURVE"
);
},
{
closed = 1;
nodes = (
"119.325 644.096 LINE",
"117.014 710.093 OFFCURVE",
"120.06 753.368 OFFCURVE",
"135.56 780.215 CURVE",
"86 820.375 LINE",
"65.5 784.868 OFFCURVE",
"58.856 741.361 OFFCURVE",
"62.167 677.096 CURVE"
);
},
{
closed = 1;
nodes = (
"242.254 670 OFFCURVE",
"265.334 692.031 OFFCURVE",
"265.334 721.406 CURVE SMOOTH",
"265.334 750.781 OFFCURVE",
"242.254 773.861 OFFCURVE",
"212.879 773.861 CURVE SMOOTH",
"183.504 773.861 OFFCURVE",
"161.473 750.781 OFFCURVE",
"161.473 721.406 CURVE SMOOTH",
"161.473 692.031 OFFCURVE",
"183.504 670 OFFCURVE",
"212.879 670 CURVE SMOOTH"
);
}
);
width = 189;
},
{
anchors = (
{
name = _imatra;
position = "{123.509, 567.395}";
},
{
name = bottom;
position = "{137, 0}";
},
{
name = candra;
position = "{116, 660}";
},
{
name = iimatra;
position = "{-132, 660}";
},
{
name = top;
position = "{337, 657}";
}
);
components = (
{
name = "aaMatra-deva";
}
);
layerId = "5EDCAC97-4996-4925-B8D9-EA484E9BADFC";
paths = (
{
closed = 1;
nodes = (
"206 733 LINE",
"193 876 OFFCURVE",
"102 960 OFFCURVE",
"-38 960 CURVE",
"-28 840 LINE",
"7 840 OFFCURVE",
"33 793 OFFCURVE",
"43 713 CURVE"
);
},
{
closed = 1;
nodes = (
"-69 713 LINE",
"-89 786 OFFCURVE",
"-71 840 OFFCURVE",
"-28 840 CURVE",
"-38 960 LINE",
"-178 960 OFFCURVE",
"-261 846 OFFCURVE",
"-232 693 CURVE"
);
},
{
closed = 1;
nodes = (
"216 615 LINE",
"206 733 LINE",
"43 713 LINE",
"53 615 LINE"
);
},
{
closed = 1;
nodes = (
"222.904 827.552 LINE",
"247.904 870.853 OFFCURVE",
"294.483 885.53 OFFCURVE",
"360.336 855.592 CURVE",
"409.016 979.908 LINE",
"262.586 1048.283 OFFCURVE",
"162 1022.064 OFFCURVE",
"100.5 915.542 CURVE"
);
},
{
closed = 1;
nodes = (
"209.927 671.077 LINE",
"201.554 740.574 OFFCURVE",
"201.404 790.313 OFFCURVE",
"222.904 827.552 CURVE",
"100.5 915.542 LINE",
"74.5 870.509 OFFCURVE",
"67.82 818.94 OFFCURVE",
"68.765 752.577 CURVE"
);
},
{
closed = 1;
nodes = (
"356.1 671.6 OFFCURVE",
"393 704.9 OFFCURVE",
"393 751.7 CURVE SMOOTH",
"393 796.7 OFFCURVE",
"356.1 833.6 OFFCURVE",
"311.1 833.6 CURVE SMOOTH",
"264.3 833.6 OFFCURVE",
"231 796.7 OFFCURVE",
"231 751.7 CURVE SMOOTH",
"231 704.9 OFFCURVE",
"264.3 671.6 OFFCURVE",
"311.1 671.6 CURVE SMOOTH"
);
}
);
width = 274;
}
);
script = devanagari;
category = Letter;
subCategory = Matra;
},
{
glyphname = "aaMatra-deva.cut";
lastChange = "2020-11-26 21:43:25 +0000";
layers = (
{
anchors = (
{
name = bottom;
position = "{72, 0}";
},
{
name = candra;
position = "{-125, 630}";
},
{
name = top;
position = "{67, 630}";
}
);
layerId = "EA4BDF10-EAD0-47D5-9AD5-B8C643A094C2";
paths = (
{
closed = 1;
nodes = (
"98 0 LINE",
"98 630 LINE",
"35 630 LINE",
"35 0 LINE"
);
},
{
closed = 1;
nodes = (
"196 567 LINE",
"196 630 LINE",
"57 630 LINE",
"57 567 LINE"
);
}
);
width = 161;
},
{
anchors = (
{
name = bottom;
position = "{114, 0}";
},
{
name = candra;
position = "{-131, 660}";
},
{
name = top;
position = "{117, 660}";
}
);
layerId = "5EDCAC97-4996-4925-B8D9-EA484E9BADFC";
paths = (
{
closed = 1;
nodes = (
"198 0 LINE",
"198 660 LINE",
"35 660 LINE",
"35 0 LINE"
);
},
{
closed = 1;
nodes = (
"289 547 LINE",
"289 660 LINE",
"76 660 LINE",
"76 547 LINE"
);
}
);
width = 254;
}
);
leftMetricsKey = "=aaMatra-deva*-1";
rightMetricsKey = "=aaMatra-deva";
},
{
glyphname = "iMatra-deva.01";
lastChange = "2020-11-26 21:43:25 +0000";
layers = (
{
anchors = (
{
name = candra;
position = "{481, 712}";
},
{
name = imatra;
position = "{505, 630}";
},
{
name = top;
position = "{569, 679}";
}
);
components = (
{
name = "aaMatra-deva";
}
);
layerId = "EA4BDF10-EAD0-47D5-9AD5-B8C643A094C2";
paths = (
{
closed = 1;
nodes = (
"499 764 LINE",
"437 868 OFFCURVE",
"339 930 OFFCURVE",
"215 930 CURVE",
"235 870 LINE",
"307 870 OFFCURVE",
"386 819 OFFCURVE",
"443 733 CURVE"
);
},
{
closed = 1;
nodes = (
"125 615 LINE",
"105 713 LINE",
"41 702 LINE",
"59 615 LINE"
);
},
{
closed = 1;
nodes = (
"105 713 LINE",
"89 803 OFFCURVE",
"118 870 OFFCURVE",
"235 870 CURVE",
"215 930 LINE",
"84 930 OFFCURVE",
"16 832 OFFCURVE",
"41 702 CURVE"
);
}
);
width = 190;
},
{
anchors = (
{
name = candra;
position = "{652, 788}";
},
{
name = imatra;
position = "{762, 660}";
},
{
name = top;
position = "{814, 795}";
}
);
components = (
{
name = "aaMatra-deva";
}
);
layerId = "5EDCAC97-4996-4925-B8D9-EA484E9BADFC";
paths = (
{
closed = 1;
nodes = (
"724 796 LINE",
"624 899 OFFCURVE",
"472 960 OFFCURVE",
"315 960 CURVE",
"326 830 LINE",
"438 830 OFFCURVE",
"536 786 OFFCURVE",
"600 712 CURVE"
);
},
{
closed = 1;
nodes = (
"226 635 LINE",
"206 673 LINE",
"43 663 LINE",
"51 635 LINE"
);
},
{
closed = 1;
nodes = (
"206 673 LINE",
"166 764 OFFCURVE",
"207 830 OFFCURVE",
"326 830 CURVE",
"315 960 LINE",
"102 960 OFFCURVE",
"-4 833 OFFCURVE",
"43 663 CURVE"
);
}
);
width = 272;
}
);
leftMetricsKey = "=aaMatra-deva";
script = devanagari;
category = Letter;
subCategory = Matra;
},
{
glyphname = "iMatra-deva.02";
lastChange = "2020-11-26 21:43:25 +0000";
layers = (
{
anchors = (
{
name = candra;
position = "{529, 711}";
},
{
name = imatra;
position = "{554, 630}";
},
{
name = top;
position = "{616, 677}";
}
);
components = (
{
name = "aaMatra-deva";
}
);
layerId = "EA4BDF10-EAD0-47D5-9AD5-B8C643A094C2";
paths = (
{
closed = 1;
nodes = (
"548 765 LINE",
"474 868 OFFCURVE",
"363 930 OFFCURVE",
"232 930 CURVE",
"252 870 LINE",
"332 870 OFFCURVE",
"426 818 OFFCURVE",
"494 734 CURVE"
);
},
{
closed = 1;
nodes = (
"125 615 LINE",
"106 711 LINE",
"42 700 LINE",
"59 615 LINE"
);
},
{
closed = 1;
nodes = (
"106 711 LINE",
"89 802 OFFCURVE",
"119 870 OFFCURVE",
"252 870 CURVE",
"232 930 LINE",
"84 930 OFFCURVE",
"17 830 OFFCURVE",
"42 700 CURVE"
);
}
);
width = 190;
},
{
anchors = (
{
name = candra;
position = "{728, 786}";
},
{
name = imatra;
position = "{837, 660}";
},
{
name = top;
position = "{891, 789}";
}
);
components = (
{
name = "aaMatra-deva";
}
);
layerId = "5EDCAC97-4996-4925-B8D9-EA484E9BADFC";
paths = (
{
closed = 1;
nodes = (
"796 795 LINE",
"681 899 OFFCURVE",
"513 960 OFFCURVE",
"340 960 CURVE",
"352 831 LINE",
"483 831 OFFCURVE",
"597 786 OFFCURVE",
"676 710 CURVE"
);
},
{
closed = 1;
nodes = (
"226 635 LINE",
"206 673 LINE",
"43 663 LINE",
"51 635 LINE"
);
},
{
closed = 1;
nodes = (
"206 673 LINE",
"165 765 OFFCURVE",
"208 831 OFFCURVE",
"352 831 CURVE",
"340 960 LINE",
"102 960 OFFCURVE",
"-4 834 OFFCURVE",
"43 663 CURVE"
);
}
);
width = 272;
}
);
leftMetricsKey = "=aaMatra-deva";
script = devanagari;
category = Letter;
subCategory = Matra;
},
{
glyphname = "iMatra-deva.03";
lastChange = "2020-11-26 21:43:25 +0000";
layers = (
{
anchors = (
{
name = candra;
position = "{577, 709}";
},
{
name = imatra;
position = "{602, 630}";
},
{
name = top;
position = "{664, 676}";
}
);
components = (
{
name = "aaMatra-deva";
}
);
layerId = "EA4BDF10-EAD0-47D5-9AD5-B8C643A094C2";
paths = (
{
closed = 1;
nodes = (
"597 766 LINE",
"512 868 OFFCURVE",
"386 930 OFFCURVE",
"249 930 CURVE",
"269 871 LINE",
"357 871 OFFCURVE",
"466 818 OFFCURVE",
"544 734 CURVE"
);
},
{
closed = 1;
nodes = (
"125 615 LINE",
"106 710 LINE",
"42 699 LINE",
"59 615 LINE"
);
},
{
closed = 1;
nodes = (
"106 710 LINE",
"90 801 OFFCURVE",
"120 871 OFFCURVE",
"269 871 CURVE",
"249 930 LINE",
"85 930 OFFCURVE",
"17 829 OFFCURVE",
"42 699 CURVE"
);
}
);
width = 190;
},
{
anchors = (
{
name = candra;
position = "{804, 783}";
},
{
name = imatra;
position = "{912, 660}";
},
{
name = top;
position = "{969, 784}";
}
);
components = (
{
name = "aaMatra-deva";
}
);
layerId = "5EDCAC97-4996-4925-B8D9-EA484E9BADFC";
paths = (
{
closed = 1;
nodes = (
"869 795 LINE",
"739 899 OFFCURVE",
"553 960 OFFCURVE",
"365 960 CURVE",
"378 831 LINE",
"528 831 OFFCURVE",
"657 785 OFFCURVE",
"751 709 CURVE"
);
},
{
closed = 1;
nodes = (
"226 635 LINE",
"206 673 LINE",
"43 663 LINE",
"51 635 LINE"
);
},
{
closed = 1;
nodes = (
"206 673 LINE",
"165 766 OFFCURVE",
"209 831 OFFCURVE",
"378 831 CURVE",
"365 960 LINE",
"101 960 OFFCURVE",
"-4 834 OFFCURVE",
"43 663 CURVE"
);
}
);
width = 272;
}
);
leftMetricsKey = "=aaMatra-deva";
script = devanagari;
category = Letter;
subCategory = Matra;
},
{
glyphname = "iMatra-deva.04";
lastChange = "2020-11-26 21:43:25 +0000";
layers = (
{
anchors = (
{
name = candra;
position = "{625, 708}";
},
{
name = imatra;
position = "{650, 630}";
},
{
name = top;
position = "{712, 675}";
}
);
components = (
{
name = "aaMatra-deva";
}
);
layerId = "EA4BDF10-EAD0-47D5-9AD5-B8C643A094C2";
paths = (
{
closed = 1;
nodes = (
"646 767 LINE",
"550 868 OFFCURVE",
"410 930 OFFCURVE",
"266 930 CURVE",
"286 871 LINE",
"382 871 OFFCURVE",
"506 818 OFFCURVE",
"595 734 CURVE"
);
},
{
closed = 1;
nodes = (
"125 615 LINE",
"106 708 LINE",
"42 697 LINE",
"59 615 LINE"
);
},
{
closed = 1;
nodes = (
"106 708 LINE",
"90 800 OFFCURVE",
"121 871 OFFCURVE",
"286 871 CURVE",
"266 930 LINE",
"85 930 OFFCURVE",
"17 828 OFFCURVE",
"42 697 CURVE"
);
}
);
width = 190;
},
{
anchors = (
{
name = candra;
position = "{880, 781}";
},
{
name = imatra;
position = "{987, 660}";
},
{
name = top;
position = "{1046, 778}";
}
);
components = (
{
name = "aaMatra-deva";
}
);
layerId = "5EDCAC97-4996-4925-B8D9-EA484E9BADFC";
paths = (
{
closed = 1;
nodes = (
"942 795 LINE",
"796 898 OFFCURVE",
"593 960 OFFCURVE",
"390 960 CURVE",
"403 832 LINE",
"572 832 OFFCURVE",
"718 785 OFFCURVE",
"827 708 CURVE"
);
},
{
closed = 1;
nodes = (
"226 635 LINE",
"206 673 LINE",
"43 663 LINE",
"51 635 LINE"
);
},
{
closed = 1;
nodes = (
"206 673 LINE",
"164 767 OFFCURVE",
"210 832 OFFCURVE",
"403 832 CURVE",
"390 960 LINE",
"101 960 OFFCURVE",
"-5 835 OFFCURVE",
"43 663 CURVE"
);
}
);
width = 272;
}
);
leftMetricsKey = "=aaMatra-deva";
script = devanagari;
category = Letter;
subCategory = Matra;
},
{
glyphname = "iMatra-deva.05";
lastChange = "2020-11-26 21:43:25 +0000";
layers = (
{
anchors = (
{
name = candra;
position = "{673, 707}";
},
{
name = imatra;
position = "{699, 630}";
},
{
name = top;
position = "{759, 674}";
}
);
components = (
{
name = "aaMatra-deva";
}
);
layerId = "EA4BDF10-EAD0-47D5-9AD5-B8C643A094C2";
paths = (
{
closed = 1;
nodes = (
"695 768 LINE",
"587 868 OFFCURVE",
"433 930 OFFCURVE",
"283 930 CURVE",
"303 871 LINE",
"407 871 OFFCURVE",
"546 817 OFFCURVE",
"646 734 CURVE"
);
},
{
closed = 1;
nodes = (
"125 615 LINE",
"106 707 LINE",
"42 696 LINE",
"59 615 LINE"
);
},
{
closed = 1;
nodes = (
"106 707 LINE",
"90 799 OFFCURVE",
"122 871 OFFCURVE",
"303 871 CURVE",
"283 930 LINE",
"86 930 OFFCURVE",
"17 827 OFFCURVE",
"42 696 CURVE"
);
}
);
width = 190;
},
{
anchors = (
{
name = candra;
position = "{955, 779}";
},
{
name = imatra;
position = "{1062, 660}";
},
{
name = top;
position = "{1124, 773}";
}
);
components = (
{
name = "aaMatra-deva";
}
);
layerId = "5EDCAC97-4996-4925-B8D9-EA484E9BADFC";
paths = (
{
closed = 1;
nodes = (
"1015 794 LINE",
"854 898 OFFCURVE",
"634 960 OFFCURVE",
"415 960 CURVE",
"429 832 LINE",
"617 832 OFFCURVE",
"778 784 OFFCURVE",
"903 707 CURVE"
);
},
{
closed = 1;
nodes = (
"226 635 LINE",
"206 673 LINE",
"43 663 LINE",
"51 635 LINE"
);
},
{
closed = 1;
nodes = (
"206 673 LINE",
"164 767 OFFCURVE",
"211 832 OFFCURVE",
"429 832 CURVE",
"415 960 LINE",
"101 960 OFFCURVE",
"-5 835 OFFCURVE",
"43 663 CURVE"
);
}
);
width = 272;
}
);
leftMetricsKey = "=aaMatra-deva";
script = devanagari;
category = Letter;
subCategory = Matra;
},
{
glyphname = "iMatra-deva.06";
lastChange = "2020-11-26 21:43:25 +0000";
layers = (
{
anchors = (
{
name = candra;
position = "{721, 706}";
},
{
name = imatra;
position = "{747, 630}";
},
{
name = top;
position = "{807, 673}";
}
);
components = (
{
name = "aaMatra-deva";
}
);
layerId = "EA4BDF10-EAD0-47D5-9AD5-B8C643A094C2";
paths = (
{
closed = 1;
nodes = (
"745 769 LINE",
"625 869 OFFCURVE",
"457 930 OFFCURVE",
"301 930 CURVE",
"321 871 LINE",
"433 871 OFFCURVE",
"586 817 OFFCURVE",
"697 735 CURVE"
);
},
{
closed = 1;
nodes = (
"125 615 LINE",
"107 705 LINE",
"43 695 LINE",
"59 615 LINE"
);
},
{
closed = 1;
nodes = (
"107 705 LINE",
"90 798 OFFCURVE",
"123 871 OFFCURVE",
"321 871 CURVE",
"301 930 LINE",
"87 930 OFFCURVE",
"18 826 OFFCURVE",
"43 695 CURVE"
);
}
);
width = 190;
},
{
anchors = (
{
name = candra;
position = "{1031, 777}";
},
{
name = imatra;
position = "{1137, 660}";
},
{
name = top;
position = "{1201, 767}";
}
);
components = (
{
name = "aaMatra-deva";
}
);
layerId = "5EDCAC97-4996-4925-B8D9-EA484E9BADFC";
paths = (
{
closed = 1;
nodes = (
"1087 794 LINE",
"911 898 OFFCURVE",
"674 960 OFFCURVE",
"440 960 CURVE",
"455 833 LINE",
"662 833 OFFCURVE",
"839 784 OFFCURVE",
"979 705 CURVE"
);
},
{
closed = 1;
nodes = (
"226 635 LINE",
"206 673 LINE",
"43 663 LINE",
"51 635 LINE"
);
},
{
closed = 1;
nodes = (
"206 673 LINE",
"164 768 OFFCURVE",
"212 833 OFFCURVE",
"455 833 CURVE",
"440 960 LINE",
"101 960 OFFCURVE",
"-5 836 OFFCURVE",
"43 663 CURVE"
);
}
);
width = 272;
}
);
leftMetricsKey = "=aaMatra-deva";
script = devanagari;
category = Letter;
subCategory = Matra;
},
{
glyphname = "iMatra-deva.07";
lastChange = "2020-11-26 21:43:25 +0000";
layers = (
{
anchors = (
{
name = candra;
position = "{768, 705}";
},
{
name = imatra;
position = "{795, 630}";
},
{
name = top;
position = "{855, 671}";
}
);
components = (
{
name = "aaMatra-deva";
}
);
layerId = "EA4BDF10-EAD0-47D5-9AD5-B8C643A094C2";
paths = (
{
closed = 1;
nodes = (
"794 770 LINE",
"663 869 OFFCURVE",
"480 930 OFFCURVE",
"318 930 CURVE",
"338 871 LINE",
"458 871 OFFCURVE",
"626 816 OFFCURVE",
"748 735 CURVE"
);
},
{
closed = 1;
nodes = (
"124 615 LINE",
"107 704 LINE",
"43 693 LINE",
"59 615 LINE"
);
},
{
closed = 1;
nodes = (
"107 704 LINE",
"90 797 OFFCURVE",
"123 871 OFFCURVE",
"338 871 CURVE",
"318 930 LINE",
"87 930 OFFCURVE",
"18 824 OFFCURVE",
"43 693 CURVE"
);
}
);
width = 190;
},
{
anchors = (
{
name = candra;
position = "{1107, 774}";
},
{
name = imatra;
position = "{1212, 660}";
},
{
name = top;
position = "{1279, 762}";
}
);
components = (
{
name = "aaMatra-deva";
}
);
layerId = "5EDCAC97-4996-4925-B8D9-EA484E9BADFC";
paths = (
{
closed = 1;
nodes = (
"1160 794 LINE",
"969 898 OFFCURVE",
"714 960 OFFCURVE",
"465 960 CURVE",
"481 833 LINE",
"707 833 OFFCURVE",
"899 783 OFFCURVE",
"1055 704 CURVE"
);
},
{
closed = 1;
nodes = (
"226 635 LINE",
"206 673 LINE",
"43 663 LINE",
"51 635 LINE"
);
},
{
closed = 1;
nodes = (
"206 673 LINE",
"163 769 OFFCURVE",
"213 833 OFFCURVE",
"481 833 CURVE",
"465 960 LINE",
"101 960 OFFCURVE",
"-5 836 OFFCURVE",
"43 663 CURVE"
);
}
);
width = 272;
}
);
leftMetricsKey = "=aaMatra-deva";
script = devanagari;
category = Letter;
subCategory = Matra;
},
{
glyphname = "iMatra-deva.08";
lastChange = "2020-11-26 21:43:25 +0000";
layers = (
{
anchors = (
{
name = candra;
position = "{816, 703}";
},
{
name = imatra;
position = "{844, 630}";
},
{
name = top;
position = "{902, 670}";
}
);
components = (
{
name = "aaMatra-deva";
}
);
layerId = "EA4BDF10-EAD0-47D5-9AD5-B8C643A094C2";
paths = (
{
closed = 1;
nodes = (
"843 771 LINE",
"700 869 OFFCURVE",
"503 930 OFFCURVE",
"335 930 CURVE",
"355 872 LINE",
"483 872 OFFCURVE",
"666 816 OFFCURVE",
"798 735 CURVE"
);
},
{
closed = 1;
nodes = (
"124 615 LINE",
"107 702 LINE",
"43 692 LINE",
"59 615 LINE"
);
},
{
closed = 1;
nodes = (
"107 702 LINE",
"90 796 OFFCURVE",
"124 872 OFFCURVE",
"355 872 CURVE",
"335 930 LINE",
"88 930 OFFCURVE",
"18 823 OFFCURVE",
"43 692 CURVE"
);
}
);
width = 190;
},
{
anchors = (
{
name = candra;
position = "{1183, 772}";
},
{
name = imatra;
position = "{1287, 660}";
},
{
name = top;
position = "{1356, 756}";
}
);
components = (
{
name = "aaMatra-deva";
}
);
layerId = "5EDCAC97-4996-4925-B8D9-EA484E9BADFC";
paths = (
{
closed = 1;
nodes = (
"1233 793 LINE",
"1026 898 OFFCURVE",
"755 960 OFFCURVE",
"490 960 CURVE",
"507 833 LINE",
"752 833 OFFCURVE",
"959 783 OFFCURVE",
"1130 703 CURVE"
);
},
{
closed = 1;
nodes = (
"226 635 LINE",
"206 673 LINE",
"43 663 LINE",
"51 635 LINE"
);
},
{
closed = 1;
nodes = (
"206 673 LINE",
"163 770 OFFCURVE",
"214 833 OFFCURVE",
"507 833 CURVE",
"490 960 LINE",
"100 960 OFFCURVE",
"-5 836 OFFCURVE",
"43 663 CURVE"
);
}
);
width = 272;
}
);
leftMetricsKey = "=aaMatra-deva";
script = devanagari;
category = Letter;
subCategory = Matra;
},
{
glyphname = "iMatra-deva.09";
lastChange = "2020-11-26 21:43:25 +0000";
layers = (
{
anchors = (
{
name = candra;
position = "{864, 702}";
},
{
name = imatra;
position = "{892, 630}";
},
{
name = top;
position = "{950, 669}";
}
);
components = (
{
name = "aaMatra-deva";
}
);
layerId = "EA4BDF10-EAD0-47D5-9AD5-B8C643A094C2";
paths = (
{
closed = 1;
nodes = (
"892 772 LINE",
"738 869 OFFCURVE",
"527 930 OFFCURVE",
"352 930 CURVE",
"372 872 LINE",
"508 872 OFFCURVE",
"706 816 OFFCURVE",
"849 735 CURVE"
);
},
{
closed = 1;
nodes = (
"124 615 LINE",
"107 701 LINE",
"44 690 LINE",
"59 615 LINE"
);
},
{
closed = 1;
nodes = (
"107 701 LINE",
"91 795 OFFCURVE",
"125 872 OFFCURVE",
"372 872 CURVE",
"352 930 LINE",
"88 930 OFFCURVE",
"18 822 OFFCURVE",
"44 690 CURVE"
);
}
);
width = 190;
},
{
anchors = (
{
name = candra;
position = "{1259, 770}";
},
{
name = imatra;
position = "{1362, 660}";
},
{
name = top;
position = "{1434, 751}";
}
);
components = (
{
name = "aaMatra-deva";
}
);
layerId = "5EDCAC97-4996-4925-B8D9-EA484E9BADFC";
paths = (
{
closed = 1;
nodes = (
"1305 793 LINE",
"1084 898 OFFCURVE",
"795 960 OFFCURVE",
"515 960 CURVE",
"533 834 LINE",
"797 834 OFFCURVE",
"1020 782 OFFCURVE",
"1206 701 CURVE"
);
},
{
closed = 1;
nodes = (
"226 635 LINE",
"206 673 LINE",
"43 663 LINE",
"51 635 LINE"
);
},
{
closed = 1;
nodes = (
"206 673 LINE",
"162 771 OFFCURVE",
"215 834 OFFCURVE",
"533 834 CURVE",
"515 960 LINE",
"100 960 OFFCURVE",
"-5 837 OFFCURVE",
"43 663 CURVE"
);
}
);
width = 272;
}
);
leftMetricsKey = "=aaMatra-deva";
script = devanagari;
category = Letter;
subCategory = Matra;
},
{
glyphname = "iMatra-deva.10";
lastChange = "2020-11-26 21:43:25 +0000";
layers = (
{
anchors = (
{
name = candra;
position = "{912, 701}";
},
{
name = imatra;
position = "{940, 630}";
},
{
name = top;
position = "{998, 668}";
}
);
components = (
{
name = "aaMatra-deva";
}
);
layerId = "EA4BDF10-EAD0-47D5-9AD5-B8C643A094C2";
paths = (
{
closed = 1;
nodes = (
"941 773 LINE",
"776 869 OFFCURVE",
"550 930 OFFCURVE",
"369 930 CURVE",
"389 872 LINE",
"533 872 OFFCURVE",
"746 815 OFFCURVE",
"900 736 CURVE"
);
},
{
closed = 1;
nodes = (
"124 615 LINE",
"108 699 LINE",
"44 689 LINE",
"59 615 LINE"
);
},
{
closed = 1;
nodes = (
"108 699 LINE",
"91 794 OFFCURVE",
"126 872 OFFCURVE",
"389 872 CURVE",
"369 930 LINE",
"89 930 OFFCURVE",
"19 821 OFFCURVE",
"44 689 CURVE"
);
}
);
width = 190;
},
{
anchors = (
{
name = candra;
position = "{1335, 768}";
},
{
name = imatra;
position = "{1437, 660}";
},
{
name = top;
position = "{1511, 745}";
}
);
components = (
{
name = "aaMatra-deva";
}
);
layerId = "5EDCAC97-4996-4925-B8D9-EA484E9BADFC";
paths = (
{
closed = 1;
nodes = (
"1378 793 LINE",
"1141 897 OFFCURVE",
"835 960 OFFCURVE",
"540 960 CURVE",
"558 834 LINE",
"841 834 OFFCURVE",
"1080 782 OFFCURVE",
"1282 700 CURVE"
);
},
{
closed = 1;
nodes = (
"226 635 LINE",
"206 673 LINE",
"43 663 LINE",
"51 635 LINE"
);
},
{
closed = 1;
nodes = (
"206 673 LINE",
"162 772 OFFCURVE",
"216 834 OFFCURVE",
"558 834 CURVE",
"540 960 LINE",
"100 960 OFFCURVE",
"-5 837 OFFCURVE",
"43 663 CURVE"
);
}
);
width = 272;
}
);
leftMetricsKey = "=aaMatra-deva";
script = devanagari;
category = Letter;
subCategory = Matra;
},
{
glyphname = "iMatra-deva.11";
lastChange = "2020-11-26 21:43:25 +0000";
layers = (
{
anchors = (
{
name = candra;
position = "{960, 700}";
},
{
name = imatra;
position = "{989, 630}";
},
{
name = top;
position = "{1045, 666}";
}
);
components = (
{
name = "aaMatra-deva";
}
);
layerId = "EA4BDF10-EAD0-47D5-9AD5-B8C643A094C2";
paths = (
{
closed = 1;
nodes = (
"990 774 LINE",
"813 869 OFFCURVE",
"574 930 OFFCURVE",
"386 930 CURVE",
"406 872 LINE",
"558 872 OFFCURVE",
"786 815 OFFCURVE",
"951 736 CURVE"
);
},
{
closed = 1;
nodes = (
"124 615 LINE",
"108 698 LINE",
"44 687 LINE",
"59 615 LINE"
);
},
{
closed = 1;
nodes = (
"108 698 LINE",
"91 793 OFFCURVE",
"127 872 OFFCURVE",
"406 872 CURVE",
"386 930 LINE",
"89 930 OFFCURVE",
"19 819 OFFCURVE",
"44 687 CURVE"
);
}
);
width = 190;
},
{
anchors = (
{
name = candra;
position = "{1411, 765}";
},
{
name = imatra;
position = "{1512, 660}";
},
{
name = top;
position = "{1589, 740}";
}
);
components = (
{
name = "aaMatra-deva";
}
);
layerId = "5EDCAC97-4996-4925-B8D9-EA484E9BADFC";
paths = (
{
closed = 1;
nodes = (
"1451 792 LINE",
"1199 897 OFFCURVE",
"876 960 OFFCURVE",
"565 960 CURVE",
"584 835 LINE",
"886 835 OFFCURVE",
"1141 781 OFFCURVE",
"1358 699 CURVE"
);
},
{
closed = 1;
nodes = (
"226 635 LINE",
"206 673 LINE",
"43 663 LINE",
"51 635 LINE"
);
},
{
closed = 1;
nodes = (
"206 673 LINE",
"161 773 OFFCURVE",
"217 835 OFFCURVE",
"584 835 CURVE",
"565 960 LINE",
"100 960 OFFCURVE",
"-5 838 OFFCURVE",
"43 663 CURVE"
);
}
);
width = 272;
}
);
leftMetricsKey = "=aaMatra-deva";
script = devanagari;
category = Letter;
subCategory = Matra;
},
{
glyphname = "iMatra-deva.12";
lastChange = "2020-11-26 21:43:25 +0000";
layers = (
{
anchors = (
{
name = candra;
position = "{1008, 699}";
},
{
name = imatra;
position = "{1037, 630}";
},
{
name = top;
position = "{1093, 665}";
}
);
components = (
{
name = "aaMatra-deva";
}
);
layerId = "EA4BDF10-EAD0-47D5-9AD5-B8C643A094C2";
paths = (
{
closed = 1;
nodes = (
"1039 776 LINE",
"851 869 OFFCURVE",
"597 930 OFFCURVE",
"403 930 CURVE",
"423 873 LINE",
"583 873 OFFCURVE",
"827 815 OFFCURVE",
"1002 736 CURVE"
);
},
{
closed = 1;
nodes = (
"124 615 LINE",
"108 697 LINE",
"45 686 LINE",
"59 615 LINE"
);
},
{
closed = 1;
nodes = (
"108 697 LINE",
"91 792 OFFCURVE",
"128 873 OFFCURVE",
"423 873 CURVE",
"403 930 LINE",
"90 930 OFFCURVE",
"19 818 OFFCURVE",
"45 686 CURVE"
);
}
);
width = 190;
},
{
anchors = (
{
name = candra;
position = "{1487, 763}";
},
{
name = imatra;
position = "{1587, 660}";
},
{
name = top;
position = "{1667, 734}";
}
);
components = (
{
name = "aaMatra-deva";
}
);
layerId = "5EDCAC97-4996-4925-B8D9-EA484E9BADFC";
paths = (
{
closed = 1;
nodes = (
"1524 792 LINE",
"1257 897 OFFCURVE",
"916 960 OFFCURVE",
"590 960 CURVE",
"610 835 LINE",
"931 835 OFFCURVE",
"1201 781 OFFCURVE",
"1434 698 CURVE"
);
},
{
closed = 1;
nodes = (
"226 635 LINE",
"206 673 LINE",
"43 663 LINE",
"51 635 LINE"
);
},
{
closed = 1;
nodes = (
"206 673 LINE",
"161 774 OFFCURVE",
"218 835 OFFCURVE",
"610 835 CURVE",
"590 960 LINE",
"100 960 OFFCURVE",
"-6 838 OFFCURVE",
"43 663 CURVE"
);
}
);
width = 272;
}
);
leftMetricsKey = "=aaMatra-deva";
script = devanagari;
category = Letter;
subCategory = Matra;
},
{
glyphname = "iMatra-deva.13";
lastChange = "2020-11-26 21:43:25 +0000";
layers = (
{
anchors = (
{
name = candra;
position = "{1056, 697}";
},
{
name = imatra;
position = "{1085, 630}";
},
{
name = top;
position = "{1141, 664}";
}
);
components = (
{
name = "aaMatra-deva";
}
);
layerId = "EA4BDF10-EAD0-47D5-9AD5-B8C643A094C2";
paths = (
{
closed = 1;
nodes = (
"1088 777 LINE",
"889 869 OFFCURVE",
"620 930 OFFCURVE",
"420 930 CURVE",
"440 873 LINE",
"608 873 OFFCURVE",
"867 814 OFFCURVE",
"1052 736 CURVE"
);
},
{
closed = 1;
nodes = (
"124 615 LINE",
"108 695 LINE",
"45 685 LINE",
"59 615 LINE"
);
},
{
closed = 1;
nodes = (
"108 695 LINE",
"91 790 OFFCURVE",
"129 873 OFFCURVE",
"440 873 CURVE",
"420 930 LINE",
"91 930 OFFCURVE",
"19 817 OFFCURVE",
"45 685 CURVE"
);
}
);
width = 190;
},
{
anchors = (
{
name = candra;
position = "{1562, 761}";
},
{
name = imatra;
position = "{1662, 660}";
},
{
name = top;
position = "{1744, 729}";
}
);
components = (
{
name = "aaMatra-deva";
}
);
layerId = "5EDCAC97-4996-4925-B8D9-EA484E9BADFC";
paths = (
{
closed = 1;
nodes = (
"1596 792 LINE",
"1314 897 OFFCURVE",
"956 960 OFFCURVE",
"615 960 CURVE",
"636 835 LINE",
"976 835 OFFCURVE",
"1261 780 OFFCURVE",
"1509 696 CURVE"
);
},
{
closed = 1;
nodes = (
"226 635 LINE",
"206 673 LINE",
"43 663 LINE",
"51 635 LINE"
);
},
{
closed = 1;
nodes = (
"206 673 LINE",
"161 774 OFFCURVE",
"218 835 OFFCURVE",
"636 835 CURVE",
"615 960 LINE",
"99 960 OFFCURVE",
"-6 838 OFFCURVE",
"43 663 CURVE"
);
}
);
width = 272;
}
);
leftMetricsKey = "=aaMatra-deva";
script = devanagari;
category = Letter;
subCategory = Matra;
},
{
glyphname = "iMatra-deva.14";
lastChange = "2020-11-26 21:43:25 +0000";
layers = (
{
anchors = (
{
name = candra;
position = "{1104, 696}";
},
{
name = imatra;
position = "{1134, 630}";
},
{
name = top;
position = "{1188, 663}";
}
);
components = (
{
name = "aaMatra-deva";
}
);
layerId = "EA4BDF10-EAD0-47D5-9AD5-B8C643A094C2";
paths = (
{
closed = 1;
nodes = (
"1137 778 LINE",
"926 869 OFFCURVE",
"644 930 OFFCURVE",
"437 930 CURVE",
"457 873 LINE",
"633 873 OFFCURVE",
"907 814 OFFCURVE",
"1103 737 CURVE"
);
},
{
closed = 1;
nodes = (
"124 615 LINE",
"109 694 LINE",
"45 683 LINE",
"59 615 LINE"
);
},
{
closed = 1;
nodes = (
"109 694 LINE",
"91 789 OFFCURVE",
"130 873 OFFCURVE",
"457 873 CURVE",
"437 930 LINE",
"91 930 OFFCURVE",
"20 816 OFFCURVE",
"45 683 CURVE"
);
}
);
width = 190;
},
{
anchors = (
{
name = candra;
position = "{1638, 759}";
},
{
name = imatra;
position = "{1737, 660}";
},
{
name = top;
position = "{1822, 723}";
}
);
components = (
{
name = "aaMatra-deva";
}
);
layerId = "5EDCAC97-4996-4925-B8D9-EA484E9BADFC";
paths = (
{
closed = 1;
nodes = (
"1669 791 LINE",
"1372 897 OFFCURVE",
"997 960 OFFCURVE",
"640 960 CURVE",
"662 836 LINE",
"1021 836 OFFCURVE",
"1322 779 OFFCURVE",
"1585 695 CURVE"
);
},
{
closed = 1;
nodes = (
"226 635 LINE",
"206 673 LINE",
"43 663 LINE",
"51 635 LINE"
);
},
{
closed = 1;
nodes = (
"206 673 LINE",
"160 775 OFFCURVE",
"219 836 OFFCURVE",
"662 836 CURVE",
"640 960 LINE",
"99 960 OFFCURVE",
"-6 839 OFFCURVE",
"43 663 CURVE"
);
}
);
width = 272;
}
);
leftMetricsKey = "=aaMatra-deva";
script = devanagari;
category = Letter;
subCategory = Matra;
},
{
glyphname = "iMatra-deva.15";
lastChange = "2020-11-26 21:43:25 +0000";
layers = (
{
anchors = (
{
name = candra;
position = "{1152, 695}";
},
{
name = imatra;
position = "{1182, 630}";
},
{
name = top;
position = "{1236, 661}";
}
);
components = (
{
name = "aaMatra-deva";
}
);
layerId = "EA4BDF10-EAD0-47D5-9AD5-B8C643A094C2";
paths = (
{
closed = 1;
nodes = (
"1186 779 LINE",
"964 869 OFFCURVE",
"667 930 OFFCURVE",
"454 930 CURVE",
"474 873 LINE",
"658 873 OFFCURVE",
"947 813 OFFCURVE",
"1154 737 CURVE"
);
},
{
closed = 1;
nodes = (
"124 615 LINE",
"109 692 LINE",
"45 682 LINE",
"59 615 LINE"
);
},
{
closed = 1;
nodes = (
"109 692 LINE",
"92 788 OFFCURVE",
"131 873 OFFCURVE",
"474 873 CURVE",
"454 930 LINE",
"92 930 OFFCURVE",
"20 814 OFFCURVE",
"45 682 CURVE"
);
}
);
width = 190;
},
{
anchors = (
{
name = candra;
position = "{1714, 756}";
},
{
name = imatra;
position = "{1812, 660}";
},
{
name = top;
position = "{1899, 718}";
}
);
components = (
{
name = "aaMatra-deva";
}
);
layerId = "5EDCAC97-4996-4925-B8D9-EA484E9BADFC";
paths = (
{
closed = 1;
nodes = (
"1742 791 LINE",
"1429 897 OFFCURVE",
"1037 960 OFFCURVE",
"665 960 CURVE",
"688 836 LINE",
"1066 836 OFFCURVE",
"1382 779 OFFCURVE",
"1661 694 CURVE"
);
},
{
closed = 1;
nodes = (
"226 635 LINE",
"206 673 LINE",
"43 663 LINE",
"51 635 LINE"
);
},
{
closed = 1;
nodes = (
"206 673 LINE",
"160 776 OFFCURVE",
"220 836 OFFCURVE",
"688 836 CURVE",
"665 960 LINE",
"99 960 OFFCURVE",
"-6 839 OFFCURVE",
"43 663 CURVE"
);
}
);
width = 272;
}
);
leftMetricsKey = "=aaMatra-deva";
script = devanagari;
category = Letter;
subCategory = Matra;
},
{
glyphname = "iMatra-deva.16";
lastChange = "2020-11-26 21:43:25 +0000";
layers = (
{
anchors = (
{
name = candra;
position = "{1200, 694}";
},
{
name = imatra;
position = "{1230, 630}";
},
{
name = top;
position = "{1284, 660}";
}
);
components = (
{
name = "aaMatra-deva";
}
);
layerId = "EA4BDF10-EAD0-47D5-9AD5-B8C643A094C2";
paths = (
{
closed = 1;
nodes = (
"1235 780 LINE",
"1002 869 OFFCURVE",
"691 930 OFFCURVE",
"471 930 CURVE",
"491 873 LINE",
"683 873 OFFCURVE",
"987 813 OFFCURVE",
"1205 737 CURVE"
);
},
{
closed = 1;
nodes = (
"124 615 LINE",
"109 691 LINE",
"46 680 LINE",
"59 615 LINE"
);
},
{
closed = 1;
nodes = (
"109 691 LINE",
"92 787 OFFCURVE",
"132 873 OFFCURVE",
"491 873 CURVE",
"471 930 LINE",
"92 930 OFFCURVE",
"20 813 OFFCURVE",
"46 680 CURVE"
);
}
);
width = 190;
},
{
anchors = (
{
name = candra;
position = "{1790, 754}";
},
{
name = imatra;
position = "{1887, 660}";
},
{
name = top;
position = "{1977, 712}";
}
);
components = (
{
name = "aaMatra-deva";
}
);
layerId = "5EDCAC97-4996-4925-B8D9-EA484E9BADFC";
paths = (
{
closed = 1;
nodes = (
"1814 791 LINE",
"1487 896 OFFCURVE",
"1077 960 OFFCURVE",
"690 960 CURVE",
"713 837 LINE",
"1110 837 OFFCURVE",
"1443 778 OFFCURVE",
"1737 692 CURVE"
);
},
{
closed = 1;
nodes = (
"226 635 LINE",
"206 673 LINE",
"43 663 LINE",
"51 635 LINE"
);
},
{
closed = 1;
nodes = (
"206 673 LINE",
"159 777 OFFCURVE",
"221 837 OFFCURVE",
"713 837 CURVE",
"690 960 LINE",
"99 960 OFFCURVE",
"-6 840 OFFCURVE",
"43 663 CURVE"
);
}
);
width = 272;
}
);
leftMetricsKey = "=aaMatra-deva";
script = devanagari;
category = Letter;
subCategory = Matra;
},
{
glyphname = "iMatra-deva.17";
lastChange = "2020-11-26 21:43:25 +0000";
layers = (
{
anchors = (
{
name = candra;
position = "{1248, 692}";
},
{
name = imatra;
position = "{1279, 630}";
},
{
name = top;
position = "{1331, 659}";
}
);
components = (
{
name = "aaMatra-deva";
}
);
layerId = "EA4BDF10-EAD0-47D5-9AD5-B8C643A094C2";
paths = (
{
closed = 1;
nodes = (
"1284 781 LINE",
"1039 869 OFFCURVE",
"714 930 OFFCURVE",
"488 930 CURVE",
"508 874 LINE",
"708 874 OFFCURVE",
"1027 813 OFFCURVE",
"1255 737 CURVE"
);
},
{
closed = 1;
nodes = (
"124 615 LINE",
"109 689 LINE",
"46 679 LINE",
"59 615 LINE"
);
},
{
closed = 1;
nodes = (
"109 689 LINE",
"92 786 OFFCURVE",
"133 874 OFFCURVE",
"508 874 CURVE",
"488 930 LINE",
"93 930 OFFCURVE",
"20 812 OFFCURVE",
"46 679 CURVE"
);
}
);
width = 190;
},
{
anchors = (
{
name = candra;
position = "{1866, 752}";
},
{
name = imatra;
position = "{1962, 660}";
},
{
name = top;
position = "{2054, 707}";
}
);
components = (
{
name = "aaMatra-deva";
}
);
layerId = "5EDCAC97-4996-4925-B8D9-EA484E9BADFC";
paths = (
{
closed = 1;
nodes = (
"1887 790 LINE",
"1544 896 OFFCURVE",
"1118 960 OFFCURVE",
"715 960 CURVE",
"739 837 LINE",
"1155 837 OFFCURVE",
"1503 778 OFFCURVE",
"1812 691 CURVE"
);
},
{
closed = 1;
nodes = (
"226 635 LINE",
"206 673 LINE",
"43 663 LINE",
"51 635 LINE"
);
},
{
closed = 1;
nodes = (
"206 673 LINE",
"159 778 OFFCURVE",
"222 837 OFFCURVE",
"739 837 CURVE",
"715 960 LINE",
"98 960 OFFCURVE",
"-6 840 OFFCURVE",
"43 663 CURVE"
);
}
);
width = 272;
}
);
leftMetricsKey = "=aaMatra-deva";
script = devanagari;
category = Letter;
subCategory = Matra;
},
{
glyphname = "iMatra-deva.18";
lastChange = "2020-11-26 21:43:25 +0000";
layers = (
{
anchors = (
{
name = candra;
position = "{1296, 691}";
},
{
name = imatra;
position = "{1327, 630}";
},
{
name = top;
position = "{1379, 658}";
}
);
components = (
{
name = "aaMatra-deva";
}
);
layerId = "EA4BDF10-EAD0-47D5-9AD5-B8C643A094C2";
paths = (
{
closed = 1;
nodes = (
"1334 782 LINE",
"1077 870 OFFCURVE",
"738 930 OFFCURVE",
"506 930 CURVE",
"526 874 LINE",
"734 874 OFFCURVE",
"1067 812 OFFCURVE",
"1306 738 CURVE"
);
},
{
closed = 1;
nodes = (
"124 615 LINE",
"110 688 LINE",
"46 678 LINE",
"59 615 LINE"
);
},
{
closed = 1;
nodes = (
"110 688 LINE",
"92 785 OFFCURVE",
"134 874 OFFCURVE",
"526 874 CURVE",
"506 930 LINE",
"94 930 OFFCURVE",
"21 811 OFFCURVE",
"46 678 CURVE"
);
}
);
width = 190;
},
{
anchors = (
{
name = candra;
position = "{1942, 750}";
},
{
name = imatra;
position = "{2037, 660}";
},
{
name = top;
position = "{2132, 701}";
}
);
components = (
{
name = "aaMatra-deva";
}
);
layerId = "5EDCAC97-4996-4925-B8D9-EA484E9BADFC";
paths = (
{
closed = 1;
nodes = (
"1960 790 LINE",
"1602 896 OFFCURVE",
"1158 960 OFFCURVE",
"740 960 CURVE",
"765 838 LINE",
"1200 838 OFFCURVE",
"1564 777 OFFCURVE",
"1888 690 CURVE"
);
},
{
closed = 1;
nodes = (
"226 635 LINE",
"206 673 LINE",
"43 663 LINE",
"51 635 LINE"
);
},
{
closed = 1;
nodes = (
"206 673 LINE",
"159 779 OFFCURVE",
"223 838 OFFCURVE",
"765 838 CURVE",
"740 960 LINE",
"98 960 OFFCURVE",
"-6 841 OFFCURVE",
"43 663 CURVE"
);
}
);
width = 272;
}
);
leftMetricsKey = "=aaMatra-deva";
script = devanagari;
category = Letter;
subCategory = Matra;
},
{
glyphname = "iMatra-deva.19";
lastChange = "2020-11-26 21:43:25 +0000";
layers = (
{
anchors = (
{
name = candra;
position = "{1343, 690}";
},
{
name = imatra;
position = "{1375, 630}";
},
{
name = top;
position = "{1427, 656}";
}
);
components = (
{
name = "aaMatra-deva";
}
);
layerId = "EA4BDF10-EAD0-47D5-9AD5-B8C643A094C2";
paths = (
{
closed = 1;
nodes = (
"1383 783 LINE",
"1115 870 OFFCURVE",
"761 930 OFFCURVE",
"523 930 CURVE",
"543 874 LINE",
"759 874 OFFCURVE",
"1107 812 OFFCURVE",
"1357 738 CURVE"
);
},
{
closed = 1;
nodes = (
"123 615 LINE",
"110 686 LINE",
"47 676 LINE",
"59 615 LINE"
);
},
{
closed = 1;
nodes = (
"110 686 LINE",
"92 784 OFFCURVE",
"134 874 OFFCURVE",
"543 874 CURVE",
"523 930 LINE",
"94 930 OFFCURVE",
"21 809 OFFCURVE",
"47 676 CURVE"
);
}
);
width = 190;
},
{
anchors = (
{
name = candra;
position = "{2018, 747}";
},
{
name = imatra;
position = "{2112, 660}";
},
{
name = top;
position = "{2209, 696}";
}
);
components = (
{
name = "aaMatra-deva";
}
);
layerId = "5EDCAC97-4996-4925-B8D9-EA484E9BADFC";
paths = (
{
closed = 1;
nodes = (
"2032 790 LINE",
"1659 896 OFFCURVE",
"1198 960 OFFCURVE",
"765 960 CURVE",
"791 838 LINE",
"1245 838 OFFCURVE",
"1624 777 OFFCURVE",
"1964 688 CURVE"
);
},
{
closed = 1;
nodes = (
"226 635 LINE",
"206 673 LINE",
"43 663 LINE",
"51 635 LINE"
);
},
{
closed = 1;
nodes = (
"206 673 LINE",
"158 780 OFFCURVE",
"224 838 OFFCURVE",
"791 838 CURVE",
"765 960 LINE",
"98 960 OFFCURVE",
"-6 841 OFFCURVE",
"43 663 CURVE"
);
}
);
width = 272;
}
);
leftMetricsKey = "=aaMatra-deva";
script = devanagari;
category = Letter;
subCategory = Matra;
},
{
glyphname = "iMatra-deva.20";
lastChange = "2020-11-26 21:43:25 +0000";
layers = (
{
anchors = (
{
name = candra;
position = "{1391, 689}";
},
{
name = imatra;
position = "{1424, 630}";
},
{
name = top;
position = "{1474, 655}";
}
);
components = (
{
name = "aaMatra-deva";
}
);
layerId = "EA4BDF10-EAD0-47D5-9AD5-B8C643A094C2";
paths = (
{
closed = 1;
nodes = (
"1432 784 LINE",
"1152 870 OFFCURVE",
"784 930 OFFCURVE",
"540 930 CURVE",
"560 874 LINE",
"784 874 OFFCURVE",
"1147 812 OFFCURVE",
"1408 738 CURVE"
);
},
{
closed = 1;
nodes = (
"123 615 LINE",
"110 685 LINE",
"47 675 LINE",
"59 615 LINE"
);
},
{
closed = 1;
nodes = (
"110 685 LINE",
"92 783 OFFCURVE",
"135 874 OFFCURVE",
"560 874 CURVE",
"540 930 LINE",
"95 930 OFFCURVE",
"21 808 OFFCURVE",
"47 675 CURVE"
);
}
);
width = 190;
},
{
anchors = (
{
name = candra;
position = "{2094, 745}";
},
{
name = imatra;
position = "{2187, 660}";
},
{
name = top;
position = "{2287, 690}";
}
);
components = (
{
name = "aaMatra-deva";
}
);
layerId = "5EDCAC97-4996-4925-B8D9-EA484E9BADFC";
paths = (
{
closed = 1;
nodes = (
"2105 789 LINE",
"1717 896 OFFCURVE",
"1239 960 OFFCURVE",
"790 960 CURVE",
"817 838 LINE",
"1290 838 OFFCURVE",
"1684 776 OFFCURVE",
"2040 687 CURVE"
);
},
{
closed = 1;
nodes = (
"226 635 LINE",
"206 673 LINE",
"43 663 LINE",
"51 635 LINE"
);
},
{
closed = 1;
nodes = (
"206 673 LINE",
"158 781 OFFCURVE",
"225 838 OFFCURVE",
"817 838 CURVE",
"790 960 LINE",
"98 960 OFFCURVE",
"-7 841 OFFCURVE",
"43 663 CURVE"
);
}
);
width = 272;
}
);
leftMetricsKey = "=aaMatra-deva";
script = devanagari;
category = Letter;
subCategory = Matra;
},
{
glyphname = "iMatra-deva.21";
lastChange = "2020-11-26 21:43:25 +0000";
layers = (
{
anchors = (
{
name = candra;
position = "{1439, 688}";
},
{
name = imatra;
position = "{1472, 630}";
},
{
name = top;
position = "{1522, 654}";
}
);
components = (
{
name = "aaMatra-deva";
}
);
layerId = "EA4BDF10-EAD0-47D5-9AD5-B8C643A094C2";
paths = (
{
closed = 1;
nodes = (
"1481 785 LINE",
"1190 870 OFFCURVE",
"808 930 OFFCURVE",
"557 930 CURVE",
"577 874 LINE",
"809 874 OFFCURVE",
"1187 811 OFFCURVE",
"1459 738 CURVE"
);
},
{
closed = 1;
nodes = (
"123 615 LINE",
"110 683 LINE",
"47 673 LINE",
"59 615 LINE"
);
},
{
closed = 1;
nodes = (
"110 683 LINE",
"93 782 OFFCURVE",
"136 874 OFFCURVE",
"577 874 CURVE",
"557 930 LINE",
"95 930 OFFCURVE",
"21 807 OFFCURVE",
"47 673 CURVE"
);
}
);
width = 190;
},
{
anchors = (
{
name = candra;
position = "{2169, 743}";
},
{
name = imatra;
position = "{2262, 660}";
},
{
name = top;
position = "{2364, 685}";
}
);
components = (
{
name = "aaMatra-deva";
}
);
layerId = "5EDCAC97-4996-4925-B8D9-EA484E9BADFC";
paths = (
{
closed = 1;
nodes = (
"2178 789 LINE",
"1774 896 OFFCURVE",
"1279 960 OFFCURVE",
"815 960 CURVE",
"843 839 LINE",
"1335 839 OFFCURVE",
"1745 776 OFFCURVE",
"2116 686 CURVE"
);
},
{
closed = 1;
nodes = (
"226 635 LINE",
"206 673 LINE",
"43 663 LINE",
"51 635 LINE"
);
},
{
closed = 1;
nodes = (
"206 673 LINE",
"157 781 OFFCURVE",
"226 839 OFFCURVE",
"843 839 CURVE",
"815 960 LINE",
"98 960 OFFCURVE",
"-7 842 OFFCURVE",
"43 663 CURVE"
);
}
);
width = 272;
}
);
leftMetricsKey = "=aaMatra-deva";
script = devanagari;
category = Letter;
subCategory = Matra;
},
{
glyphname = "iMatra-deva.22";
lastChange = "2020-11-26 21:43:25 +0000";
layers = (
{
anchors = (
{
name = candra;
position = "{1487, 686}";
},
{
name = imatra;
position = "{1520, 630}";
},
{
name = top;
position = "{1570, 653}";
}
);
components = (
{
name = "aaMatra-deva";
}
);
layerId = "EA4BDF10-EAD0-47D5-9AD5-B8C643A094C2";
paths = (
{
closed = 1;
nodes = (
"1530 786 LINE",
"1228 870 OFFCURVE",
"831 930 OFFCURVE",
"574 930 CURVE",
"594 875 LINE",
"834 875 OFFCURVE",
"1227 811 OFFCURVE",
"1509 739 CURVE"
);
},
{
closed = 1;
nodes = (
"123 615 LINE",
"111 682 LINE",
"47 672 LINE",
"59 615 LINE"
);
},
{
closed = 1;
nodes = (
"111 682 LINE",
"93 781 OFFCURVE",
"137 875 OFFCURVE",
"594 875 CURVE",
"574 930 LINE",
"96 930 OFFCURVE",
"22 806 OFFCURVE",
"47 672 CURVE"
);
}
);
width = 190;
},
{
anchors = (
{
name = candra;
position = "{2245, 741}";
},
{
name = imatra;
position = "{2337, 660}";
},
{
name = top;
position = "{2442, 679}";
}
);
components = (
{
name = "aaMatra-deva";
}
);
layerId = "5EDCAC97-4996-4925-B8D9-EA484E9BADFC";
paths = (
{
closed = 1;
nodes = (
"2251 789 LINE",
"1832 895 OFFCURVE",
"1319 960 OFFCURVE",
"840 960 CURVE",
"868 839 LINE",
"1379 839 OFFCURVE",
"1805 775 OFFCURVE",
"2191 685 CURVE"
);
},
{
closed = 1;
nodes = (
"226 635 LINE",
"206 673 LINE",
"43 663 LINE",
"51 635 LINE"
);
},
{
closed = 1;
nodes = (
"206 673 LINE",
"157 782 OFFCURVE",
"227 839 OFFCURVE",
"868 839 CURVE",
"840 960 LINE",
"97 960 OFFCURVE",
"-7 842 OFFCURVE",
"43 663 CURVE"
);
}
);
width = 272;
}
);
leftMetricsKey = "=aaMatra-deva";
script = devanagari;
category = Letter;
subCategory = Matra;
},
{
glyphname = "iMatra-deva.23";
lastChange = "2020-11-26 21:43:25 +0000";
layers = (
{
anchors = (
{
name = candra;
position = "{1535, 685}";
},
{
name = imatra;
position = "{1569, 630}";
},
{
name = top;
position = "{1617, 651}";
}
);
components = (
{
name = "aaMatra-deva";
}
);
layerId = "EA4BDF10-EAD0-47D5-9AD5-B8C643A094C2";
paths = (
{
closed = 1;
nodes = (
"1579 787 LINE",
"1265 870 OFFCURVE",
"855 930 OFFCURVE",
"591 930 CURVE",
"611 875 LINE",
"859 875 OFFCURVE",
"1267 810 OFFCURVE",
"1560 739 CURVE"
);
},
{
closed = 1;
nodes = (
"123 615 LINE",
"111 680 LINE",
"48 670 LINE",
"59 615 LINE"
);
},
{
closed = 1;
nodes = (
"111 680 LINE",
"93 780 OFFCURVE",
"138 875 OFFCURVE",
"611 875 CURVE",
"591 930 LINE",
"96 930 OFFCURVE",
"22 804 OFFCURVE",
"48 670 CURVE"
);
}
);
width = 190;
},
{
anchors = (
{
name = candra;
position = "{2321, 738}";
},
{
name = imatra;
position = "{2412, 660}";
},
{
name = top;
position = "{2519, 674}";
}
);
components = (
{
name = "aaMatra-deva";
}
);
layerId = "5EDCAC97-4996-4925-B8D9-EA484E9BADFC";
paths = (
{
closed = 1;
nodes = (
"2323 788 LINE",
"1889 895 OFFCURVE",
"1360 960 OFFCURVE",
"865 960 CURVE",
"894 840 LINE",
"1424 840 OFFCURVE",
"1866 775 OFFCURVE",
"2267 683 CURVE"
);
},
{
closed = 1;
nodes = (
"226 635 LINE",
"206 673 LINE",
"43 663 LINE",
"51 635 LINE"
);
},
{
closed = 1;
nodes = (
"206 673 LINE",
"156 783 OFFCURVE",
"228 840 OFFCURVE",
"894 840 CURVE",
"865 960 LINE",
"97 960 OFFCURVE",
"-7 843 OFFCURVE",
"43 663 CURVE"
);
}
);
width = 272;
}
);
leftMetricsKey = "=aaMatra-deva";
script = devanagari;
category = Letter;
subCategory = Matra;
},
{
glyphname = "iMatra-deva.24";
lastChange = "2020-11-26 21:43:25 +0000";
layers = (
{
anchors = (
{
name = candra;
position = "{1583, 684}";
},
{
name = imatra;
position = "{1617, 630}";
},
{
name = top;
position = "{1665, 650}";
}
);
components = (
{
name = "aaMatra-deva";
}
);
layerId = "EA4BDF10-EAD0-47D5-9AD5-B8C643A094C2";
paths = (
{
closed = 1;
nodes = (
"1628 788 LINE",
"1303 870 OFFCURVE",
"878 930 OFFCURVE",
"608 930 CURVE",
"628 875 LINE",
"884 875 OFFCURVE",
"1307 810 OFFCURVE",
"1611 739 CURVE"
);
},
{
closed = 1;
nodes = (
"123 615 LINE",
"111 679 LINE",
"48 669 LINE",
"59 615 LINE"
);
},
{
closed = 1;
nodes = (
"111 679 LINE",
"93 779 OFFCURVE",
"139 875 OFFCURVE",
"628 875 CURVE",
"608 930 LINE",
"97 930 OFFCURVE",
"22 803 OFFCURVE",
"48 669 CURVE"
);
}
);
width = 190;
},
{
anchors = (
{
name = candra;
position = "{2397, 736}";
},
{
name = imatra;
position = "{2487, 660}";
},
{
name = top;
position = "{2597, 668}";
}
);
components = (
{
name = "aaMatra-deva";
}
);
layerId = "5EDCAC97-4996-4925-B8D9-EA484E9BADFC";
paths = (
{
closed = 1;
nodes = (
"2396 788 LINE",
"1947 895 OFFCURVE",
"1400 960 OFFCURVE",
"890 960 CURVE",
"920 840 LINE",
"1469 840 OFFCURVE",
"1926 774 OFFCURVE",
"2343 682 CURVE"
);
},
{
closed = 1;
nodes = (
"226 635 LINE",
"206 673 LINE",
"43 663 LINE",
"51 635 LINE"
);
},
{
closed = 1;
nodes = (
"206 673 LINE",
"156 784 OFFCURVE",
"229 840 OFFCURVE",
"920 840 CURVE",
"890 960 LINE",
"97 960 OFFCURVE",
"-7 843 OFFCURVE",
"43 663 CURVE"
);
}
);
width = 272;
}
);
leftMetricsKey = "=aaMatra-deva";
script = devanagari;
category = Letter;
subCategory = Matra;
},
{
glyphname = "iMatra_anusvara-deva.01";
lastChange = "2020-11-26 21:43:25 +0000";
layers = (
{
anchors = (
{
name = candra;
position = "{481, 712}";
},
{
name = imatra;
position = "{505, 630}";
},
{
name = top;
position = "{569, 679}";
}
);
components = (
{
name = "aaMatra-deva";
},
{
name = "anusvara-deva";
transform = "{1, 0, 0, 1, 525, 152}";
}
);
layerId = "EA4BDF10-EAD0-47D5-9AD5-B8C643A094C2";
paths = (
{
closed = 1;
nodes = (
"499 764 LINE",
"437 868 OFFCURVE",
"339 930 OFFCURVE",
"215 930 CURVE",
"235 870 LINE",
"307 870 OFFCURVE",
"386 819 OFFCURVE",
"443 733 CURVE"
);
},
{
closed = 1;
nodes = (
"125 615 LINE",
"105 713 LINE",
"41 702 LINE",
"59 615 LINE"
);
},
{
closed = 1;
nodes = (
"105 713 LINE",
"89 803 OFFCURVE",
"118 870 OFFCURVE",
"235 870 CURVE",
"215 930 LINE",
"84 930 OFFCURVE",
"16 832 OFFCURVE",
"41 702 CURVE"
);
}
);
width = 190;
},
{
anchors = (
{
name = candra;
position = "{652, 788}";
},
{
name = imatra;
position = "{762, 660}";
},
{
name = top;
position = "{814, 795}";
}
);
components = (
{
name = "aaMatra-deva";
},
{
name = "anusvara-deva";
transform = "{1, 0, 0, 1, 779, 144}";
}
);
layerId = "5EDCAC97-4996-4925-B8D9-EA484E9BADFC";
paths = (
{
closed = 1;
nodes = (
"724 796 LINE",
"624 899 OFFCURVE",
"472 960 OFFCURVE",
"315 960 CURVE",
"326 830 LINE",
"438 830 OFFCURVE",
"536 786 OFFCURVE",
"600 712 CURVE"
);
},
{
closed = 1;
nodes = (
"226 635 LINE",
"206 673 LINE",
"43 663 LINE",
"51 635 LINE"
);
},
{
closed = 1;
nodes = (
"206 673 LINE",
"166 764 OFFCURVE",
"207 830 OFFCURVE",
"326 830 CURVE",
"315 960 LINE",
"102 960 OFFCURVE",
"-4 833 OFFCURVE",
"43 663 CURVE"
);
}
);
width = 272;
}
);
leftMetricsKey = "=aaMatra-deva";
},
{
glyphname = "iMatra_anusvara-deva.02";
lastChange = "2020-11-26 21:43:25 +0000";
layers = (
{
anchors = (
{
name = candra;
position = "{529, 711}";
},
{
name = imatra;
position = "{554, 630}";
},
{
name = top;
position = "{616, 677}";
}
);
components = (
{
name = "aaMatra-deva";
},
{
name = "anusvara-deva";
transform = "{1, 0, 0, 1, 574, 153}";
}
);
layerId = "EA4BDF10-EAD0-47D5-9AD5-B8C643A094C2";
paths = (
{
closed = 1;
nodes = (
"548 765 LINE",
"474 868 OFFCURVE",
"363 930 OFFCURVE",
"232 930 CURVE",
"252 870 LINE",
"332 870 OFFCURVE",
"426 818 OFFCURVE",
"494 734 CURVE"
);
},
{
closed = 1;
nodes = (
"125 615 LINE",
"106 711 LINE",
"42 700 LINE",
"59 615 LINE"
);
},
{
closed = 1;
nodes = (
"106 711 LINE",
"89 802 OFFCURVE",
"119 870 OFFCURVE",
"252 870 CURVE",
"232 930 LINE",
"84 930 OFFCURVE",
"17 830 OFFCURVE",
"42 700 CURVE"
);
}
);
width = 190;
},
{
anchors = (
{
name = candra;
position = "{728, 786}";
},
{
name = imatra;
position = "{837, 660}";
},
{
name = top;
position = "{891, 789}";
}
);
components = (
{
name = "aaMatra-deva";
},
{
name = "anusvara-deva";
transform = "{1, 0, 0, 1, 850, 146}";
}
);
layerId = "5EDCAC97-4996-4925-B8D9-EA484E9BADFC";
paths = (
{
closed = 1;
nodes = (
"796 795 LINE",
"681 899 OFFCURVE",
"513 960 OFFCURVE",
"340 960 CURVE",
"352 831 LINE",
"483 831 OFFCURVE",
"597 786 OFFCURVE",
"676 710 CURVE"
);
},
{
closed = 1;
nodes = (
"226 635 LINE",
"206 673 LINE",
"43 663 LINE",
"51 635 LINE"
);
},
{
closed = 1;
nodes = (
"206 673 LINE",
"165 765 OFFCURVE",
"208 831 OFFCURVE",
"352 831 CURVE",
"340 960 LINE",
"102 960 OFFCURVE",
"-4 834 OFFCURVE",
"43 663 CURVE"
);
}
);
width = 272;
}
);
leftMetricsKey = "=aaMatra-deva";
},
{
glyphname = "iMatra_anusvara-deva.03";
lastChange = "2020-11-26 21:43:25 +0000";
layers = (
{
anchors = (
{
name = candra;
position = "{577, 709}";
},
{
name = imatra;
position = "{602, 630}";
},
{
name = top;
position = "{664, 676}";
}
);
components = (
{
name = "aaMatra-deva";
},
{
name = "anusvara-deva";
transform = "{1, 0, 0, 1, 622, 153}";
}
);
layerId = "EA4BDF10-EAD0-47D5-9AD5-B8C643A094C2";
paths = (
{
closed = 1;
nodes = (
"597 766 LINE",
"512 868 OFFCURVE",
"386 930 OFFCURVE",
"249 930 CURVE",
"269 871 LINE",
"357 871 OFFCURVE",
"466 818 OFFCURVE",
"544 734 CURVE"
);
},
{
closed = 1;
nodes = (
"125 615 LINE",
"106 710 LINE",
"42 699 LINE",
"59 615 LINE"
);
},
{
closed = 1;
nodes = (
"106 710 LINE",
"90 801 OFFCURVE",
"120 871 OFFCURVE",
"269 871 CURVE",
"249 930 LINE",
"85 930 OFFCURVE",
"17 829 OFFCURVE",
"42 699 CURVE"
);
}
);
width = 190;
},
{
anchors = (
{
name = candra;
position = "{804, 783}";
},
{
name = imatra;
position = "{912, 660}";
},
{
name = top;
position = "{969, 784}";
}
);
components = (
{
name = "aaMatra-deva";
},
{
name = "anusvara-deva";
transform = "{1, 0, 0, 1, 922, 148}";
}
);
layerId = "5EDCAC97-4996-4925-B8D9-EA484E9BADFC";
paths = (
{
closed = 1;
nodes = (
"869 795 LINE",
"739 899 OFFCURVE",
"553 960 OFFCURVE",
"365 960 CURVE",
"378 831 LINE",
"528 831 OFFCURVE",
"657 785 OFFCURVE",
"751 709 CURVE"
);
},
{
closed = 1;
nodes = (
"226 635 LINE",
"206 673 LINE",
"43 663 LINE",
"51 635 LINE"
);
},
{
closed = 1;
nodes = (
"206 673 LINE",
"165 766 OFFCURVE",
"209 831 OFFCURVE",
"378 831 CURVE",
"365 960 LINE",
"101 960 OFFCURVE",
"-4 834 OFFCURVE",
"43 663 CURVE"
);
}
);
width = 272;
}
);
leftMetricsKey = "=aaMatra-deva";
},
{
glyphname = "iMatra_anusvara-deva.04";
lastChange = "2020-11-26 21:43:25 +0000";
layers = (
{
anchors = (
{
name = candra;
position = "{625, 708}";
},
{
name = imatra;
position = "{650, 630}";
},
{
name = top;
position = "{712, 675}";
}
);
components = (
{
name = "aaMatra-deva";
},
{
name = "anusvara-deva";
transform = "{1, 0, 0, 1, 670, 154}";
}
);
layerId = "EA4BDF10-EAD0-47D5-9AD5-B8C643A094C2";
paths = (
{
closed = 1;
nodes = (
"646 767 LINE",
"550 868 OFFCURVE",
"410 930 OFFCURVE",
"266 930 CURVE",
"286 871 LINE",
"382 871 OFFCURVE",
"506 818 OFFCURVE",
"595 734 CURVE"
);
},
{
closed = 1;
nodes = (
"125 615 LINE",
"106 708 LINE",
"42 697 LINE",
"59 615 LINE"
);
},
{
closed = 1;
nodes = (
"106 708 LINE",
"90 800 OFFCURVE",
"121 871 OFFCURVE",
"286 871 CURVE",
"266 930 LINE",
"85 930 OFFCURVE",
"17 828 OFFCURVE",
"42 697 CURVE"
);
}
);
width = 190;
},
{
anchors = (
{
name = candra;
position = "{880, 781}";
},
{
name = imatra;
position = "{987, 660}";
},
{
name = top;
position = "{1046, 778}";
}
);
components = (
{
name = "aaMatra-deva";
},
{
name = "anusvara-deva";
transform = "{1, 0, 0, 1, 994, 150}";
}
);
layerId = "5EDCAC97-4996-4925-B8D9-EA484E9BADFC";
paths = (
{
closed = 1;
nodes = (
"942 795 LINE",
"796 898 OFFCURVE",
"593 960 OFFCURVE",
"390 960 CURVE",
"403 832 LINE",
"572 832 OFFCURVE",
"718 785 OFFCURVE",
"827 708 CURVE"
);
},
{
closed = 1;
nodes = (
"226 635 LINE",
"206 673 LINE",
"43 663 LINE",
"51 635 LINE"
);
},
{
closed = 1;
nodes = (
"206 673 LINE",
"164 767 OFFCURVE",
"210 832 OFFCURVE",
"403 832 CURVE",
"390 960 LINE",
"101 960 OFFCURVE",
"-5 835 OFFCURVE",
"43 663 CURVE"
);
}
);
width = 272;
}
);
leftMetricsKey = "=aaMatra-deva";
},
{
glyphname = "iMatra_anusvara-deva.05";
lastChange = "2020-11-26 21:43:25 +0000";
layers = (
{
anchors = (
{
name = candra;
position = "{673, 707}";
},
{
name = imatra;
position = "{699, 630}";
},
{
name = top;
position = "{759, 674}";
}
);
components = (
{
name = "aaMatra-deva";
},
{
name = "anusvara-deva";
transform = "{1, 0, 0, 1, 719, 154}";
}
);
layerId = "EA4BDF10-EAD0-47D5-9AD5-B8C643A094C2";
paths = (
{
closed = 1;
nodes = (
"695 768 LINE",
"587 868 OFFCURVE",
"433 930 OFFCURVE",
"283 930 CURVE",
"303 871 LINE",
"407 871 OFFCURVE",
"546 817 OFFCURVE",
"646 734 CURVE"
);
},
{
closed = 1;
nodes = (
"125 615 LINE",
"106 707 LINE",
"42 696 LINE",
"59 615 LINE"
);
},
{
closed = 1;
nodes = (
"106 707 LINE",
"90 799 OFFCURVE",
"122 871 OFFCURVE",
"303 871 CURVE",
"283 930 LINE",
"86 930 OFFCURVE",
"17 827 OFFCURVE",
"42 696 CURVE"
);
}
);
width = 190;
},
{
anchors = (
{
name = candra;
position = "{955, 779}";
},
{
name = imatra;
position = "{1062, 660}";
},
{
name = top;
position = "{1124, 773}";
}
);
components = (
{
name = "aaMatra-deva";
},
{
name = "anusvara-deva";
transform = "{1, 0, 0, 1, 1065, 152}";
}
);
layerId = "5EDCAC97-4996-4925-B8D9-EA484E9BADFC";
paths = (
{
closed = 1;
nodes = (
"1015 794 LINE",
"854 898 OFFCURVE",
"634 960 OFFCURVE",
"415 960 CURVE",
"429 832 LINE",
"617 832 OFFCURVE",
"778 784 OFFCURVE",
"903 707 CURVE"
);
},
{
closed = 1;
nodes = (
"226 635 LINE",
"206 673 LINE",
"43 663 LINE",
"51 635 LINE"
);
},
{
closed = 1;
nodes = (
"206 673 LINE",
"164 767 OFFCURVE",
"211 832 OFFCURVE",
"429 832 CURVE",
"415 960 LINE",
"101 960 OFFCURVE",
"-5 835 OFFCURVE",
"43 663 CURVE"
);
}
);
width = 272;
}
);
leftMetricsKey = "=aaMatra-deva";
},
{
glyphname = "iMatra_anusvara-deva.06";
lastChange = "2020-11-26 21:43:25 +0000";
layers = (
{
anchors = (
{
name = candra;
position = "{721, 706}";
},
{
name = imatra;
position = "{747, 630}";
},
{
name = top;
position = "{807, 673}";
}
);
components = (
{
name = "aaMatra-deva";
},
{
name = "anusvara-deva";
transform = "{1, 0, 0, 1, 767, 155}";
}
);
layerId = "EA4BDF10-EAD0-47D5-9AD5-B8C643A094C2";
paths = (
{
closed = 1;
nodes = (
"745 769 LINE",
"625 869 OFFCURVE",
"457 930 OFFCURVE",
"301 930 CURVE",
"321 871 LINE",
"433 871 OFFCURVE",
"586 817 OFFCURVE",
"697 735 CURVE"
);
},
{
closed = 1;
nodes = (
"125 615 LINE",
"107 705 LINE",
"43 695 LINE",
"59 615 LINE"
);
},
{
closed = 1;
nodes = (
"107 705 LINE",
"90 798 OFFCURVE",
"123 871 OFFCURVE",
"321 871 CURVE",
"301 930 LINE",
"87 930 OFFCURVE",
"18 826 OFFCURVE",
"43 695 CURVE"
);
}
);
width = 190;
},
{
anchors = (
{
name = candra;
position = "{1031, 777}";
},
{
name = imatra;
position = "{1137, 660}";
},
{
name = top;
position = "{1201, 767}";
}
);
components = (
{
name = "aaMatra-deva";
},
{
name = "anusvara-deva";
transform = "{1, 0, 0, 1, 1137, 155}";
}
);
layerId = "5EDCAC97-4996-4925-B8D9-EA484E9BADFC";
paths = (
{
closed = 1;
nodes = (
"1087 794 LINE",
"911 898 OFFCURVE",
"674 960 OFFCURVE",
"440 960 CURVE",
"455 833 LINE",
"662 833 OFFCURVE",
"839 784 OFFCURVE",
"979 705 CURVE"
);
},
{
closed = 1;
nodes = (
"226 635 LINE",
"206 673 LINE",
"43 663 LINE",
"51 635 LINE"
);
},
{
closed = 1;
nodes = (
"206 673 LINE",
"164 768 OFFCURVE",
"212 833 OFFCURVE",
"455 833 CURVE",
"440 960 LINE",
"101 960 OFFCURVE",
"-5 836 OFFCURVE",
"43 663 CURVE"
);
}
);
width = 272;
}
);
leftMetricsKey = "=aaMatra-deva";
},
{
glyphname = "iMatra_anusvara-deva.07";
lastChange = "2020-11-26 21:43:25 +0000";
layers = (
{
anchors = (
{
name = candra;
position = "{768, 705}";
},
{
name = imatra;
position = "{795, 630}";
},
{
name = top;
position = "{855, 671}";
}
);
components = (
{
name = "aaMatra-deva";
},
{
name = "anusvara-deva";
transform = "{1, 0, 0, 1, 815, 155}";
}
);
layerId = "EA4BDF10-EAD0-47D5-9AD5-B8C643A094C2";
paths = (
{
closed = 1;
nodes = (
"794 770 LINE",
"663 869 OFFCURVE",
"480 930 OFFCURVE",
"318 930 CURVE",
"338 871 LINE",
"458 871 OFFCURVE",
"626 816 OFFCURVE",
"748 735 CURVE"
);
},
{
closed = 1;
nodes = (
"124 615 LINE",
"107 704 LINE",
"43 693 LINE",
"59 615 LINE"
);
},
{
closed = 1;
nodes = (
"107 704 LINE",
"90 797 OFFCURVE",
"123 871 OFFCURVE",
"338 871 CURVE",
"318 930 LINE",
"87 930 OFFCURVE",
"18 824 OFFCURVE",
"43 693 CURVE"
);
}
);
width = 190;
},
{
anchors = (
{
name = candra;
position = "{1107, 774}";
},
{
name = imatra;
position = "{1212, 660}";
},
{
name = top;
position = "{1279, 762}";
}
);
components = (
{
name = "aaMatra-deva";
},
{
name = "anusvara-deva";
transform = "{1, 0, 0, 1, 1209, 157}";
}
);
layerId = "5EDCAC97-4996-4925-B8D9-EA484E9BADFC";
paths = (
{
closed = 1;
nodes = (
"1160 794 LINE",
"969 898 OFFCURVE",
"714 960 OFFCURVE",
"465 960 CURVE",
"481 833 LINE",
"707 833 OFFCURVE",
"899 783 OFFCURVE",
"1055 704 CURVE"
);
},
{
closed = 1;
nodes = (
"226 635 LINE",
"206 673 LINE",
"43 663 LINE",
"51 635 LINE"
);
},
{
closed = 1;
nodes = (
"206 673 LINE",
"163 769 OFFCURVE",
"213 833 OFFCURVE",
"481 833 CURVE",
"465 960 LINE",
"101 960 OFFCURVE",
"-5 836 OFFCURVE",
"43 663 CURVE"
);
}
);
width = 272;
}
);
leftMetricsKey = "=aaMatra-deva";
},
{
glyphname = "iMatra_anusvara-deva.08";
lastChange = "2020-11-26 21:43:25 +0000";
layers = (
{
anchors = (
{
name = candra;
position = "{816, 703}";
},
{
name = imatra;
position = "{844, 630}";
},
{
name = top;
position = "{902, 670}";
}
);
components = (
{
name = "aaMatra-deva";
},
{
name = "anusvara-deva";
transform = "{1, 0, 0, 1, 864, 155}";
}
);
layerId = "EA4BDF10-EAD0-47D5-9AD5-B8C643A094C2";
paths = (
{
closed = 1;
nodes = (
"843 771 LINE",
"700 869 OFFCURVE",
"503 930 OFFCURVE",
"335 930 CURVE",
"355 872 LINE",
"483 872 OFFCURVE",
"666 816 OFFCURVE",
"798 735 CURVE"
);
},
{
closed = 1;
nodes = (
"124 615 LINE",
"107 702 LINE",
"43 692 LINE",
"59 615 LINE"
);
},
{
closed = 1;
nodes = (
"107 702 LINE",
"90 796 OFFCURVE",
"124 872 OFFCURVE",
"355 872 CURVE",
"335 930 LINE",
"88 930 OFFCURVE",
"18 823 OFFCURVE",
"43 692 CURVE"
);
}
);
width = 190;
},
{
anchors = (
{
name = candra;
position = "{1183, 772}";
},
{
name = imatra;
position = "{1287, 660}";
},
{
name = top;
position = "{1356, 756}";
}
);
components = (
{
name = "aaMatra-deva";
},
{
name = "anusvara-deva";
transform = "{1, 0, 0, 1, 1280, 159}";
}
);
layerId = "5EDCAC97-4996-4925-B8D9-EA484E9BADFC";
paths = (
{
closed = 1;
nodes = (
"1233 793 LINE",
"1026 898 OFFCURVE",
"755 960 OFFCURVE",
"490 960 CURVE",
"507 833 LINE",
"752 833 OFFCURVE",
"959 783 OFFCURVE",
"1130 703 CURVE"
);
},
{
closed = 1;
nodes = (
"226 635 LINE",
"206 673 LINE",
"43 663 LINE",
"51 635 LINE"
);
},
{
closed = 1;
nodes = (
"206 673 LINE",
"163 770 OFFCURVE",
"214 833 OFFCURVE",
"507 833 CURVE",
"490 960 LINE",
"100 960 OFFCURVE",
"-5 836 OFFCURVE",
"43 663 CURVE"
);
}
);
width = 272;
}
);
leftMetricsKey = "=aaMatra-deva";
},
{
glyphname = "iMatra_anusvara-deva.09";
lastChange = "2020-11-26 21:43:25 +0000";
layers = (
{
anchors = (
{
name = candra;
position = "{864, 702}";
},
{
name = imatra;
position = "{892, 630}";
},
{
name = top;
position = "{950, 669}";
}
);
components = (
{
name = "aaMatra-deva";
},
{
name = "anusvara-deva";
transform = "{1, 0, 0, 1, 912, 156}";
}
);
layerId = "EA4BDF10-EAD0-47D5-9AD5-B8C643A094C2";
paths = (
{
closed = 1;
nodes = (
"892 772 LINE",
"738 869 OFFCURVE",
"527 930 OFFCURVE",
"352 930 CURVE",
"372 872 LINE",
"508 872 OFFCURVE",
"706 816 OFFCURVE",
"849 735 CURVE"
);
},
{
closed = 1;
nodes = (
"124 615 LINE",
"107 701 LINE",
"44 690 LINE",
"59 615 LINE"
);
},
{
closed = 1;
nodes = (
"107 701 LINE",
"91 795 OFFCURVE",
"125 872 OFFCURVE",
"372 872 CURVE",
"352 930 LINE",
"88 930 OFFCURVE",
"18 822 OFFCURVE",
"44 690 CURVE"
);
}
);
width = 190;
},
{
anchors = (
{
name = candra;
position = "{1259, 770}";
},
{
name = imatra;
position = "{1362, 660}";
},
{
name = top;
position = "{1434, 751}";
}
);
components = (
{
name = "aaMatra-deva";
},
{
name = "anusvara-deva";
transform = "{1, 0, 0, 1, 1352, 161}";
}
);
layerId = "5EDCAC97-4996-4925-B8D9-EA484E9BADFC";
paths = (
{
closed = 1;
nodes = (
"1305 793 LINE",
"1084 898 OFFCURVE",
"795 960 OFFCURVE",
"515 960 CURVE",
"533 834 LINE",
"797 834 OFFCURVE",
"1020 782 OFFCURVE",
"1206 701 CURVE"
);
},
{
closed = 1;
nodes = (
"226 635 LINE",
"206 673 LINE",
"43 663 LINE",
"51 635 LINE"
);
},
{
closed = 1;
nodes = (
"206 673 LINE",
"162 771 OFFCURVE",
"215 834 OFFCURVE",
"533 834 CURVE",
"515 960 LINE",
"100 960 OFFCURVE",
"-5 837 OFFCURVE",
"43 663 CURVE"
);
}
);
width = 272;
}
);
leftMetricsKey = "=aaMatra-deva";
},
{
glyphname = "iMatra_anusvara-deva.10";
lastChange = "2020-11-26 21:43:25 +0000";
layers = (
{
anchors = (
{
name = candra;
position = "{912, 701}";
},
{
name = imatra;
position = "{940, 630}";
},
{
name = top;
position = "{998, 668}";
}
);
components = (
{
name = "aaMatra-deva";
},
{
name = "anusvara-deva";
transform = "{1, 0, 0, 1, 960, 156}";
}
);
layerId = "EA4BDF10-EAD0-47D5-9AD5-B8C643A094C2";
paths = (
{
closed = 1;
nodes = (
"941 773 LINE",
"776 869 OFFCURVE",
"550 930 OFFCURVE",
"369 930 CURVE",
"389 872 LINE",
"533 872 OFFCURVE",
"746 815 OFFCURVE",
"900 736 CURVE"
);
},
{
closed = 1;
nodes = (
"124 615 LINE",
"108 699 LINE",
"44 689 LINE",
"59 615 LINE"
);
},
{
closed = 1;
nodes = (
"108 699 LINE",
"91 794 OFFCURVE",
"126 872 OFFCURVE",
"389 872 CURVE",
"369 930 LINE",
"89 930 OFFCURVE",
"19 821 OFFCURVE",
"44 689 CURVE"
);
}
);
width = 190;
},
{
anchors = (
{
name = candra;
position = "{1335, 768}";
},
{
name = imatra;
position = "{1437, 660}";
},
{
name = top;
position = "{1511, 745}";
}
);
components = (
{
name = "aaMatra-deva";
},
{
name = "anusvara-deva";
transform = "{1, 0, 0, 1, 1424, 163}";
}
);
layerId = "5EDCAC97-4996-4925-B8D9-EA484E9BADFC";
paths = (
{
closed = 1;
nodes = (
"1378 793 LINE",
"1141 897 OFFCURVE",
"835 960 OFFCURVE",
"540 960 CURVE",
"558 834 LINE",
"841 834 OFFCURVE",
"1080 782 OFFCURVE",
"1282 700 CURVE"
);
},
{
closed = 1;
nodes = (
"226 635 LINE",
"206 673 LINE",
"43 663 LINE",
"51 635 LINE"
);
},
{
closed = 1;
nodes = (
"206 673 LINE",
"162 772 OFFCURVE",
"216 834 OFFCURVE",
"558 834 CURVE",
"540 960 LINE",
"100 960 OFFCURVE",
"-5 837 OFFCURVE",
"43 663 CURVE"
);
}
);
width = 272;
}
);
leftMetricsKey = "=aaMatra-deva";
},
{
glyphname = "iMatra_anusvara-deva.11";
lastChange = "2020-11-26 21:43:25 +0000";
layers = (
{
anchors = (
{
name = candra;
position = "{960, 700}";
},
{
name = imatra;
position = "{989, 630}";
},
{
name = top;
position = "{1045, 666}";
}
);
components = (
{
name = "aaMatra-deva";
},
{
name = "anusvara-deva";
transform = "{1, 0, 0, 1, 1009, 157}";
}
);
layerId = "EA4BDF10-EAD0-47D5-9AD5-B8C643A094C2";
paths = (
{
closed = 1;
nodes = (
"990 774 LINE",
"813 869 OFFCURVE",
"574 930 OFFCURVE",
"386 930 CURVE",
"406 872 LINE",
"558 872 OFFCURVE",
"786 815 OFFCURVE",
"951 736 CURVE"
);
},
{
closed = 1;
nodes = (
"124 615 LINE",
"108 698 LINE",
"44 687 LINE",
"59 615 LINE"
);
},
{
closed = 1;
nodes = (
"108 698 LINE",
"91 793 OFFCURVE",
"127 872 OFFCURVE",
"406 872 CURVE",
"386 930 LINE",
"89 930 OFFCURVE",
"19 819 OFFCURVE",
"44 687 CURVE"
);
}
);
width = 190;
},
{
anchors = (
{
name = candra;
position = "{1411, 765}";
},
{
name = imatra;
position = "{1512, 660}";
},
{
name = top;
position = "{1589, 740}";
}
);
components = (
{
name = "aaMatra-deva";
},
{
name = "anusvara-deva";
transform = "{1, 0, 0, 1, 1495, 165}";
}
);
layerId = "5EDCAC97-4996-4925-B8D9-EA484E9BADFC";
paths = (
{
closed = 1;
nodes = (
"1451 792 LINE",
"1199 897 OFFCURVE",
"876 960 OFFCURVE",
"565 960 CURVE",
"584 835 LINE",
"886 835 OFFCURVE",
"1141 781 OFFCURVE",
"1358 699 CURVE"
);
},
{
closed = 1;
nodes = (
"226 635 LINE",
"206 673 LINE",
"43 663 LINE",
"51 635 LINE"
);
},
{
closed = 1;
nodes = (
"206 673 LINE",
"161 773 OFFCURVE",
"217 835 OFFCURVE",
"584 835 CURVE",
"565 960 LINE",
"100 960 OFFCURVE",
"-5 838 OFFCURVE",
"43 663 CURVE"
);
}
);
width = 272;
}
);
leftMetricsKey = "=aaMatra-deva";
},
{
glyphname = "iMatra_anusvara-deva.12";
lastChange = "2020-11-26 21:43:25 +0000";
layers = (
{
anchors = (
{
name = candra;
position = "{1008, 699}";
},
{
name = imatra;
position = "{1037, 630}";
},
{
name = top;
position = "{1093, 665}";
}
);
components = (
{
name = "aaMatra-deva";
},
{
name = "anusvara-deva";
transform = "{1, 0, 0, 1, 1057, 157}";
}
);
layerId = "EA4BDF10-EAD0-47D5-9AD5-B8C643A094C2";
paths = (
{
closed = 1;
nodes = (
"1039 776 LINE",
"851 869 OFFCURVE",
"597 930 OFFCURVE",
"403 930 CURVE",
"423 873 LINE",
"583 873 OFFCURVE",
"827 815 OFFCURVE",
"1002 736 CURVE"
);
},
{
closed = 1;
nodes = (
"124 615 LINE",
"108 697 LINE",
"45 686 LINE",
"59 615 LINE"
);
},
{
closed = 1;
nodes = (
"108 697 LINE",
"91 792 OFFCURVE",
"128 873 OFFCURVE",
"423 873 CURVE",
"403 930 LINE",
"90 930 OFFCURVE",
"19 818 OFFCURVE",
"45 686 CURVE"
);
}
);
width = 190;
},
{
anchors = (
{
name = candra;
position = "{1487, 763}";
},
{
name = imatra;
position = "{1587, 660}";
},
{
name = top;
position = "{1667, 734}";
}
);
components = (
{
name = "aaMatra-deva";
},
{
name = "anusvara-deva";
transform = "{1, 0, 0, 1, 1567, 167}";
}
);
layerId = "5EDCAC97-4996-4925-B8D9-EA484E9BADFC";
paths = (
{
closed = 1;
nodes = (
"1524 792 LINE",
"1257 897 OFFCURVE",
"916 960 OFFCURVE",
"590 960 CURVE",
"610 835 LINE",
"931 835 OFFCURVE",
"1201 781 OFFCURVE",
"1434 698 CURVE"
);
},
{
closed = 1;
nodes = (
"226 635 LINE",
"206 673 LINE",
"43 663 LINE",
"51 635 LINE"
);
},
{
closed = 1;
nodes = (
"206 673 LINE",
"161 774 OFFCURVE",
"218 835 OFFCURVE",
"610 835 CURVE",
"590 960 LINE",
"100 960 OFFCURVE",
"-6 838 OFFCURVE",
"43 663 CURVE"
);
}
);
width = 272;
}
);
leftMetricsKey = "=aaMatra-deva";
},
{
glyphname = "iMatra_anusvara-deva.13";
lastChange = "2020-11-26 21:43:25 +0000";
layers = (
{
anchors = (
{
name = candra;
position = "{1056, 697}";
},
{
name = imatra;
position = "{1085, 630}";
},
{
name = top;
position = "{1141, 664}";
}
);
components = (
{
name = "aaMatra-deva";
},
{
name = "anusvara-deva";
transform = "{1, 0, 0, 1, 1105, 157}";
}
);
layerId = "EA4BDF10-EAD0-47D5-9AD5-B8C643A094C2";
paths = (
{
closed = 1;
nodes = (
"1088 777 LINE",
"889 869 OFFCURVE",
"620 930 OFFCURVE",
"420 930 CURVE",
"440 873 LINE",
"608 873 OFFCURVE",
"867 814 OFFCURVE",
"1052 736 CURVE"
);
},
{
closed = 1;
nodes = (
"124 615 LINE",
"108 695 LINE",
"45 685 LINE",
"59 615 LINE"
);
},
{
closed = 1;
nodes = (
"108 695 LINE",
"91 790 OFFCURVE",
"129 873 OFFCURVE",
"440 873 CURVE",
"420 930 LINE",
"91 930 OFFCURVE",
"19 817 OFFCURVE",
"45 685 CURVE"
);
}
);
width = 190;
},
{
anchors = (
{
name = candra;
position = "{1562, 761}";
},
{
name = imatra;
position = "{1662, 660}";
},
{
name = top;
position = "{1744, 729}";
}
);
components = (
{
name = "aaMatra-deva";
},
{
name = "anusvara-deva";
transform = "{1, 0, 0, 1, 1639, 169}";
}
);
layerId = "5EDCAC97-4996-4925-B8D9-EA484E9BADFC";
paths = (
{
closed = 1;
nodes = (
"1596 792 LINE",
"1314 897 OFFCURVE",
"956 960 OFFCURVE",
"615 960 CURVE",
"636 835 LINE",
"976 835 OFFCURVE",
"1261 780 OFFCURVE",
"1509 696 CURVE"
);
},
{
closed = 1;
nodes = (
"226 635 LINE",
"206 673 LINE",
"43 663 LINE",
"51 635 LINE"
);
},
{
closed = 1;
nodes = (
"206 673 LINE",
"161 774 OFFCURVE",
"218 835 OFFCURVE",
"636 835 CURVE",
"615 960 LINE",
"99 960 OFFCURVE",
"-6 838 OFFCURVE",
"43 663 CURVE"
);
}
);
width = 272;
}
);
leftMetricsKey = "=aaMatra-deva";
},
{
glyphname = "iMatra_anusvara-deva.14";
lastChange = "2020-11-26 21:43:25 +0000";
layers = (
{
anchors = (
{
name = candra;
position = "{1104, 696}";
},
{
name = imatra;
position = "{1134, 630}";
},
{
name = top;
position = "{1188, 663}";
}
);
components = (
{
name = "aaMatra-deva";
},
{
name = "anusvara-deva";
transform = "{1, 0, 0, 1, 1154, 158}";
}
);
layerId = "EA4BDF10-EAD0-47D5-9AD5-B8C643A094C2";
paths = (
{
closed = 1;
nodes = (
"1137 778 LINE",
"926 869 OFFCURVE",
"644 930 OFFCURVE",
"437 930 CURVE",
"457 873 LINE",
"633 873 OFFCURVE",
"907 814 OFFCURVE",
"1103 737 CURVE"
);
},
{
closed = 1;
nodes = (
"124 615 LINE",
"109 694 LINE",
"45 683 LINE",
"59 615 LINE"
);
},
{
closed = 1;
nodes = (
"109 694 LINE",
"91 789 OFFCURVE",
"130 873 OFFCURVE",
"457 873 CURVE",
"437 930 LINE",
"91 930 OFFCURVE",
"20 816 OFFCURVE",
"45 683 CURVE"
);
}
);
width = 190;
},
{
anchors = (
{
name = candra;
position = "{1638, 759}";
},
{
name = imatra;
position = "{1737, 660}";
},
{
name = top;
position = "{1822, 723}";
}
);
components = (
{
name = "aaMatra-deva";
},
{
name = "anusvara-deva";
transform = "{1, 0, 0, 1, 1710, 171}";
}
);
layerId = "5EDCAC97-4996-4925-B8D9-EA484E9BADFC";
paths = (
{
closed = 1;
nodes = (
"1669 791 LINE",
"1372 897 OFFCURVE",
"997 960 OFFCURVE",
"640 960 CURVE",
"662 836 LINE",
"1021 836 OFFCURVE",
"1322 779 OFFCURVE",
"1585 695 CURVE"
);
},
{
closed = 1;
nodes = (
"226 635 LINE",
"206 673 LINE",
"43 663 LINE",
"51 635 LINE"
);
},
{
closed = 1;
nodes = (
"206 673 LINE",
"160 775 OFFCURVE",
"219 836 OFFCURVE",
"662 836 CURVE",
"640 960 LINE",
"99 960 OFFCURVE",
"-6 839 OFFCURVE",
"43 663 CURVE"
);
}
);
width = 272;
}
);
leftMetricsKey = "=aaMatra-deva";
},
{
glyphname = "iMatra_anusvara-deva.15";
lastChange = "2020-11-26 21:43:25 +0000";
layers = (
{
anchors = (
{
name = candra;
position = "{1152, 695}";
},
{
name = imatra;
position = "{1182, 630}";
},
{
name = top;
position = "{1236, 661}";
}
);
components = (
{
name = "aaMatra-deva";
},
{
name = "anusvara-deva";
transform = "{1, 0, 0, 1, 1202, 158}";
}
);
layerId = "EA4BDF10-EAD0-47D5-9AD5-B8C643A094C2";
paths = (
{
closed = 1;
nodes = (
"1186 779 LINE",
"964 869 OFFCURVE",
"667 930 OFFCURVE",
"454 930 CURVE",
"474 873 LINE",
"658 873 OFFCURVE",
"947 813 OFFCURVE",
"1154 737 CURVE"
);
},
{
closed = 1;
nodes = (
"124 615 LINE",
"109 692 LINE",
"45 682 LINE",
"59 615 LINE"
);
},
{
closed = 1;
nodes = (
"109 692 LINE",
"92 788 OFFCURVE",
"131 873 OFFCURVE",
"474 873 CURVE",
"454 930 LINE",
"92 930 OFFCURVE",
"20 814 OFFCURVE",
"45 682 CURVE"
);
}
);
width = 190;
},
{
anchors = (
{
name = candra;
position = "{1714, 756}";
},
{
name = imatra;
position = "{1812, 660}";
},
{
name = top;
position = "{1899, 718}";
}
);
components = (
{
name = "aaMatra-deva";
},
{
name = "anusvara-deva";
transform = "{1, 0, 0, 1, 1782, 173}";
}
);
layerId = "5EDCAC97-4996-4925-B8D9-EA484E9BADFC";
paths = (
{
closed = 1;
nodes = (
"1742 791 LINE",
"1429 897 OFFCURVE",
"1037 960 OFFCURVE",
"665 960 CURVE",
"688 836 LINE",
"1066 836 OFFCURVE",
"1382 779 OFFCURVE",
"1661 694 CURVE"
);
},
{
closed = 1;
nodes = (
"226 635 LINE",
"206 673 LINE",
"43 663 LINE",
"51 635 LINE"
);
},
{
closed = 1;
nodes = (
"206 673 LINE",
"160 776 OFFCURVE",
"220 836 OFFCURVE",
"688 836 CURVE",
"665 960 LINE",
"99 960 OFFCURVE",
"-6 839 OFFCURVE",
"43 663 CURVE"
);
}
);
width = 272;
}
);
leftMetricsKey = "=aaMatra-deva";
},
